<svg xmlns="http://www.w3.org/2000/svg" width="2173.728" height="2181.55" viewBox="0 0 2173.728 2181.55">
  <g id="Group_346" data-name="Group 346" transform="translate(-79.066 1)">
    <g id="Group_329" data-name="Group 329" transform="translate(444.744 317)">
      <g id="Group_328" data-name="Group 328" transform="translate(0 1198.847)">
        <path id="Path_1145" data-name="Path 1145" d="M699.319,476.883C587.109,511.936,577.633,544.776,657.955,629.6,544.587,601.2,521,624.779,549.4,738.166c-84.826-80.329-117.66-70.871-152.719,41.352-35.053-112.223-67.893-121.681-152.725-41.352C272.37,624.779,248.776,601.2,135.4,629.6c80.329-84.82,70.853-117.66-41.364-152.713,112.217-35.053,121.693-67.9,41.364-152.731C248.776,352.55,272.37,328.98,243.954,215.6c29.181,27.632,52.19,44.583,71.281,50.43v11.507A183.891,183.891,0,0,0,213.422,441.673c0,101.059,82.21,183.269,183.257,183.269s183.263-82.21,183.263-183.269A183.93,183.93,0,0,0,478.135,277.538v-11.5c19.085-5.841,42.087-22.8,71.263-50.436-28.4,113.38-4.81,136.95,108.558,108.552C577.633,408.984,587.109,441.83,699.319,476.883Z" transform="translate(-94.038 -114.815)" fill="rgba(2,175,190,0.48)"/>
        <g id="Group_327" data-name="Group 327" transform="translate(132.049)">
          <path id="Path_1146" data-name="Path 1146" d="M267.991,231.3H141.361c-5.045,0-9.132-4.66-9.132-10.452,0-5.745,4.087-10.447,9.132-10.447h126.63c5.015,0,9.078,4.7,9.078,10.447C277.069,226.642,273.006,231.3,267.991,231.3Z" transform="translate(-34.063 -140.945)" fill="rgba(2,175,190,0.48)"/>
          <path id="Path_1147" data-name="Path 1147" d="M267.991,260.05H141.361c-5.045,0-9.132-4.714-9.132-10.452,0-5.781,4.087-10.471,9.132-10.471h13.533l13.635-27.741s6.588-8.94,9.988-9.91c3.364-.989,42.346-5.311,54.414,0,0,0,5.9,1.694,10.5,10.609,3.544,6.806,11.031,20.767,14.395,27.042h10.163c5.015,0,9.078,4.69,9.078,10.471C277.069,255.336,273.006,260.05,267.991,260.05Z" transform="translate(-34.063 -198.88)" fill="rgba(2,175,190,0.48)"/>
          <path id="Path_1148" data-name="Path 1148" d="M267.991,236.156H141.361c-5.045,0-9.132-4.69-9.132-10.465,0-5.793,4.087-10.446,9.132-10.446h126.63c5.015,0,9.078,4.654,9.078,10.446C277.069,231.466,273.006,236.156,267.991,236.156Z" transform="translate(-34.063 -116.6)" fill="rgba(2,175,190,0.48)"/>
          <g id="Group_326" data-name="Group 326" transform="translate(0 126.67)">
            <path id="Path_1149" data-name="Path 1149" d="M158.869,256.845c1.284,2.586,1.519,4.575.711,5.889s-1.616,1.971-2.459,1.971c-1.881,0-4.455-2.6-5.69-5.027-1.826-3.623-1.64-8.108-.965-11.966C154.474,250.587,157.289,253.656,158.869,256.845Z" transform="translate(55.221 -80.026)" fill="rgba(2,175,190,0.48)"/>
            <path id="Path_1150" data-name="Path 1150" d="M150.857,260.669c.88,1.893,1.176,5.437.247,6.9a.874.874,0,0,1-.892.458,5.329,5.329,0,0,1-1.941-.488,11.128,11.128,0,0,1-5.588-5.811c-2.248-5-2.526-9.759-.832-13.75.3.38.627.772.94,1.164C145.812,252.784,148.922,256.558,150.857,260.669Z" transform="translate(8.83 -78.708)" fill="rgba(2,175,190,0.48)"/>
            <path id="Path_1151" data-name="Path 1151" d="M135.731,345.65c17.144-36.927,31.954-78.1,45.234-125.756h19.211c12.472,44.722,26.258,83.626,42.105,118.848-12.6,5.853-22.4,16.842-27.867,31.165a55.216,55.216,0,0,0-27.029-3.858c-7.939.778-14.624,2.688-19.91,5.648C162.369,365.651,150.276,352.6,135.731,345.65Z" transform="translate(-16.455 -219.894)" fill="rgba(2,175,190,0.48)"/>
            <path id="Path_1152" data-name="Path 1152" d="M134.993,257.78a5.591,5.591,0,0,1-.85.06c-1.579,0-3.436-.633-3.78-2.013-.705-2.737.651-5.25,1.911-6.878,3.1-3.978,8.885-6.993,13.479-6.993a8.3,8.3,0,0,1,1.115.078c-1.025,2.086-2.074,4.177-3.135,6.257C141.606,252.663,138.935,257.166,134.993,257.78Z" transform="translate(-44.417 -108.962)" fill="rgba(2,175,190,0.48)"/>
            <path id="Path_1153" data-name="Path 1153" d="M166.891,258.241l-.066.018c-.41,0-1.694-.524-4.66-5.365l-.241-.386c-1.857-3.653-3.707-7.414-5.624-11.4,4.183.428,7.661,1.893,9.789,4.159a9.962,9.962,0,0,1,2.453,7.776C168.308,256.649,167.385,258,166.891,258.241Z" transform="translate(86.965 -113.256)" fill="rgba(2,175,190,0.48)"/>
            <path id="Path_1154" data-name="Path 1154" d="M286.536,588.6A170.585,170.585,0,0,1,215.08,263.109v-33.13a10.082,10.082,0,0,1,10.073-10.085H267.94c-13.045,46.253-27.524,86.206-44.191,121.892-9.639-1.808-18.15.494-25.155,6.769-4.864,4.364-9.512,11.947-8.909,19.03a13.508,13.508,0,0,0,6.685,10.543,16.723,16.723,0,0,0,8.982,2.725c9.434,0,16.933-8.536,20.489-15.847q2.043-4.042,4.051-8.174c9.8,4.684,19.82,12.779,28.03,22.7a24.843,24.843,0,0,0-4.418,11.321c-.995,7.252,2.6,17.963,8.222,24.407,6.016,6.9,13.738,8.1,20.6,3.111,3.828-2.773,6.028-6.227,6.564-10.266,1.181-9.289-6.884-19.139-12.779-26.324-.265-.319-.518-.639-.766-.952a25.078,25.078,0,0,1,5.377-1.724c10.242-2.134,19.416-1.887,26.186.766q1.863.732,3.7,1.537a73.065,73.065,0,0,0-1.1,7.426c-1.019,10.609,1.911,18.337,9.259,24.3a16.278,16.278,0,0,0,10.067,3.611,11.879,11.879,0,0,0,8.831-3.617c3.978-4.159,5.757-8.879,5.275-14.015-.946-10.266-10.386-18.1-14.395-20.99-1.182-.85-2.393-1.676-3.647-2.465,3.086-8.59,9.572-21.351,21.809-26.168,2.484,5.262,5.045,10.477,7.6,15.528a7.676,7.676,0,0,0,.645,1.025c2.236,3.388,8.065,11.007,15.233,11.007a10.918,10.918,0,0,0,7.312-2.966c6.854-6.04,7.125-16.318,4.34-23.8-3.46-9.313-12.641-14.871-24.552-14.871a37.112,37.112,0,0,0-3.737.181c-15.5-34.142-29.043-72.052-41.34-115.7h35.7A10.083,10.083,0,0,1,358,229.979v33.13A170.592,170.592,0,0,1,286.536,588.6Z" transform="translate(-115.944 -219.894)" fill="rgba(2,175,190,0.48)"/>
          </g>
        </g>
      </g>
      <rect id="Rectangle_155" data-name="Rectangle 155" width="21.875" height="1530.718" transform="translate(291.704 -318)" fill="rgba(2,175,190,0.48)"/>
    </g>
    <g id="Group_333" data-name="Group 333" transform="translate(79.066)">
      <g id="Group_332" data-name="Group 332" transform="translate(0 1198.847)">
        <g id="Group_331" data-name="Group 331">
          <path id="Path_1155" data-name="Path 1155" d="M180.107,231.3H53.483c-5.045,0-9.132-4.66-9.132-10.452,0-5.745,4.087-10.447,9.132-10.447H180.107c5.027,0,9.084,4.7,9.084,10.447C189.191,226.642,185.134,231.3,180.107,231.3Z" transform="translate(53.815 -140.945)" fill="#02afbe"/>
          <path id="Path_1156" data-name="Path 1156" d="M180.107,260.05H53.483c-5.045,0-9.132-4.714-9.132-10.452,0-5.781,4.087-10.471,9.132-10.471H67.022l13.623-27.741s6.595-8.94,9.994-9.91c3.364-.989,42.347-5.311,54.415,0,0,0,5.889,1.694,10.495,10.609,3.557,6.806,11.031,20.767,14.4,27.042h10.157c5.027,0,9.084,4.69,9.084,10.471C189.191,255.336,185.134,260.05,180.107,260.05Z" transform="translate(53.815 -198.88)" fill="#02afbe"/>
          <path id="Path_1157" data-name="Path 1157" d="M180.107,236.156H53.483c-5.045,0-9.132-4.69-9.132-10.465,0-5.793,4.087-10.446,9.132-10.446H180.107c5.027,0,9.084,4.654,9.084,10.446C189.191,231.466,185.134,236.156,180.107,236.156Z" transform="translate(53.815 -116.6)" fill="#02afbe"/>
          <g id="Group_330" data-name="Group 330" transform="translate(0 126.67)">
            <path id="Path_1158" data-name="Path 1158" d="M70.994,256.845c1.278,2.586,1.513,4.575.711,5.889s-1.622,1.971-2.459,1.971c-1.881,0-4.461-2.6-5.7-5.027-1.826-3.623-1.634-8.108-.964-11.966C66.6,250.587,69.414,253.656,70.994,256.845Z" transform="translate(143.096 -80.026)" fill="#02afbe"/>
            <path id="Path_1159" data-name="Path 1159" d="M62.987,260.669c.874,1.893,1.163,5.437.247,6.9a.889.889,0,0,1-.9.458,5.3,5.3,0,0,1-1.941-.488,11.116,11.116,0,0,1-5.594-5.811c-2.242-5-2.52-9.759-.832-13.75.307.38.633.772.946,1.164C57.935,252.784,61.046,256.558,62.987,260.669Z" transform="translate(96.706 -78.708)" fill="#02afbe"/>
            <path id="Path_1160" data-name="Path 1160" d="M47.853,345.65c17.15-36.927,31.954-78.1,45.24-125.756H112.3c12.472,44.722,26.258,83.626,42.1,118.848-12.6,5.853-22.388,16.842-27.867,31.165A55.206,55.206,0,0,0,99.5,366.049c-7.933.778-14.612,2.688-19.91,5.648C74.5,365.651,62.4,352.6,47.853,345.65Z" transform="translate(71.423 -219.894)" fill="#02afbe"/>
            <path id="Path_1161" data-name="Path 1161" d="M47.12,257.78a5.67,5.67,0,0,1-.856.06c-1.573,0-3.43-.633-3.78-2.013-.705-2.737.651-5.25,1.911-6.878,3.1-3.978,8.885-6.993,13.479-6.993a8.324,8.324,0,0,1,1.121.078c-1.025,2.086-2.074,4.177-3.135,6.257C53.745,252.663,51.062,257.166,47.12,257.78Z" transform="translate(43.456 -108.962)" fill="#02afbe"/>
            <path id="Path_1162" data-name="Path 1162" d="M79.018,258.241l-.072.018c-.4,0-1.688-.524-4.66-5.365l-.235-.386c-1.863-3.653-3.707-7.414-5.63-11.4,4.189.428,7.668,1.893,9.8,4.159a9.937,9.937,0,0,1,2.447,7.776C80.429,256.649,79.513,258,79.018,258.241Z" transform="translate(174.838 -113.256)" fill="#02afbe"/>
            <path id="Path_1163" data-name="Path 1163" d="M198.658,588.6A170.586,170.586,0,0,1,127.2,263.109v-33.13a10.078,10.078,0,0,1,10.073-10.085h42.781c-13.039,46.253-27.518,86.206-44.185,121.892-9.639-1.808-18.144.494-25.155,6.769-4.865,4.364-9.518,11.947-8.915,19.03a13.523,13.523,0,0,0,6.685,10.543,16.742,16.742,0,0,0,8.988,2.725c9.428,0,16.927-8.536,20.483-15.847q2.052-4.042,4.063-8.174c9.789,4.684,19.814,12.779,28.018,22.7a24.835,24.835,0,0,0-4.412,11.321c-1,7.252,2.61,17.963,8.216,24.407,6.016,6.9,13.738,8.1,20.616,3.111,3.822-2.773,6.022-6.227,6.558-10.266,1.175-9.289-6.89-19.139-12.785-26.324-.259-.319-.518-.639-.766-.952a25.411,25.411,0,0,1,5.377-1.724c10.248-2.134,19.416-1.887,26.186.766q1.872.732,3.707,1.537a71.375,71.375,0,0,0-1.1,7.426c-1.025,10.609,1.9,18.337,9.259,24.3a16.252,16.252,0,0,0,10.067,3.611,11.889,11.889,0,0,0,8.831-3.617c3.972-4.159,5.751-8.879,5.274-14.015-.946-10.266-10.386-18.1-14.395-20.99-1.181-.85-2.4-1.676-3.641-2.465,3.074-8.59,9.566-21.351,21.8-26.168,2.49,5.262,5.051,10.477,7.6,15.528a7.151,7.151,0,0,0,.651,1.025c2.23,3.388,8.053,11.007,15.233,11.007a10.9,10.9,0,0,0,7.3-2.966c6.854-6.04,7.125-16.318,4.346-23.8-3.46-9.313-12.635-14.871-24.546-14.871a37.524,37.524,0,0,0-3.749.181c-15.5-34.142-29.031-72.052-41.334-115.7h35.7a10.085,10.085,0,0,1,10.1,10.085v33.13A170.592,170.592,0,0,1,198.658,588.6Z" transform="translate(-28.066 -219.894)" fill="#02afbe"/>
          </g>
        </g>
      </g>
      <rect id="Rectangle_156" data-name="Rectangle 156" width="21.875" height="1212.718" transform="translate(159.656)" fill="#02afbe"/>
    </g>
    <g id="Group_337" data-name="Group 337" transform="translate(1074.717 -155)">
      <g id="Group_336" data-name="Group 336" transform="translate(0 1198.847)">
        <g id="Group_335" data-name="Group 335">
          <path id="Path_1164" data-name="Path 1164" d="M354.077,231.3H227.453c-5.051,0-9.138-4.66-9.138-10.452,0-5.745,4.087-10.447,9.138-10.447H354.077c5.021,0,9.078,4.7,9.078,10.447C363.155,226.642,359.1,231.3,354.077,231.3Z" transform="translate(-120.149 -140.945)" fill="#02afbe"/>
          <path id="Path_1165" data-name="Path 1165" d="M354.077,260.05H227.453c-5.051,0-9.138-4.714-9.138-10.452,0-5.781,4.087-10.471,9.138-10.471h13.533l13.629-27.741s6.595-8.94,9.988-9.91c3.364-.989,42.346-5.311,54.414,0,0,0,5.9,1.694,10.5,10.609,3.55,6.806,11.031,20.767,14.389,27.042h10.169c5.021,0,9.078,4.69,9.078,10.471C363.155,255.336,359.1,260.05,354.077,260.05Z" transform="translate(-120.149 -198.88)" fill="#02afbe"/>
          <path id="Path_1166" data-name="Path 1166" d="M354.077,236.156H227.453c-5.051,0-9.138-4.69-9.138-10.465,0-5.793,4.087-10.446,9.138-10.446H354.077c5.021,0,9.078,4.654,9.078,10.446C363.155,231.466,359.1,236.156,354.077,236.156Z" transform="translate(-120.149 -116.6)" fill="#02afbe"/>
          <g id="Group_334" data-name="Group 334" transform="translate(0 126.67)">
            <path id="Path_1167" data-name="Path 1167" d="M244.956,256.845c1.284,2.586,1.519,4.575.711,5.889s-1.616,1.971-2.453,1.971c-1.887,0-4.461-2.6-5.7-5.027-1.826-3.623-1.64-8.108-.971-11.966C240.561,250.587,243.377,253.656,244.956,256.845Z" transform="translate(-30.866 -80.026)" fill="#02afbe"/>
            <path id="Path_1168" data-name="Path 1168" d="M236.944,260.669c.88,1.893,1.176,5.437.253,6.9a.885.885,0,0,1-.892.458,5.3,5.3,0,0,1-1.947-.488,11.127,11.127,0,0,1-5.588-5.811c-2.248-5-2.526-9.759-.838-13.75.307.38.639.772.946,1.164C231.9,252.784,235.009,256.558,236.944,260.669Z" transform="translate(-77.257 -78.708)" fill="#02afbe"/>
            <path id="Path_1169" data-name="Path 1169" d="M221.817,345.65c17.15-36.927,31.954-78.1,45.234-125.756h19.217c12.466,44.722,26.252,83.626,42.1,118.848-12.61,5.853-22.394,16.842-27.867,31.165a55.216,55.216,0,0,0-27.029-3.858c-7.939.778-14.618,2.688-19.91,5.648C248.461,365.651,236.363,352.6,221.817,345.65Z" transform="translate(-102.541 -219.894)" fill="#02afbe"/>
            <path id="Path_1170" data-name="Path 1170" d="M221.079,257.78a5.591,5.591,0,0,1-.85.06c-1.579,0-3.436-.633-3.78-2.013-.705-2.737.651-5.25,1.911-6.878,3.1-3.978,8.885-6.993,13.479-6.993a8.305,8.305,0,0,1,1.115.078c-1.025,2.086-2.074,4.177-3.129,6.257C227.7,252.663,225.021,257.166,221.079,257.78Z" transform="translate(-130.503 -108.962)" fill="#02afbe"/>
            <path id="Path_1171" data-name="Path 1171" d="M252.977,258.241l-.066.018c-.4,0-1.694-.524-4.666-5.365l-.235-.386c-1.857-3.653-3.707-7.414-5.624-11.4,4.189.428,7.662,1.893,9.79,4.159a9.962,9.962,0,0,1,2.453,7.776C254.394,256.649,253.472,258,252.977,258.241Z" transform="translate(0.879 -113.256)" fill="#02afbe"/>
            <path id="Path_1172" data-name="Path 1172" d="M372.628,588.6a170.586,170.586,0,0,1-71.462-325.487v-33.13a10.081,10.081,0,0,1,10.067-10.085h42.793C340.981,266.147,326.5,306.1,309.834,341.786c-9.639-1.808-18.15.494-25.155,6.769-4.865,4.364-9.512,11.947-8.909,19.03a13.523,13.523,0,0,0,6.685,10.543,16.723,16.723,0,0,0,8.982,2.725c9.434,0,16.933-8.536,20.489-15.847q2.043-4.042,4.057-8.174c9.789,4.684,19.814,12.779,28.024,22.7a24.769,24.769,0,0,0-4.412,11.321c-1,7.252,2.6,17.963,8.216,24.407,6.016,6.9,13.738,8.1,20.61,3.111,3.822-2.773,6.022-6.227,6.558-10.266,1.182-9.289-6.884-19.139-12.779-26.324-.259-.319-.518-.639-.766-.952a25.3,25.3,0,0,1,5.377-1.724c10.242-2.134,19.416-1.887,26.186.766q1.863.732,3.7,1.537a74.756,74.756,0,0,0-1.1,7.426c-1.019,10.609,1.911,18.337,9.259,24.3a16.278,16.278,0,0,0,10.067,3.611,11.879,11.879,0,0,0,8.831-3.617c3.978-4.159,5.757-8.879,5.275-14.015-.946-10.266-10.386-18.1-14.395-20.99-1.181-.85-2.4-1.676-3.647-2.465,3.086-8.59,9.572-21.351,21.809-26.168,2.484,5.262,5.039,10.477,7.6,15.528a7.112,7.112,0,0,0,.645,1.025c2.23,3.388,8.059,11.007,15.233,11.007a10.915,10.915,0,0,0,7.306-2.966c6.854-6.04,7.125-16.318,4.34-23.8-3.454-9.313-12.635-14.871-24.552-14.871a37.116,37.116,0,0,0-3.737.181c-15.5-34.142-29.037-72.052-41.34-115.7h35.7a10.083,10.083,0,0,1,10.1,10.085v33.13A170.592,170.592,0,0,1,372.628,588.6Z" transform="translate(-202.03 -219.894)" fill="#02afbe"/>
          </g>
        </g>
      </g>
      <rect id="Rectangle_157" data-name="Rectangle 157" width="21.87" height="1055.718" transform="translate(159.661 157)" fill="#02afbe"/>
    </g>
    <g id="Group_341" data-name="Group 341" transform="translate(1493.167 88)">
      <g id="Group_340" data-name="Group 340" transform="translate(0 1198.847)">
        <g id="Group_339" data-name="Group 339">
          <path id="Path_1173" data-name="Path 1173" d="M423.329,231.3H296.706c-5.052,0-9.139-4.66-9.139-10.452,0-5.745,4.087-10.447,9.139-10.447H423.329c5.021,0,9.084,4.7,9.084,10.447C432.414,226.642,428.351,231.3,423.329,231.3Z" transform="translate(-189.402 -140.945)" fill="#02afbe"/>
          <path id="Path_1174" data-name="Path 1174" d="M423.329,260.05H296.706c-5.052,0-9.139-4.714-9.139-10.452,0-5.781,4.087-10.471,9.139-10.471h13.533l13.629-27.741s6.595-8.94,9.989-9.91c3.363-.989,42.346-5.311,54.415,0,0,0,5.9,1.694,10.5,10.609,3.55,6.806,11.031,20.767,14.395,27.042h10.163c5.021,0,9.084,4.69,9.084,10.471C432.414,255.336,428.351,260.05,423.329,260.05Z" transform="translate(-189.402 -198.88)" fill="#02afbe"/>
          <path id="Path_1175" data-name="Path 1175" d="M423.329,236.156H296.706c-5.052,0-9.139-4.69-9.139-10.465,0-5.793,4.087-10.446,9.139-10.446H423.329c5.021,0,9.084,4.654,9.084,10.446C432.414,231.466,428.351,236.156,423.329,236.156Z" transform="translate(-189.402 -116.6)" fill="#02afbe"/>
          <g id="Group_338" data-name="Group 338" transform="translate(0 126.67)">
            <path id="Path_1176" data-name="Path 1176" d="M314.212,256.845c1.278,2.586,1.513,4.575.711,5.889s-1.628,1.971-2.459,1.971c-1.887,0-4.461-2.6-5.7-5.027-1.827-3.623-1.634-8.108-.971-11.966C309.811,250.587,312.627,253.656,314.212,256.845Z" transform="translate(-100.116 -80.026)" fill="#02afbe"/>
            <path id="Path_1177" data-name="Path 1177" d="M306.193,260.669c.88,1.893,1.175,5.437.253,6.9a.885.885,0,0,1-.892.458,5.251,5.251,0,0,1-1.941-.488,11.117,11.117,0,0,1-5.594-5.811c-2.242-5-2.52-9.759-.838-13.75.313.38.639.772.946,1.164C301.153,252.784,304.258,256.558,306.193,260.669Z" transform="translate(-146.506 -78.708)" fill="#02afbe"/>
            <path id="Path_1178" data-name="Path 1178" d="M291.069,345.65c17.15-36.927,31.96-78.1,45.234-125.756H355.52c12.466,44.722,26.252,83.626,42.1,118.848-12.611,5.853-22.394,16.842-27.867,31.165a55.216,55.216,0,0,0-27.029-3.858c-7.939.778-14.618,2.688-19.911,5.648C317.713,365.651,305.609,352.6,291.069,345.65Z" transform="translate(-171.794 -219.894)" fill="#02afbe"/>
            <path id="Path_1179" data-name="Path 1179" d="M290.337,257.78a5.725,5.725,0,0,1-.856.06c-1.579,0-3.436-.633-3.779-2.013-.705-2.737.645-5.25,1.9-6.878,3.111-3.978,8.891-6.993,13.484-6.993a8.3,8.3,0,0,1,1.115.078c-1.025,2.086-2.074,4.177-3.129,6.257C296.95,252.663,294.274,257.166,290.337,257.78Z" transform="translate(-199.755 -108.962)" fill="#02afbe"/>
            <path id="Path_1180" data-name="Path 1180" d="M322.229,258.241l-.066.018c-.41,0-1.688-.524-4.666-5.365l-.235-.386c-1.857-3.653-3.707-7.414-5.624-11.4,4.19.428,7.668,1.893,9.8,4.159a9.96,9.96,0,0,1,2.447,7.776C323.646,256.649,322.724,258,322.229,258.241Z" transform="translate(-68.373 -113.256)" fill="#02afbe"/>
            <path id="Path_1181" data-name="Path 1181" d="M441.88,588.6a170.586,170.586,0,0,1-71.462-325.487v-33.13a10.082,10.082,0,0,1,10.073-10.085h42.787c-13.039,46.253-27.524,86.206-44.191,121.892-9.639-1.808-18.144.494-25.149,6.769-4.865,4.364-9.518,11.947-8.915,19.03a13.523,13.523,0,0,0,6.685,10.543,16.738,16.738,0,0,0,8.982,2.725c9.434,0,16.933-8.536,20.489-15.847q2.044-4.042,4.057-8.174c9.789,4.684,19.82,12.779,28.024,22.7a24.769,24.769,0,0,0-4.412,11.321c-1,7.252,2.6,17.963,8.216,24.407,6.016,6.9,13.738,8.1,20.61,3.111,3.822-2.773,6.028-6.227,6.558-10.266,1.182-9.289-6.884-19.139-12.779-26.324-.259-.319-.518-.639-.765-.952a25.3,25.3,0,0,1,5.377-1.724c10.241-2.134,19.416-1.887,26.185.766,1.248.488,2.477,1,3.707,1.537a71.365,71.365,0,0,0-1.1,7.426c-1.025,10.609,1.9,18.337,9.253,24.3a16.278,16.278,0,0,0,10.067,3.611A11.87,11.87,0,0,0,493,413.133c3.978-4.159,5.757-8.879,5.274-14.015-.946-10.266-10.38-18.1-14.395-20.99-1.181-.85-2.4-1.676-3.647-2.465,3.086-8.59,9.572-21.351,21.809-26.168,2.49,5.262,5.039,10.477,7.6,15.528a7.1,7.1,0,0,0,.645,1.025c2.23,3.388,8.059,11.007,15.233,11.007a10.915,10.915,0,0,0,7.306-2.966c6.854-6.04,7.125-16.318,4.34-23.8-3.46-9.313-12.634-14.871-24.552-14.871a37.11,37.11,0,0,0-3.737.181c-15.5-34.142-29.037-72.052-41.334-115.7h35.7a10.085,10.085,0,0,1,10.1,10.085v33.13A170.592,170.592,0,0,1,441.88,588.6Z" transform="translate(-271.282 -219.894)" fill="#02afbe"/>
          </g>
        </g>
      </g>
      <rect id="Rectangle_158" data-name="Rectangle 158" width="21.875" height="1298.718" transform="translate(159.66 -86)" fill="#02afbe"/>
    </g>
    <g id="Group_345" data-name="Group 345" transform="translate(1911.616)">
      <g id="Group_344" data-name="Group 344" transform="translate(0 1198.847)">
        <g id="Group_343" data-name="Group 343">
          <path id="Path_1182" data-name="Path 1182" d="M492.581,231.3H365.958c-5.045,0-9.138-4.66-9.138-10.452,0-5.745,4.093-10.447,9.138-10.447H492.581c5.021,0,9.084,4.7,9.084,10.447C501.665,226.642,497.6,231.3,492.581,231.3Z" transform="translate(-258.653 -140.945)" fill="#02afbe"/>
          <path id="Path_1183" data-name="Path 1183" d="M492.581,260.05H365.958c-5.045,0-9.138-4.714-9.138-10.452,0-5.781,4.093-10.471,9.138-10.471H379.49l13.629-27.741s6.595-8.94,9.994-9.91c3.358-.989,42.335-5.311,54.409,0,0,0,5.9,1.694,10.5,10.609,3.55,6.806,11.031,20.767,14.395,27.042h10.163c5.021,0,9.084,4.69,9.084,10.471C501.665,255.336,497.6,260.05,492.581,260.05Z" transform="translate(-258.653 -198.88)" fill="#02afbe"/>
          <path id="Path_1184" data-name="Path 1184" d="M492.581,236.156H365.958c-5.045,0-9.138-4.69-9.138-10.465,0-5.793,4.093-10.446,9.138-10.446H492.581c5.021,0,9.084,4.654,9.084,10.446C501.665,231.466,497.6,236.156,492.581,236.156Z" transform="translate(-258.653 -116.6)" fill="#02afbe"/>
          <g id="Group_342" data-name="Group 342" transform="translate(0 126.67)">
            <path id="Path_1185" data-name="Path 1185" d="M383.464,256.845c1.278,2.586,1.513,4.575.711,5.889s-1.628,1.971-2.46,1.971c-1.887,0-4.461-2.6-5.7-5.027-1.827-3.623-1.634-8.108-.971-11.966C379.063,250.587,381.884,253.656,383.464,256.845Z" transform="translate(-169.368 -80.026)" fill="#02afbe"/>
            <path id="Path_1186" data-name="Path 1186" d="M375.445,260.669c.886,1.893,1.176,5.437.247,6.9a.865.865,0,0,1-.886.458,5.251,5.251,0,0,1-1.941-.488,11.116,11.116,0,0,1-5.594-5.811c-2.243-5-2.52-9.759-.838-13.75.313.38.639.772.946,1.164C370.405,252.784,373.51,256.558,375.445,260.669Z" transform="translate(-215.758 -78.708)" fill="#02afbe"/>
            <path id="Path_1187" data-name="Path 1187" d="M360.321,345.65c17.149-36.927,31.96-78.1,45.234-125.756h19.217c12.466,44.722,26.252,83.626,42.1,118.848-12.611,5.853-22.394,16.842-27.867,31.165a55.206,55.206,0,0,0-27.029-3.858c-7.939.778-14.612,2.688-19.91,5.648C386.965,365.651,374.861,352.6,360.321,345.65Z" transform="translate(-241.045 -219.894)" fill="#02afbe"/>
            <path id="Path_1188" data-name="Path 1188" d="M359.59,257.78a5.668,5.668,0,0,1-.856.06c-1.579,0-3.43-.633-3.78-2.013-.705-2.737.645-5.25,1.9-6.878,3.11-3.978,8.891-6.993,13.485-6.993a8.234,8.234,0,0,1,1.115.078c-1.025,2.086-2.068,4.177-3.129,6.257C366.2,252.663,363.532,257.166,359.59,257.78Z" transform="translate(-269.007 -108.962)" fill="#02afbe"/>
            <path id="Path_1189" data-name="Path 1189" d="M391.481,258.241l-.066.018c-.41,0-1.688-.524-4.666-5.365l-.235-.386c-1.857-3.653-3.707-7.414-5.624-11.4,4.189.428,7.667,1.893,9.8,4.159a9.96,9.96,0,0,1,2.447,7.776C392.9,256.649,391.982,258,391.481,258.241Z" transform="translate(-137.625 -113.256)" fill="#02afbe"/>
            <path id="Path_1190" data-name="Path 1190" d="M511.132,588.6A170.586,170.586,0,0,1,439.67,263.109v-33.13a10.082,10.082,0,0,1,10.073-10.085H492.53c-13.039,46.253-27.518,86.206-44.185,121.892-9.645-1.808-18.15.494-25.155,6.769-4.865,4.364-9.518,11.947-8.915,19.03a13.523,13.523,0,0,0,6.685,10.543,16.723,16.723,0,0,0,8.982,2.725c9.434,0,16.932-8.536,20.489-15.847q2.043-4.042,4.063-8.174c9.789,4.684,19.814,12.779,28.018,22.7a24.769,24.769,0,0,0-4.413,11.321c-1,7.252,2.6,17.963,8.216,24.407,6.016,6.9,13.738,8.1,20.61,3.111,3.822-2.773,6.028-6.227,6.565-10.266,1.175-9.289-6.89-19.139-12.785-26.324-.259-.319-.518-.639-.766-.952a25.3,25.3,0,0,1,5.377-1.724c10.242-2.134,19.416-1.887,26.186.766q1.872.732,3.707,1.537a71.368,71.368,0,0,0-1.1,7.426c-1.025,10.609,1.9,18.337,9.253,24.3a16.265,16.265,0,0,0,10.067,3.611,11.88,11.88,0,0,0,8.831-3.617c3.979-4.159,5.757-8.879,5.274-14.015-.947-10.266-10.38-18.1-14.389-20.99-1.194-.85-2.405-1.676-3.653-2.465,3.086-8.59,9.578-21.351,21.809-26.168,2.489,5.262,5.045,10.477,7.6,15.528a7.112,7.112,0,0,0,.645,1.025c2.236,3.388,8.059,11.007,15.233,11.007a10.9,10.9,0,0,0,7.306-2.966c6.854-6.04,7.125-16.318,4.346-23.8-3.466-9.313-12.641-14.871-24.552-14.871a37.316,37.316,0,0,0-3.743.181c-15.5-34.142-29.037-72.052-41.334-115.7h35.7a10.088,10.088,0,0,1,10.1,10.085v33.13A170.592,170.592,0,0,1,511.132,588.6Z" transform="translate(-340.534 -219.894)" fill="#02afbe"/>
          </g>
        </g>
      </g>
      <rect id="Rectangle_159" data-name="Rectangle 159" width="21.876" height="1212.718" transform="translate(159.66)" fill="#02afbe"/>
    </g>
  </g>
</svg>
