<svg xmlns="http://www.w3.org/2000/svg" width="2556" height="636" viewBox="0 0 2556 636">
  <g id="Group_325" data-name="Group 325" transform="translate(-10149.5 2469)">
    <g id="Ellipse_43" data-name="Ellipse 43" transform="translate(11362 -2466)" fill="#005861" stroke="#005861" stroke-width="1">
      <circle cx="78.5" cy="78.5" r="78.5" stroke="none"/>
      <circle cx="78.5" cy="78.5" r="78" fill="none"/>
    </g>
    <g id="Ellipse_44" data-name="Ellipse 44" transform="translate(11513 -2357)" fill="#005861" stroke="#005861" stroke-width="1">
      <circle cx="78.5" cy="78.5" r="78.5" stroke="none"/>
      <circle cx="78.5" cy="78.5" r="78" fill="none"/>
    </g>
    <g id="Ellipse_53" data-name="Ellipse 53" transform="translate(12221 -2466)" fill="#005861" stroke="#005861" stroke-width="1">
      <circle cx="58" cy="58" r="58" stroke="none"/>
      <circle cx="58" cy="58" r="57.5" fill="none"/>
    </g>
    <g id="Ellipse_54" data-name="Ellipse 54" transform="translate(12559 -2466)" fill="#005861" stroke="#005861" stroke-width="1">
      <circle cx="58" cy="58" r="58" stroke="none"/>
      <circle cx="58" cy="58" r="57.5" fill="none"/>
    </g>
    <g id="Ellipse_55" data-name="Ellipse 55" transform="translate(12488 -2301)" fill="#005861" stroke="#005861" stroke-width="1">
      <circle cx="58" cy="58" r="58" stroke="none"/>
      <circle cx="58" cy="58" r="57.5" fill="none"/>
    </g>
    <g id="Ellipse_56" data-name="Ellipse 56" transform="translate(12289 -2301)" fill="#005861" stroke="#005861" stroke-width="1">
      <circle cx="58" cy="58" r="58" stroke="none"/>
      <circle cx="58" cy="58" r="57.5" fill="none"/>
    </g>
    <g id="Ellipse_57" data-name="Ellipse 57" transform="translate(12391 -2135)" fill="#005861" stroke="#005861" stroke-width="1">
      <circle cx="58" cy="58" r="58" stroke="none"/>
      <circle cx="58" cy="58" r="57.5" fill="none"/>
    </g>
    <g id="Ellipse_45" data-name="Ellipse 45" transform="translate(11456 -2179)" fill="#005861" stroke="#005861" stroke-width="1">
      <circle cx="78.5" cy="78.5" r="78.5" stroke="none"/>
      <circle cx="78.5" cy="78.5" r="78" fill="none"/>
    </g>
    <g id="Ellipse_46" data-name="Ellipse 46" transform="translate(11271 -2176)" fill="#005861" stroke="#005861" stroke-width="1">
      <circle cx="78.5" cy="78.5" r="78.5" stroke="none"/>
      <circle cx="78.5" cy="78.5" r="78" fill="none"/>
    </g>
    <g id="Ellipse_47" data-name="Ellipse 47" transform="translate(11209 -2352)" fill="#005861" stroke="#005861" stroke-width="1">
      <circle cx="78.5" cy="78.5" r="78.5" stroke="none"/>
      <circle cx="78.5" cy="78.5" r="78" fill="none"/>
    </g>
    <g id="Ellipse_48" data-name="Ellipse 48" transform="translate(10547 -2469)" fill="#005861" stroke="#005861" stroke-width="1">
      <circle cx="29.5" cy="29.5" r="29.5" stroke="none"/>
      <circle cx="29.5" cy="29.5" r="29" fill="none"/>
    </g>
    <g id="Ellipse_49" data-name="Ellipse 49" transform="translate(10629 -2218)" fill="#005861" stroke="#005861" stroke-width="1">
      <circle cx="29.5" cy="29.5" r="29.5" stroke="none"/>
      <circle cx="29.5" cy="29.5" r="29" fill="none"/>
    </g>
    <g id="Ellipse_50" data-name="Ellipse 50" transform="translate(10416 -2060)" fill="#005861" stroke="#005861" stroke-width="1">
      <circle cx="29.5" cy="29.5" r="29.5" stroke="none"/>
      <circle cx="29.5" cy="29.5" r="29" fill="none"/>
    </g>
    <g id="Ellipse_51" data-name="Ellipse 51" transform="translate(10198 -2218)" fill="#005861" stroke="#005861" stroke-width="1">
      <circle cx="29.5" cy="29.5" r="29.5" stroke="none"/>
      <circle cx="29.5" cy="29.5" r="29" fill="none"/>
    </g>
    <g id="Ellipse_52" data-name="Ellipse 52" transform="translate(10282 -2469)" fill="#005861" stroke="#005861" stroke-width="1">
      <circle cx="29.5" cy="29.5" r="29.5" stroke="none"/>
      <circle cx="29.5" cy="29.5" r="29" fill="none"/>
    </g>
    <path id="Path_1140" data-name="Path 1140" d="M-9.538,58.293S-40.591,10.745,1.852-17.249s74.5,18.964,74.5,18.964" transform="translate(10341.5 -2378.5)" fill="none" stroke="#005861" stroke-linecap="round" stroke-width="26"/>
    <path id="Path_1141" data-name="Path 1141" d="M-9.538,58.293S-40.591,10.745,1.852-17.249s74.5,18.964,74.5,18.964" transform="translate(10520.189 -2394.533) rotate(65)" fill="none" stroke="#005861" stroke-linecap="round" stroke-width="26"/>
    <path id="Path_1142" data-name="Path 1142" d="M-9.538,58.293S-40.591,10.745,1.852-17.249s74.5,18.964,74.5,18.964" transform="matrix(-0.719, 0.695, -0.695, -0.719, 10593.681, -2224.271)" fill="none" stroke="#005861" stroke-linecap="round" stroke-width="26"/>
    <path id="Path_1143" data-name="Path 1143" d="M10.958,0s-31.053,47.548,11.39,75.543,74.5-18.964,74.5-18.964" transform="matrix(0.719, 0.695, -0.695, 0.719, 10315.926, -2278.441)" fill="none" stroke="#005861" stroke-linecap="round" stroke-width="26"/>
    <path id="Path_1144" data-name="Path 1144" d="M10.958,0s-31.053,47.548,11.39,75.543,74.5-18.964,74.5-18.964" transform="matrix(0.829, -0.559, 0.559, 0.829, 10385.672, -2141.357)" fill="none" stroke="#005861" stroke-linecap="round" stroke-width="26"/>
    <text id="Our_People" data-name="Our People" transform="translate(10432.5 -1858)" fill="#005861" stroke="#005861" stroke-width="1" font-size="97" font-family="Montserrat-SemiBold, Montserrat" font-weight="600"><tspan x="-281.155" y="0">Our People</tspan></text>
    <text id="_" data-name="+" transform="translate(10920.5 -1978)" fill="#005861" stroke="#005861" stroke-width="1" font-size="481" font-family="Montserrat-SemiBold, Montserrat" font-weight="600"><tspan x="-141.895" y="0">+</tspan></text>
    <text id="_2" data-name="=" transform="translate(11959.5 -2014)" fill="#005861" stroke="#005861" stroke-width="1" font-size="380" font-family="Montserrat-SemiBold, Montserrat" font-weight="600"><tspan x="-112.1" y="0">=</tspan></text>
    <text id="Our_Values" data-name="Our Values" transform="translate(11428.5 -1861)" fill="#005861" stroke="#005861" stroke-width="1" font-size="97" font-family="Montserrat-SemiBold, Montserrat" font-weight="600"><tspan x="-271.94" y="0">Our Values</tspan></text>
    <text id="Vedansh" transform="translate(12449.5 -1862)" fill="#005861" stroke="#005861" stroke-width="1" font-size="112" font-family="Montserrat-Bold, Montserrat" font-weight="700"><tspan x="-254.464" y="0">Vedansh</tspan></text>
  </g>
</svg>
