<svg xmlns="http://www.w3.org/2000/svg" width="490" height="468" viewBox="0 0 490 468">
  <g id="our-people" transform="translate(-10389 1492)">
    <g id="Group_353" data-name="Group 353" transform="translate(191 977)">
      <g id="Ellipse_52" data-name="Ellipse 52" transform="translate(10282 -2469)" fill="#005861" stroke="#005861" stroke-width="1">
        <circle cx="29.5" cy="29.5" r="29.5" stroke="none"/>
        <circle cx="29.5" cy="29.5" r="29" fill="none"/>
      </g>
      <path id="Path_1140" data-name="Path 1140" d="M-9.538,58.293S-40.591,10.745,1.852-17.249s74.5,18.964,74.5,18.964" transform="translate(10341.5 -2378.5)" fill="none" stroke="#005861" stroke-linecap="round" stroke-width="26"/>
    </g>
    <g id="Group_354" data-name="Group 354" transform="translate(191 977)">
      <g id="Ellipse_48" data-name="Ellipse 48" transform="translate(10547 -2469)" fill="#005861" stroke="#005861" stroke-width="1">
        <circle cx="29.5" cy="29.5" r="29.5" stroke="none"/>
        <circle cx="29.5" cy="29.5" r="29" fill="none"/>
      </g>
      <path id="Path_1141" data-name="Path 1141" d="M-9.538,58.293S-40.591,10.745,1.852-17.249s74.5,18.964,74.5,18.964" transform="translate(10520.189 -2394.533) rotate(65)" fill="none" stroke="#005861" stroke-linecap="round" stroke-width="26"/>
    </g>
    <g id="Group_355" data-name="Group 355" transform="translate(191 977)">
      <g id="Ellipse_49" data-name="Ellipse 49" transform="translate(10629 -2218)" fill="#005861" stroke="#005861" stroke-width="1">
        <circle cx="29.5" cy="29.5" r="29.5" stroke="none"/>
        <circle cx="29.5" cy="29.5" r="29" fill="none"/>
      </g>
      <path id="Path_1142" data-name="Path 1142" d="M-9.538,58.293S-40.591,10.745,1.852-17.249s74.5,18.964,74.5,18.964" transform="matrix(-0.719, 0.695, -0.695, -0.719, 10593.681, -2224.271)" fill="none" stroke="#005861" stroke-linecap="round" stroke-width="26"/>
    </g>
    <g id="Group_356" data-name="Group 356" transform="translate(191 977)">
      <g id="Ellipse_51" data-name="Ellipse 51" transform="translate(10198 -2218)" fill="#005861" stroke="#005861" stroke-width="1">
        <circle cx="29.5" cy="29.5" r="29.5" stroke="none"/>
        <circle cx="29.5" cy="29.5" r="29" fill="none"/>
      </g>
      <path id="Path_1143" data-name="Path 1143" d="M10.958,0s-31.053,47.548,11.39,75.543,74.5-18.964,74.5-18.964" transform="matrix(0.719, 0.695, -0.695, 0.719, 10315.926, -2278.441)" fill="none" stroke="#005861" stroke-linecap="round" stroke-width="26"/>
    </g>
    <g id="Group_357" data-name="Group 357" transform="translate(191 977)">
      <g id="Ellipse_50" data-name="Ellipse 50" transform="translate(10416 -2060)" fill="#005861" stroke="#005861" stroke-width="1">
        <circle cx="29.5" cy="29.5" r="29.5" stroke="none"/>
        <circle cx="29.5" cy="29.5" r="29" fill="none"/>
      </g>
      <path id="Path_1144" data-name="Path 1144" d="M10.958,0s-31.053,47.548,11.39,75.543,74.5-18.964,74.5-18.964" transform="matrix(0.829, -0.559, 0.559, 0.829, 10385.672, -2141.357)" fill="none" stroke="#005861" stroke-linecap="round" stroke-width="26"/>
    </g>
  </g>
</svg>
