<svg xmlns="http://www.w3.org/2000/svg" width="817" height="614.272" viewBox="0 0 817 614.272"><g transform="translate(-61.582 -317)"><path d="M875.7,819.393a201.721,201.721,0,0,1-27.046,47.687.034.034,0,0,1-.009.013q-4.528,5.849-9.3,10.995c-.165.178-.325.351-.49.525-.043.048-.091.1-.139.147q-1.756,1.88-3.548,3.674-1.555,1.555-3.131,3.045-1.984,1.88-4,3.648-3.519,3.1-7.113,5.859c-.3.239-.612.468-.92.7a128.387,128.387,0,0,1-28.668,16.524h0c-.013,0-.026.013-.039.017a110.465,110.465,0,0,1-25.194,7.091q-13.558,2.088-26.27,3.478c-.976.113-1.952.217-2.923.321-.434.043-.863.091-1.292.134l-.356.039q-12.953,1.333-25.1,2.056c-1.141.069-2.277.139-3.409.2q-4.125.228-8.163.39c-.933.039-1.865.078-2.793.108l-1.019.039-2.078.065c-20.766.651-39.845.16-57.705-.833h-.009c-19.183-1.062-36.965-2.7-53.927-4.12l-1.852-.156q-5.5-.455-10.9-.872-3.22-.241-6.406-.464c-19.925-1.375-38.978-1.986-58.208-.408-1.436.117-2.871.243-4.307.39-.521.048-1.045.1-1.566.161-6.193.65-12.417,1.544-18.706,2.728a227.7,227.7,0,0,0-34.163,9.229q-4.144,1.464-8.362,3.131s-2.216.516-6.28,1.292c-2.685.516-6.176,1.145-10.37,1.817-8.934,1.436-21.061,3.071-35.365,4.207l-.134.013h-.035a432.141,432.141,0,0,1-61.465.59q-6.135-.39-12.4-1a316.971,316.971,0,0,1-49.924-8.8q-8.744-2.31-17.409-5.244c-.49-.165-.985-.334-1.475-.507q-9.31-3.227-18.407-7.256c-.546-.239-1.093-.486-1.635-.733a206.7,206.7,0,0,1-27.554-15.262q-6.421-4.2-12.742-8.969c-.455-.343-.911-.69-1.362-1.032l-.7-.542c-30.078-23.229-57.436-55.862-72.031-94.531a172.879,172.879,0,0,1-8.713-31.869,163.319,163.319,0,0,1-1.128-47.977,173.562,173.562,0,0,1,6.8-30.941,193.953,193.953,0,0,1,8.718-22.536c1.635-3.561,3.661-9.056,7.226-15.891,8.939-17.127,27.554-42.66,73.935-67.251C220.558,568.5,256,554.8,303.809,543.128q17.5-4.274,37.26-8.158c.564-.108,1.123-.221,1.683-.338,41.328-8.449,74.711-28.681,105.869-52.488,10.864-8.3,21.46-17.04,32.03-25.862,5.942-4.962,11.875-9.949,17.843-14.907,50.185-41.667,102.8-80.9,183.5-80.9,153.2,0,195.738,106.771,212.579,263.006C903.821,709.274,894.523,773.242,875.7,819.393Z" transform="translate(-19.604 -24.622)" fill="#c8e9ec"/><rect width="52.778" height="364.878" transform="translate(733.705 453.091)" fill="rgba(2,175,190,0.31)"/><path d="M1663.731,741.691V702.5l.094-.3-.094-.07V663.617l.144-.463-.144-.1v-33.77h-54.08v34.094l-.1.3.1.07V702.4l-.1.306.1.077V741.97l-.1.31.1.07v36.691l-.1.261.1.1V826.36l-.093.291.093.075V995.461h54.08V742.073l.1-.3Zm-1.3-.975-50.176-37.608h50.176Zm0-39.549-50.155-37.094h50.155Zm0-39.034L1617.8,630.583h44.625Zm-46.879-31.549,45.529,32.189h-50.128V630.583Zm45.555,71.223h-50.154V664.713Zm.022,39.56h-50.176V703.757Zm1.3,1.3v36.067l-50.11-36.067Zm-2.579,35.814h-48.9V743.286Zm-48.9,2.2,45.3,44.559-45.3.514Zm0,47.091,47.444,38.221h-47.444Zm0,166.386V867.3h49.27l.464,0,.308-.874-48.875-39.373,45.692-.519.44,0,.333-.814-46.694-45.927h49.959l.479,0,.1-.318v214.7Z" transform="translate(-876.597 -176.842)" fill="#0e2549"/><path d="M606.786,918.492a10.636,10.636,0,0,1-10.624-10.624.651.651,0,1,1,1.3,0,9.323,9.323,0,1,0,9.323-9.323h-.651V886.971a.651.651,0,0,1,1.3,0v10.292a10.624,10.624,0,0,1-.651,21.228Z" transform="translate(-302.727 -322.4)" fill="#0e2549"/><path d="M574.031,753.652a.651.651,0,0,1-.651-.651V705.747a.651.651,0,0,1,1.3,0V753A.651.651,0,0,1,574.031,753.652Z" transform="translate(-289.826 -219.775)" fill="#0e2549"/><path d="M663.823,753.652a.651.651,0,0,1-.651-.651V705.747a.651.651,0,0,1,1.3,0V753A.651.651,0,0,1,663.823,753.652Z" transform="translate(-340.674 -219.775)" fill="#0e2549"/><path d="M1177.852,587.769H823.839L875.5,547h302.357Z" transform="translate(-431.658 -130.247)" fill="rgba(2,175,190,0.31)"/><path d="M872.822,545.5l-53.305,42.07h356.539V545.5Zm200.949,1.3h36.518l-36.518,38.488Zm-38.087,0h35.939l-35.939,38.469Zm-39.781,0h37.587L995.9,585.321Zm-40.335,0h38.126l-38.126,38.536Zm-40.705,0h38.486l-38.486,38.546Zm-41.429,0h39.19l-39.19,38.565Zm40.128.9v38.566h-39.19Zm40.705.02v38.546H915.782Zm40.335.01v38.536H956.477Zm39.781.015v38.521H996.8Zm38.087.052v38.469h-35.939Zm38.683-.019v38.488h-36.519Zm1.3-.98h39.417l-39.417,38.566Zm-240.322.9v38.568H823.266Zm302.621,38.568h-61.361l40.338-39.468h21.023Z" transform="translate(-429.21 -129.397)" fill="#0e2549"/><path d="M1647.473,406.344,1627.978,317,1605.3,406.344h-17.687v55.515h77.3V406.344Z" transform="translate(-864.173)" fill="#047c88"/><path d="M614.023,834.513l-21.7,13-21.7-13v-22.8h43.4Z" transform="translate(-288.262 -280.153)" fill="#047c88"/><path d="M1330.15,749.3a.651.651,0,0,1-.651-.651v-45.5a.651.651,0,1,1,1.3,0v45.5A.651.651,0,0,1,1330.15,749.3Z" transform="translate(-718.008 -218.305)" fill="#0e2549"/><path d="M1071.881,737.013H1065.2V717.68h6.678a.651.651,0,0,0,0-1.3H1065.2V703.15a.651.651,0,1,0-1.3,0v13.228H1029.25V703.15a.651.651,0,1,0-1.3,0v13.228h-6.3a.651.651,0,0,0,0,1.3h6.3v19.333h-6.3a.651.651,0,0,0,0,1.3h6.3V748.65a.651.651,0,1,0,1.3,0V738.314H1063.9V748.65a.651.651,0,1,0,1.3,0V738.314h6.678a.651.651,0,0,0,0-1.3Zm-42.631,0V717.68H1063.9v19.333Z" transform="translate(-543.308 -218.305)" fill="#0e2549"/><path d="M968.083,808.908v317.146H1178.1V808.908Zm60.551,63.787H999.576V834.353h29.059Zm89.043,78.068h-29.059V912.422h29.059Zm0-78.686h-29.059V833.736h29.059Z" transform="translate(-513.342 -278.562)" fill="#047c88"/><path d="M639.752,1034.9H603.92v-17.138h35.056a.651.651,0,1,0,0-1.3H603.92V987.55a.651.651,0,1,0-1.3,0v28.914H573.586V987.55a.651.651,0,1,0-1.3,0v28.914H561.555a.651.651,0,0,0,0,1.3h10.729V1034.9h-9.953a.651.651,0,0,0,0,1.3h9.953v10.474a.651.651,0,0,0,1.3,0V1036.2h29.033v10.474a.651.651,0,0,0,1.3,0V1036.2h35.832a.651.651,0,0,0,0-1.3Zm-66.166,0v-17.138h29.033V1034.9Z" transform="translate(-282.761 -379.357)" fill="#0e2549"/><path d="M626.35,1124.985v246.029c-9.288,1.427-21.895,3.052-36.766,4.181l-.139.013h-.036a479.049,479.049,0,0,1-64.27.288c-4.252-.259-8.242-.762-12.58-1.167-16.971-1.59-34.447-5.693-51.838-10.086V1124.985Z" transform="translate(-226.028 -457.553)" fill="#047c88"/><path d="M176.335,1069.764l-1.161-.958V838.151a.651.651,0,1,0-1.3,0V957.678H78.1a.651.651,0,1,0,0,1.3h94.617l-65.259,53.9L62.647,975.868a.651.651,0,1,0-.829,1l44.618,36.85-34.22,28.263a.65.65,0,1,0,.828,1l34.413-28.422,65.259,53.9H76.6a.651.651,0,0,0,0,1.3h97.276v104.426a.651.651,0,1,0,1.3,0V1069.764Zm-67.856-56.043,65.394-54.01v108.02Z" transform="translate(0 -294.754)" fill="#0e2549"/><rect width="28.191" height="38.427" transform="translate(139.263 624.498)" fill="#047c88"/><rect width="28.191" height="38.428" transform="translate(93.796 624.497)" fill="#047c88"/><g transform="translate(702.968 592.488)"><path d="M1673.76,1502.4l-5.478,6.835a34.677,34.677,0,0,1-4.632,5.95l1.626,5.187-9.186,2.88-1.184-3.778A128.383,128.383,0,0,1,1626.238,1536h0c-.013,0-.026.013-.039.017a110.454,110.454,0,0,1-25.194,7.091q-13.558,2.088-26.27,3.478c.135,2.385.213,4.84.126,6.6a.623.623,0,0,1-.056.243c1.466,2.19,2.272,3.392,2.272,3.392s5.044,10.955-4.862,17.917c-.573.4-1.123.768-1.661,1.1.3-9.143.668-17.843,1.093-25.892.022-.382.039-.759.061-1.132.035-.642.069-1.275.1-1.9.82-14.6,1.865-26.895,3.188-35.608.451-2.984.937-5.547,1.457-7.642.989-3.977,1.934-7.573,2.832-10.825v0c.031-.1.057-.2.087-.308,4.029-14.542,7.135-22.158,9.307-26.14,2.5-4.6,3.765-4.363,3.765-4.363l15.939.156,32.615.312,12.859.126,4.875.048s2.763,1.657,6.228,8.327a77.682,77.682,0,0,1,5.382,13.831c.958,3.249,1.9,6.952,2.784,11.172.135.642.269,1.288.4,1.956v0c.143.716.282,1.449.421,2.2.069.369.135.742.2,1.119.035.2.069.4.1.607C1674.085,1502.053,1673.925,1502.226,1673.76,1502.4Z" transform="translate(-1557.48 -1242.79)" fill="#02afbe"/><path d="M1653.114,986.564s-10.473-.941-22.176,13.749-9.561,56.332,27.882,51.479c10.957-1.42-13.705,65.372-13.705,65.372l77.62,8.666s8.649-10.416,5.821-18.418c-1.9-5.391-18.425-16.321-19.325-22.858-.615-4.464,5.451-16.023,2.54-21.327-5.31-9.678-40.471-7.145-32.285-14.045C1698.191,1033.414,1691.206,983.4,1653.114,986.564Z" transform="translate(-1588.113 -971.574)" fill="#0e2549"/><path d="M1664.866,1119.839s-1.317,32.364-.081,34.068c4.23,5.827,16.759,10.956,19.619,11.726s-46.766,19.7-46.766,19.7l-23.825-11.675,9.183-8.286s7.72-3.883,11.112-7.387,5.042-36.431,5.042-36.431Z" transform="translate(-1581.98 -1047.128)" fill="#fff"/><path d="M1636.105,1185.13l-24.943-12.223,9.963-8.988.078-.039c.076-.038,7.661-3.874,10.937-7.258,2.364-2.442,4.2-22.874,4.86-36.011l.029-.578,27.015-1.8-.029.723c-.5,12.188-.986,32.111-.189,33.685,3.953,5.443,15.971,10.573,19.246,11.455a.761.761,0,0,1,.6.7c.038.745.077,1.515-23.819,11.066-11.6,4.637-23.366,9.127-23.484,9.172Zm-22.643-12.545,22.707,11.127c16.013-6.111,40.925-15.968,45.581-18.669-4.071-1.385-14.989-6.149-18.993-11.665-1.233-1.7-.406-25.367-.072-33.753l-24.415,1.627c-.28,5.329-1.88,32.85-5.194,36.273-3.285,3.392-10.335,7.032-11.208,7.476Z" transform="translate(-1580.479 -1046.217)" fill="#0e2549"/><path d="M1678.814,1076.3c3.8-2.523,10.477-7.627,10.656-12.609s-5.5-4.4-7.237-3.612c-1.155.524.023-24.392.023-24.392l-38.553-2.064s-5.713,21.421-4.334,35.177c1.385,13.813,7.718,17.386,17.768,17.835a23.507,23.507,0,0,0,11.985-2.435Z" transform="translate(-1596.331 -998.306)" fill="#fff"/><path d="M1657.561,1086.432q-.644,0-1.3-.03c-5.793-.258-9.66-1.514-12.536-4.069-3.259-2.895-5.172-7.589-5.85-14.351-1.375-13.715,4.295-35.194,4.352-35.409l.136-.51,39.726,2.127-.031.646c-.472,9.978-.729,21.072-.347,23.55,1.4-.424,3.973-.711,5.789.507a4.225,4.225,0,0,1,1.772,3.939c-.188,5.228-6.939,10.469-10.946,13.128a.651.651,0,0,1-.719-1.084c3.8-2.52,10.2-7.443,10.365-12.09a2.969,2.969,0,0,0-1.2-2.812c-1.485-1-4.085-.655-5.122-.184a.728.728,0,0,1-.716-.061c-.436-.3-.929-.63-.613-13.006.122-4.8.328-9.6.4-11.3l-37.377-2c-.845,3.328-5.417,22.123-4.183,34.434,1.383,13.788,7.587,16.823,17.15,17.25a23.123,23.123,0,0,0,11.661-2.365.651.651,0,0,1,.592,1.159A23.968,23.968,0,0,1,1657.561,1086.432Z" transform="translate(-1595.485 -997.422)" fill="#0e2549"/><path d="M1688.481,1266.68c.022.109-.317.447-.941.958l0,0c-.88.72-2.325,1.8-4.112,3.079-6.3,4.519-16.858,11.628-22.085,15.128-1.926,1.284-3.127,2.082-3.127,2.082l-7.694-10.262.932,12.356,1.557,20.666,1.05,13.927.993,13.167,1.036,13.762.351,4.645.143,1.912-5.339,6.688-1.34.03-5.113.113-10.019.221-2.13.048-71.818,1.592-2.867.061-6.848.152-.533.013.312-4.177v-.013l1.44-19.361,4.2-56.486.265-3.556v0l.213-2.845.013-.174-.9.252-9.476,2.624-6.18,1.713s1-5.725,3.131-14c.6-2.355,1.3-4.914,2.095-7.612,3.062-10.439,7.534-22.882,13.579-33.079,3.448-5.812,7.408-10.9,11.91-14.464a24.008,24.008,0,0,1,10.622-5.061,1.869,1.869,0,0,1,.564-.009,8.022,8.022,0,0,1,2.858,1.184c.187.108.373.225.564.347.26.165.529.343.8.525a101.586,101.586,0,0,1,11.315,9.754s3.153-1.6,7.464-3.769c2.7-1.362,5.859-2.949,8.982-4.51,3.465-1.73,6.892-3.431,9.611-4.762,1.648-.8,3.032-1.47,4.016-1.926a10.118,10.118,0,0,1,1.583-.663,34.3,34.3,0,0,1,6.987,2.043c1.622.646,3.2,1.379,4.667,2.138,1.787.92,3.418,1.874,4.784,2.741,15.38,9.793,25.966,20.948,32.784,31.132C1684.326,1253.3,1687.379,1260.937,1688.481,1266.68Z" transform="translate(-1540.441 -1096.457)" fill="#0e2549"/><path d="M1677.83,1421.939l-1.34.03-5.113.113-10.019.221-2.13.048-71.818,1.587c.026-.321.052-.65.078-.98l1.431-17.734,4.927-61.093,2.329-28.842v-.017l.564-6.987,1.023,0,1.184-.009,6.453-.043,45.145-.282,1.722-.009,6.445-.043,5.821-.035s4.784,30.117,13.506,39.312a10.6,10.6,0,0,0,1.757,1.522l1.258,23.8.477,9,.668,12.612.876,16.55v0l.13,2.494.1,1.956Z" transform="translate(-1567.028 -1153.602)" fill="#02afbe"/><path d="M1762.078,1549.075l-9.186,2.88-1.184-3.778-.46-1.466-2.637-8.409-1.9-6.081-5.217-16.641,4.593-1.44,4.593-1.44,2.247,7.169,5.708,18.211,1.11,3.535.711,2.273Z" transform="translate(-1654.282 -1269.601)" fill="#0e2549"/><path d="M1706,1441.027l-41.623,13.05a5.782,5.782,0,0,1-7.248-3.787l-1.148-3.662a5.783,5.783,0,0,1,3.788-7.248l41.623-13.05a5.783,5.783,0,0,1,7.248,3.788l1.148,3.662A5.784,5.784,0,0,1,1706,1441.027Z" transform="translate(-1605.709 -1220.539)" fill="#0e2549"/><path d="M1661.793,1454.144a6.443,6.443,0,0,1-6.131-4.512l-1.148-3.661a6.441,6.441,0,0,1,4.214-8.064l41.623-13.05a6.435,6.435,0,0,1,8.064,4.214l1.148,3.661a6.434,6.434,0,0,1-4.215,8.064l-41.622,13.051A6.457,6.457,0,0,1,1661.793,1454.144Zm40.48-28.281a5.117,5.117,0,0,0-1.533.235l-41.623,13.05a5.132,5.132,0,0,0-3.362,6.432l1.148,3.662a5.132,5.132,0,0,0,6.432,3.362l41.623-13.051a5.139,5.139,0,0,0,3.362-6.433l-1.148-3.661A5.142,5.142,0,0,0,1702.273,1425.863Z" transform="translate(-1604.861 -1219.688)" fill="#1b2746"/><path d="M1746.837,1468.847l-2.916-9.3,27.558-8.641-5.3-16.9-6.82,2.139-.39-1.242,8.062-2.527,6.077,19.384-27.558,8.641,2.527,8.06Z" transform="translate(-1655.659 -1224.113)" fill="#0e2549"/><path d="M1814.339,1387.556c-2.472,8.392-17.852,23.668-28.833,34.207a.031.031,0,0,1-.009.013c-4.133,3.968-7.646,7.265-9.607,9.268-.1.1-.2.2-.29.295l-.178.191c-.295.308-.538.572-.729.8-.425.5-1.34,2.4-2.676,4.788-.533.945-1.132,1.969-1.791,3.014a34.674,34.674,0,0,1-4.632,5.95,14.39,14.39,0,0,1-5.348,3.561,3.762,3.762,0,0,1-2.476.026,4.722,4.722,0,0,1-1.379-.763c-2.1-1.644-3.669-5.122-4.766-8.362-.377-1.123-.7-2.225-.972-3.205-.291-1.049.213-2,1.2-2.923,1.817-1.7,5.27-3.292,8.4-5.209-.8-2.364-1.8-5.8-2.173-7.078a.342.342,0,0,1-.009-.065.361.361,0,0,1,.451-.39c1.718.395,4.814,2.932,6.233,4.606,1.943-2.476,4.61-6.263,7.538-10.565.572-.846,1.158-1.709,1.748-2.589q.273-.41.559-.833c4.84-7.239,10.023-15.288,13.614-20.918,1.826-2.862-3.7-18.762-7.885-30.186l-.052-.143c-2.42-6.579-4.38-11.641-4.211-11.8,0,0,12.513-13.176,22.154-8.1,1.305.69,2.693,2.381,4.09,4.732.035.056.065.117.1.178,3.921,6.705,7.872,18.576,10.145,28.018C1814.1,1380.478,1814.868,1385.76,1814.339,1387.556Z" transform="translate(-1659.425 -1171.794)" fill="#fff"/><path d="M1758.1,1449.65a4.309,4.309,0,0,1-1.388-.231,5.386,5.386,0,0,1-1.568-.865c-1.85-1.445-3.526-4.361-4.985-8.668-.338-1.006-.668-2.1-.982-3.241-.338-1.219.113-2.388,1.38-3.571a29.367,29.367,0,0,1,5.378-3.486c.884-.495,1.794-1,2.682-1.534-.8-2.414-1.733-5.631-2.016-6.611l-.014-.055a1.076,1.076,0,0,1-.019-.141,1.007,1.007,0,0,1,.331-.844,1.025,1.025,0,0,1,.919-.229c1.71.393,4.441,2.548,6.044,4.227,1.716-2.237,4.027-5.494,7.038-9.919l.288-.425q.72-1.062,1.458-2.161.273-.41.562-.836c4.868-7.281,10.086-15.386,13.6-20.9,1.227-1.923-1.447-11.887-7.947-29.612l-.053-.145c-.617-1.677-1.2-3.257-1.734-4.682-2.753-7.4-2.753-7.4-2.308-7.815.5-.523,12.938-13.442,22.9-8.195,1.364.72,2.785,2.348,4.346,4.975.014.022.033.056.052.09s.026.047.041.07c4.04,6.907,8.045,19.143,10.229,28.216.792,3.282,2.549,11.2,1.778,13.816h0c-2.416,8.2-16.706,22.685-28.921,34.41l0,.008-.1.1c-1.22,1.172-2.4,2.3-3.5,3.344-2.53,2.414-4.715,4.5-6.083,5.9-.049.051-.1.1-.153.156l-.3.317c-.3.317-.534.568-.71.777a20.373,20.373,0,0,0-1.24,2.174c-.4.742-.845,1.582-1.365,2.512-.634,1.123-1.225,2.119-1.808,3.043a34.754,34.754,0,0,1-4.723,6.065,15,15,0,0,1-5.6,3.715A4.684,4.684,0,0,1,1758.1,1449.65Zm-.1-28.053c.4,1.383,1.3,4.409,2.016,6.536l.166.491-.443.271c-1.047.642-2.125,1.245-3.168,1.828a28.7,28.7,0,0,0-5.124,3.3c-1.171,1.093-1.14,1.822-1.015,2.274.308,1.123.632,2.19.962,3.171,1.375,4.061,2.907,6.772,4.551,8.057a4.077,4.077,0,0,0,1.184.658,3.108,3.108,0,0,0,2.062-.025,13.721,13.721,0,0,0,5.1-3.406,33.449,33.449,0,0,0,4.541-5.838c.571-.906,1.152-1.882,1.774-2.985.513-.916.958-1.75,1.35-2.486a17.954,17.954,0,0,1,1.4-2.4c.193-.229.441-.5.755-.826l.173-.187c.053-.055.1-.105.155-.158l.14-.142c1.387-1.418,3.58-3.51,6.119-5.933,1.073-1.024,2.223-2.122,3.426-3.276l0-.007.086-.083c12.117-11.629,26.324-25.994,28.66-33.921h0c.466-1.582-.222-6.619-1.8-13.144-2.162-8.979-6.114-21.071-10.074-27.842-.015-.022-.04-.066-.064-.109l-.032-.056c-1.421-2.391-2.711-3.9-3.84-4.5-8.42-4.436-19.476,6.072-21.161,7.749.244.872,1.292,3.691,2.4,6.657.531,1.427,1.119,3.008,1.737,4.688l.053.146c7.022,19.146,9.361,28.345,7.822,30.758-3.522,5.522-8.744,13.635-13.621,20.93-.192.284-.378.56-.559.832q-.738,1.1-1.462,2.167l-.288.426c-3.315,4.872-5.79,8.339-7.565,10.6l-.493.627-.516-.608A18.073,18.073,0,0,0,1757.994,1421.6Zm-.477-.156h0Zm18.2-72.652-.039.041C1775.692,1348.817,1775.705,1348.8,1775.717,1348.789Z" transform="translate(-1658.571 -1170.929)" fill="#0e2549"/><path d="M1568.49,1458.905c-.547,7.156-.911,11.931-.946,12.569-.169,3.049,6.866,12.036,6.358,14.126s-7.729-5.708-7.729-5.708-1.461,6.12-1.271,8.2c.139,1.483.325,3.786.455,6.163s.213,4.84.126,6.6a.623.623,0,0,1-.057.243.7.7,0,0,1-1.258.056c-.507-.937-1.171-2.164-1.9-3.539-.477-.9-.98-1.874-1.483-2.863-.377-.741-.759-1.5-1.123-2.242v0a42.765,42.765,0,0,1-3.166-7.594c-.52-2.485,2.893-14.23,2.893-14.23l-.616-11.558-.221-4.164-.716-13.371-1.392-26.131v0l-1.314-24.626-.286-5.356-.338-6.371-.2-3.7-.308-5.79,9.03.551,2.342.139,9.954.607s-.243,3.092-.642,8.2c-1.032,13.25-3.119,40.049-4.771,61.4v0c-.5,6.484-.967,12.474-1.344,17.422-.026.33-.052.659-.078.98Z" transform="translate(-1548.108 -1188.565)" fill="#fff"/><path d="M1563.88,1501.262a1.334,1.334,0,0,1-1.181-.711c-.508-.937-1.172-2.166-1.9-3.543-.479-.905-.983-1.88-1.488-2.872-.379-.745-.762-1.5-1.128-2.252l-.066-.139a40.6,40.6,0,0,1-3.153-7.613c-.524-2.507,2.4-12.8,2.874-14.438l-5.423-101.7,22.714,1.381-.694,8.857c-1.031,13.245-3.117,40.027-4.769,61.375l0,.029c-.5,6.484-.967,12.473-1.344,17.421l-.078.984c-.508,6.654-.909,11.909-.944,12.555-.077,1.376,1.833,4.671,3.368,7.318,2.034,3.508,3.265,5.72,2.973,6.927a1.066,1.066,0,0,1-.77.816c-1.435.367-4.854-2.858-7.228-5.341a33.869,33.869,0,0,0-.986,6.8c.085.914.3,3.35.457,6.187.161,2.852.2,5.095.126,6.664a1.278,1.278,0,0,1-.119.489,1.331,1.331,0,0,1-1.16.8Zm-4.464-9.814c.343.7.7,1.4,1.053,2.1.5.985,1,1.953,1.479,2.853.727,1.372,1.39,2.6,1.9,3.533.014.026.015.029.04.028a.06.06,0,0,0,.041-.017,63.216,63.216,0,0,0-.116-6.561c-.154-2.816-.368-5.232-.453-6.139-.2-2.161,1.225-8.155,1.285-8.409l.283-1.185.827.894c2.47,2.669,5.582,5.5,6.63,5.824-.05-.974-1.653-3.74-2.845-5.795-1.871-3.229-3.639-6.278-3.542-8.042.034-.628.364-4.958.945-12.558l0-.031.078-.979c.376-4.941.84-10.922,1.342-17.4l0-.03c1.653-21.351,3.739-48.151,4.771-61.4l.591-7.538-19.937-1.212,5.358,100.458-.031.106c-1.353,4.659-3.238,12.209-2.88,13.915a41.179,41.179,0,0,0,3.113,7.44Z" transform="translate(-1547.21 -1187.659)" fill="#0e2549"/><path d="M1657.163,1086.97a1.285,1.285,0,0,1-.172-.011,1.3,1.3,0,0,1-1.12-1.46l.165-1.252a1.3,1.3,0,1,1,2.58.34l-.165,1.253A1.3,1.3,0,0,1,1657.163,1086.97Z" transform="translate(-1605.791 -1026.332)" fill="#0e2549"/><path d="M1696.678,1088.7a1.286,1.286,0,0,1-.172-.011,1.3,1.3,0,0,1-1.12-1.46l.165-1.253a1.3,1.3,0,1,1,2.58.34l-.165,1.253A1.3,1.3,0,0,1,1696.678,1088.7Z" transform="translate(-1628.168 -1027.311)" fill="#0e2549"/><path d="M1698.469,1077.274a.646.646,0,0,1-.343-.1c-3.109-1.929-8.854-.614-8.912-.6a.65.65,0,0,1-.3-1.266c.256-.06,6.325-1.454,9.9.761a.651.651,0,0,1-.343,1.2Z" transform="translate(-1624.226 -1021.635)" fill="#0e2549"/><path d="M1665.829,1096.468a.648.648,0,0,1-.162-.021l-.168-.039c-2.405-.532-3.559-1.557-3.429-3.046a4.472,4.472,0,0,1,1.527-2.441,9,9,0,0,0,2.1-3,.651.651,0,0,1,1.22.453,10.193,10.193,0,0,1-2.367,3.433c-.612.651-1.141,1.214-1.18,1.662-.086.993,1.336,1.425,2.415,1.663.087.019.158.035.21.049a.651.651,0,0,1-.161,1.281Z" transform="translate(-1609.302 -1028.817)" fill="#0e2549"/><path d="M1658.086,1075.087a.644.644,0,0,1-.209-.035,12.121,12.121,0,0,0-7.384-.166.651.651,0,1,1-.448-1.221,13.3,13.3,0,0,1,8.249.155.651.651,0,0,1-.208,1.267Z" transform="translate(-1602.256 -1020.656)" fill="#0e2549"/><path d="M1657.938,1117.087c-.629.7,2.617,3.51,5.27,3.512,6.669.005,8.732-4.736,7.231-3.99a15.907,15.907,0,0,1-7.231,1.547C1658.976,1117.845,1658.651,1116.3,1657.938,1117.087Z" transform="translate(-1606.922 -1045.253)" fill="#0e2549"/><path d="M1684.906,1601.554a.651.651,0,0,1-.645-.575L1682.624,1587l-8.052-5.761a.651.651,0,0,1,.757-1.058l8.521,6.1,1.7,14.554a.651.651,0,0,1-.57.722A.607.607,0,0,1,1684.906,1601.554Z" transform="translate(-1616.233 -1307.744)" fill="#0e2549"/><path d="M1642.072,1032.224s35.119,10.047,41.3,27.286a9.727,9.727,0,0,1,3.788-.7,4.679,4.679,0,0,1,2.7.952l-1.075-28.61Z" transform="translate(-1597.983 -996.904)" fill="#0e2549"/><path d="M1548.952,1317.853s-9.7,25.829-8.42,31.936h27.1l1.929-28.857Z" transform="translate(-1540.416 -1159.261)" fill="#0e2549"/><path d="M1794.22,1311.7l8.909,21.114,28.115-19.348-16.8-25.59Z" transform="translate(-1684.142 -1142.284)" fill="#0e2549"/><path d="M1693.276,987.4v6.77H1623.4V987.4a34.938,34.938,0,0,1,69.876,0Z" transform="translate(-1587.409 -952.433)" fill="#02afbe"/><path d="M1683.476,957.659s-27.744,9.5-35.753,36.7c-.8,2.722-11.923,2.776-12.578-.867-3.47-19.316,12.077-36.624,12.077-36.624a34.971,34.971,0,0,1,36.254.789Z" transform="translate(-1593.774 -952.19)" fill="#88dbe2"/><rect width="79.048" height="6.462" rx="3.231" transform="translate(27.647 39.685)" fill="#02afbe"/><path d="M1624.7,1212.089a107.892,107.892,0,0,0-10.886,44.347h6.356s2.141-34.258,10.038-44.089Z" transform="translate(-1581.98 -1099.368)" fill="#02afbe"/><path d="M1748.087,1209.78a111.39,111.39,0,0,0-11.4,45.349h6.356s1.916-33.269,9.813-43.1Z" transform="translate(-1651.564 -1098.06)" fill="#02afbe"/><path d="M1651.53,1363.214h0a18.587,18.587,0,0,1-18.588-18.586v-3.99a1.926,1.926,0,0,1,1.926-1.925h33.324a1.925,1.925,0,0,1,1.925,1.925v3.99A18.586,18.586,0,0,1,1651.53,1363.214Z" transform="translate(-1592.813 -1171.074)" fill="#0e2549"/><path d="M1650.681,1363.015a19.26,19.26,0,0,1-19.238-19.238v-3.989a2.579,2.579,0,0,1,2.576-2.575h33.324a2.578,2.578,0,0,1,2.575,2.575v3.989A19.259,19.259,0,0,1,1650.681,1363.015Zm-16.662-24.5a1.276,1.276,0,0,0-1.275,1.274v3.989a17.937,17.937,0,0,0,35.873,0v-3.989a1.276,1.276,0,0,0-1.274-1.274Z" transform="translate(-1591.963 -1170.224)" fill="#1b2746"/></g><g transform="translate(534.906 540.522)"><path d="M1338.3,1464.54l-.113,10.76v0l-.334,31.067-.069,6.545v0l-.074,7.187-.174,16.173-.048,4.576-.109,9.91-.043,4.389v0l-.061,5.6-2.876-3.426a17.317,17.317,0,0,1-1.7.863c-1.2.533-5.556-2.975-9.372-6.827-20.766.651-39.845.161-57.705-.833h-.009c-19.183-1.062-36.965-2.7-53.928-4.12l-1.852-.156.225-2.455,1.041-11.389v0l3.2-35.079,1.054-11.563.191-.035.833-.143,37.633-6.5h0l11.229-1.939.429-.074,1.228-.213,31.756-5.486,13.757-2.377h0l2.581-.442,14.069-2.433.768-.13,1.414-.243,5.586-.967Z" transform="translate(-1185.152 -1190.362)" fill="#0e2549"/><path d="M1207.574,1352.24s-.035.421-.1,1.214v0c-.5,6.493-2.954,37.867-5.33,68.539-.286,3.617-.564,7.226-.841,10.782v.026c-.026.312-.048.625-.078.932-1.019,13.181-1.978,25.589-2.707,35.078v0c-.364,4.723-.668,8.726-.9,11.736-.061.833-.122,1.592-.169,2.264l-1.852-.156q-5.5-.455-10.9-.872l.2-4,2.234-44.056,2.871-56.552v0l.273-5.382.941-18.506,9.03-.581,1.136-.074.1,0,.273-.022Z" transform="translate(-1170.915 -1126.767)" fill="#fff"/><path d="M1197.168,1482.614l-2.509-.211c-3.65-.3-7.317-.6-10.9-.872l-.632-.048,6.584-129.712,17.68-1.14-.061.75s-.034.411-.093,1.187l0,.029c-.166,2.143-.544,7-1.062,13.642-1.05,13.487-2.676,34.349-4.269,54.9q-.288,3.63-.565,7.234l-.3,3.9c-.016.208-.033.415-.052.62-1.017,13.156-1.976,25.554-2.7,35.04l0,.029c-.267,3.474-.5,6.559-.7,9.145l-.281,3.7c-.031.407-.06.792-.086,1.151Zm-12.676-2.331c3.383.262,6.836.539,10.276.823l1.2.1c.012-.163.024-.33.038-.5l.281-3.7c.2-2.58.431-5.657.7-9.121l0-.029c.729-9.489,1.687-21.9,2.706-35.078.02-.21.036-.41.052-.609l.3-3.9q.279-3.6.566-7.234c1.592-20.547,3.217-41.411,4.268-54.9.516-6.621.893-11.464,1.06-13.619l0-.027q.02-.261.036-.467l-15.022.969Z" transform="translate(-1170.025 -1125.856)" fill="#0e2549"/><path d="M1316.12,1030.952s3.017,31.684.482,35.188-17.166,9.961-17.166,9.961l24.53,72.122,52.382-5.063,3.4-53.623s-23.91-19.477-25.353-23.477c-2-5.535-2-35.108-2-35.108Z" transform="translate(-1235.889 -944.825)" fill="#fff"/><path d="M1322.461,1148.07l-.166-.488-24.721-72.687.545-.24c.144-.064,14.5-6.425,16.9-9.747,1.754-2.425.6-22.107-.6-34.745a.651.651,0,1,1,1.3-.124c.311,3.268,2.965,32.032.361,35.631-2.352,3.253-14.156,8.7-16.885,9.931l24.173,71.073,51.317-4.96,3.341-52.736c-3.432-2.8-23.874-19.613-25.294-23.549-2.011-5.578-2.039-34.116-2.04-35.329a.651.651,0,1,1,1.3,0c0,.294.028,29.522,1.963,34.888,1.133,3.142,18.539,17.807,25.151,23.193l.259.211-3.453,54.51Z" transform="translate(-1234.835 -943.975)" fill="#0e2549"/><path d="M1254.029,1116.408c-15.833,5.778-12.008,90.332-12.008,90.332-2.583,9.944-8.671,63.18-8.671,63.18l110.967,22.118,13.085-66.447s8.192-111.868-35.286-118.421c-4.172-.629-16.921,5.331-30.547,4.015-5.91-.571-8.922,6.481-11.86-3.869C1279.71,1107.317,1257.475,1115.151,1254.029,1116.408Z" transform="translate(-1198.466 -987.961)" fill="#fff"/><path d="M1343.936,1291.961l-.581-.116-111.5-22.225.062-.541c.248-2.169,6.088-53.1,8.664-63.174-.2-4.573-3.539-85.009,12.4-90.826,3.408-1.243,25.464-9.015,25.687-9.093l.593-.209.172.6c.834,2.936,1.721,4.6,2.714,5.086.866.423,1.929,0,3.273-.546a11.1,11.1,0,0,1,5.361-1.1c8.442.815,16.564-1.2,22.5-2.672,3.72-.923,6.405-1.592,8.083-1.339,10.124,1.526,18.3,8.793,24.3,21.6,4.757,10.152,8.17,23.805,10.143,40.582,3.354,28.512,1.362,56.585,1.341,56.866l-.009.071Zm-110.783-23.287L1343,1290.57l12.963-65.829a342.059,342.059,0,0,0-1.34-56.621c-1.96-16.647-5.338-30.175-10.041-40.21-5.823-12.424-13.7-19.465-23.406-20.928-1.442-.219-4.169.46-7.621,1.317-6.014,1.493-14.253,3.537-22.894,2.7a10.011,10.011,0,0,0-4.805,1.017c-1.49.6-2.9,1.168-4.236.511-1.264-.62-2.247-2.24-3.153-5.221-3.546,1.249-22,7.755-25.088,8.881l-.2-.555.2.555c-6.231,2.274-10.226,18.457-11.553,46.8-1.011,21.584-.077,42.741-.067,42.952l0,.089-.023.086C1239.342,1215.371,1233.8,1263.039,1233.152,1268.675Z" transform="translate(-1197.618 -987.188)" fill="#0e2549"/><path d="M1234.259,1220.419l-10.537-108.571c-7.257,0-35.919,14.051-42.7,20.051-2.485,2.2-28.316,203.974-28.1,206.409,0,0,25.489,6.307,29.353,6.505,1.9.1.319-108.593,1.709-133.883l-5.678,63.751-5.077,58,57.073.044,2.6-49.9Z" transform="translate(-1152.917 -990.636)" fill="#0e2549"/><path d="M1378.883,1102.387l-39.7,109.311c-.106,6.785.462,9.789-.685,38.673-.608,15.319,1.248,80.981,1.249,78.641,0-.948,76.858,2.458,76.858,2.458l3.268-80.354s25.723-13.175,25.723-50.482c0-41.8-3.084-56.005-10.6-76.98C1433.917,1120.623,1393.662,1102.387,1378.883,1102.387Z" transform="translate(-1257.942 -985.278)" fill="#0e2549"/><path d="M1346.006,889.573c-6.594-.142-22.609-.693-24.1,10.945-1.7,13.274-1.652,30.629-1.471,39.787a7.283,7.283,0,0,0,6.353,7.085l40.08,5.143a7.287,7.287,0,0,0,8-5.493c2.984-12.124,9.075-37.826,8.12-41.942C1379.735,891.093,1356.446,889.8,1346.006,889.573Z" transform="translate(-1247.731 -864.736)" fill="#0e2549"/><path d="M1363.8,971.15c2.452-1.971,4.462-10.755,6.009-20.871a.85.85,0,0,1,.5-.652c2.832-1.229,7.07-4.1,7.606-9.144.464-4.374-2.806-3.863-5.462-2.777a.675.675,0,0,1-.911-.728c1.375-12.261,2.078-23.076,2.078-23.076l-47.626-6.11s-1.307,10.924-2.419,23.219c-.05.552-1.8,30-.99,32.785a8.22,8.22,0,0,0,2.958,4.045s2.735,2.891,20.045,5.112Z" transform="translate(-1248.877 -875.08)" fill="#fff"/><path d="M1344.74,972.651a.69.69,0,0,1-.084-.005c-16.373-2.1-19.94-4.858-20.386-5.263a8.828,8.828,0,0,1-3.158-4.358c-.867-3,.942-32.747.967-33.024,1.1-12.164,2.409-23.129,2.422-23.238l.078-.651,48.883,6.272-.04.61c-.007.108-.72,10.97-2.081,23.106,0,.046.02.056.02.056,2.4-.982,4.166-1.061,5.262-.238.911.684,1.278,1.924,1.091,3.684-.623,5.866-5.8,8.718-7.994,9.672a.2.2,0,0,0-.116.154c-1.909,12.476-3.952,19.436-6.245,21.28a.65.65,0,0,1-.815-1.014c1.375-1.105,3.493-5.552,5.774-20.463a1.491,1.491,0,0,1,.884-1.15c1.986-.863,6.667-3.43,7.218-8.616.135-1.273-.06-2.117-.579-2.507-.684-.514-2.1-.372-3.99.4a1.291,1.291,0,0,1-1.278-.166,1.346,1.346,0,0,1-.526-1.237c1.174-10.469,1.864-19.984,2.035-22.437l-46.367-5.949c-.3,2.533-1.395,12.1-2.34,22.549-.108,1.222-1.763,29.948-1.013,32.546a7.58,7.58,0,0,0,2.737,3.716l.068.062c.017.016,3.065,2.785,19.655,4.914a.651.651,0,0,1-.082,1.3Z" transform="translate(-1248.03 -874.128)" fill="#0e2549"/><path d="M1390.516,976.206c-.029,0-.057,0-.086,0a1.084,1.084,0,0,1-1-1.165l.077-.99a1.084,1.084,0,1,1,2.162.169l-.077.989A1.085,1.085,0,0,1,1390.516,976.206Z" transform="translate(-1286.852 -912.034)" fill="#0e2549"/><path d="M1342.272,971.287a1.087,1.087,0,0,1-1.078-1.212l.138-1.162a1.084,1.084,0,0,1,2.153.255l-.138,1.162A1.085,1.085,0,0,1,1342.272,971.287Z" transform="translate(-1259.532 -909.151)" fill="#0e2549"/><path d="M1393.871,960.307a.648.648,0,0,1-.316-.082,10.883,10.883,0,0,0-7.758-.885.651.651,0,0,1-.385-1.243,12.081,12.081,0,0,1,8.776.991.651.651,0,0,1-.317,1.22Z" transform="translate(-1284.317 -903.335)" fill="#0e2549"/><path d="M1344.668,976.172a.651.651,0,0,1-.217-.037c-.664-.235-3.982-1.5-4.089-3.436-.082-1.493.125-1.872,2.656-6.513.553-1.014,1.22-2.237,2.026-3.73a13.88,13.88,0,0,0,1.212-5.006c-.016-.21-.287-.589-1-1.023-2.114-1.28-6.941-2.25-10-.92a.65.65,0,1,1-.518-1.193c3.27-1.423,8.524-.615,11.191,1a2.834,2.834,0,0,1,1.627,2.042c.162,2.252-1.269,5.511-1.33,5.649l-.022.045c-.813,1.505-1.485,2.738-2.041,3.758-2.489,4.564-2.559,4.727-2.5,5.819.043.793,1.949,1.829,3.223,2.28a.651.651,0,0,1-.217,1.264Z" transform="translate(-1255.657 -901.008)" fill="#0e2549"/><path d="M1430.893,1547.662a.647.647,0,0,1-.393-.132l-30.634-23.27a.65.65,0,1,1,.787-1.036l30.633,23.269a.651.651,0,0,1-.394,1.169Z" transform="translate(-1292.616 -1223.518)" fill="#0e2549"/><path d="M1222.258,1543.584a.651.651,0,0,1-.294-1.231l32.958-16.73a.651.651,0,0,1,.588,1.161l-32.958,16.729A.648.648,0,0,1,1222.258,1543.584Z" transform="translate(-1191.816 -1224.913)" fill="#0e2549"/><path d="M1289.319,1104.417l-22.134,24.452,17.94,7.208-10.314,27.069,23.712,49.8a.183.183,0,0,0,.347-.1Z" transform="translate(-1217.626 -986.428)" fill="#fff"/><path d="M1297.239,1211.687a.832.832,0,0,1-.751-.475l-23.832-50.048,10.185-26.732-18.213-7.318,23.76-26.248,9.681,109.914a.835.835,0,0,1-.831.908Zm-.465-.8v0Zm-22.7-49.785,22.476,47.2-9.192-104.362-20.507,22.655,17.666,7.1Z" transform="translate(-1216.178 -984.416)" fill="#0e2549"/><path d="M1380.96,1102.387l21.391,32.429-24.132,2.1,5.419,28.71-40.947,45.62a.368.368,0,0,1-.618-.377Z" transform="translate(-1260.019 -985.278)" fill="#fff"/><path d="M1341.573,1210.135a1.021,1.021,0,0,1-.535-.153,1,1,0,0,1-.42-1.234l39.32-109.692,22.708,34.427-24.5,2.131,5.345,28.32-41.162,45.859A1.01,1.01,0,0,1,1341.573,1210.135Zm.267-.942,0,.007Zm38.445-107.248-37.963,105.907,39.769-44.308-5.493-29.1,23.76-2.067Z" transform="translate(-1259.17 -983.392)" fill="#0e2549"/><path d="M1354.659,1453.657a2.717,2.717,0,1,0,2.717-2.717A2.717,2.717,0,0,0,1354.659,1453.657Z" transform="translate(-1267.161 -1182.66)" fill="#fff"/><path d="M1356.527,1456.175a3.367,3.367,0,1,1,3.368-3.368A3.372,3.372,0,0,1,1356.527,1456.175Zm0-5.434a2.066,2.066,0,1,0,2.067,2.066A2.069,2.069,0,0,0,1356.527,1450.741Z" transform="translate(-1266.312 -1181.811)" fill="#0e2549"/><path d="M1390.37,1473.314h-.035l-53.228-2.817-.5-116.245a.65.65,0,0,1,.648-.653h0a.65.65,0,0,1,.651.648l.495,115.016,52,2.751a.651.651,0,0,1-.034,1.3Z" transform="translate(-1256.939 -1127.537)" fill="#a1c5e2"/><path d="M1252.041,1433.259H1198.1l12.636-144.365a.651.651,0,0,1,1.3.114l-12.512,142.95h52.517a.651.651,0,0,1,0,1.3Z" transform="translate(-1178.506 -1090.558)" fill="#a1c5e2"/><path d="M1407.046,1101.584l-12.861-10.024-26.6,10.813,8.529,10.178Z" transform="translate(-1274.482 -979.147)" fill="#fff"/><path d="M1299.856,1104.9l8.972-9.506,20.4,9.15-7.692,9.385Z" transform="translate(-1236.127 -981.317)" fill="#fff"/><path d="M1368.559,1100.789l-14.159-11.036-26.694,10.851-20.581-9.23-9.986,10.581,23.068,9.606,7.491-9.139,8.3,9.909Zm-48.765,9.117-20.3-8.452,7.957-8.43,19.142,8.585Zm34.389-18.586,11.563,9.013-29.3,10.39-7.62-9.093Z" transform="translate(-1234.588 -978.124)" fill="#0e2549"/><path d="M1356.938,1126.668l-8.529-10.178-8.48,10.178,3.707,4.368-9.915,54.267,2.961,36.41,14.423-41.205-.354-48.638Z" transform="translate(-1255.305 -993.264)" fill="#0e2549"/><path d="M1402.2,1505.959c-.572.4-1.123.768-1.661,1.1-9.52,5.933-13.679,1.761-13.679,1.761l-15.323-18.268-2.875-3.426-5.183-6.176-1.18-1.41-5.244-6.25,0,0-6.8-8.106-1.687-2.017-30.234-36.037-12.335-14.707-4.831-5.755-1.249-1.492-.36-.429-28.269-33.7s-4.914-6.623,7.564-15.054c0,0,.044-.026.122-.078.017-.013.039-.026.056-.039l-3.647-5.352s12.348-8.1,22.145-9.685h0a18.951,18.951,0,0,1,2.312-.247c.1-.009.191-.013.282-.013.269-.013.529-.013.781,0a12.255,12.255,0,0,1,1.865.174c.156.026.3.056.455.091a7.738,7.738,0,0,1,2.633,1.08c.113.074.221.152.33.234,1.262.95,5.846,7.048,12.421,16.26l0,.009c7.455,10.453,17.466,24.9,28.065,40.383h0q1.282,1.88,2.581,3.773c3.639,5.317,7.325,10.722,10.986,16.1.5.742,1,1.479,1.5,2.212q1.041,1.536,2.078,3.058,1.288,1.893,2.563,3.773,2.017,2.966,3.99,5.89l0,0c.577.854,1.158,1.7,1.73,2.55,2.316,3.422,4.584,6.775,6.779,10.023.069.1.134.2.2.295q1.171,1.731,2.307,3.418c6.974,10.322,13.1,19.43,17.626,26.157v0q.768,1.151,1.479,2.2c.412.616.811,1.206,1.188,1.769,1.227,1.826,2.268,3.379,3.1,4.615,1.466,2.19,2.272,3.392,2.272,3.392S1412.106,1499,1402.2,1505.959Z" transform="translate(-1219.407 -1120.156)" fill="#fff"/><path d="M1406.8,1486.921l-.051-.091s-.806-1.2-2.272-3.391c-.829-1.236-1.87-2.789-3.1-4.614l-1.5-2.23q-.514-.765-1.059-1.577l-.11-.171c-4.947-7.355-10.909-16.214-17.627-26.158l-.917-1.359q-.689-1.023-1.391-2.061l-.2-.293c-2.195-3.248-4.463-6.6-6.779-10.024l-.761-1.12q-.484-.713-.969-1.429l-.03-.043q-1.959-2.9-3.965-5.853-1.276-1.88-2.564-3.773l-2.263-3.33q-.656-.963-1.315-1.94c-3.661-5.383-7.348-10.787-10.987-16.1l-.872-1.273q-.857-1.252-1.708-2.5l-.2-.284h0c-11.683-17.057-21.053-30.539-27.853-40.073l-.031-.045c-7.21-10.1-11.318-15.468-12.558-16.4-.121-.091-.241-.178-.364-.258a8.417,8.417,0,0,0-2.848-1.172c-.164-.037-.323-.07-.486-.1a12.864,12.864,0,0,0-1.955-.183c-.29-.01-.563-.008-.8,0-.11,0-.226.005-.308.013a19.4,19.4,0,0,0-2.339.247l-.055.008c-9.822,1.587-21.89,9.449-22.4,9.783l-.554.363,3.653,5.359c-4.912,3.4-7.71,6.924-8.32,10.494a7.2,7.2,0,0,0,.934,5.2c.009.014,115.664,137.891,115.664,137.891a7.093,7.093,0,0,0,4.954,1.626c2.307,0,5.457-.756,9.53-3.293.566-.353,1.12-.719,1.692-1.122h0C1411.955,1498.452,1406.855,1487.035,1406.8,1486.921Zm-136.561-121.4c.564-3.193,3.312-6.55,7.914-9.7a6.385,6.385,0,0,0,.6-.431c3.854-2.541,14.24-8.333,17.661-6.188a1.033,1.033,0,0,1,.514,1.279c-.879,3.5-10.859,9.739-15.018,10.02a.7.7,0,0,0,.047,1.4H1282c4.73-.321,15.26-7,16.285-11.079a2.421,2.421,0,0,0-1.131-2.811c-4.351-2.723-15.636,4.048-18.83,6.078l-2.884-4.231c2.5-1.57,12.911-7.851,21.282-9.223a14.1,14.1,0,0,1,5.507-.016,8.419,8.419,0,0,1,2.416.989c.071.046.14.1.209.148a9.463,9.463,0,0,1,1.133,7.146c-.811,3.992-4.242,10.328-15.977,17.834-11.012,7.043-18.188,3.493-19.12,2.972A6,6,0,0,1,1270.241,1365.521Zm130.735,139.056h0c-.552.389-1.084.742-1.63,1.081-8.708,5.427-12.554,2.151-12.86,1.868l-113.842-135.71a15.812,15.812,0,0,0,4.388.594c3.46,0,8.1-1.006,13.684-4.576,9.73-6.223,15.3-12.505,16.551-18.671a11.82,11.82,0,0,0,.06-4.642c1.829,2.3,4.868,6.364,9.875,13.38l.031.046c6.834,9.582,16.274,23.165,28.058,40.372l.164.234q.771,1.13,1.549,2.265l.871,1.273c3.639,5.317,7.325,10.72,10.983,16.1.438.651.88,1.3,1.318,1.943l2.262,3.329q1.288,1.893,2.563,3.773,2.016,2.966,3.989,5.888l.031.044q.472.7.946,1.394l.759,1.117q3.473,5.133,6.783,10.03l.195.288q.7,1.036,1.39,2.057l.918,1.36c6.668,9.869,12.591,18.669,17.515,25.991l.11.167q.6.9,1.17,1.746l1.5,2.229c1.227,1.825,2.267,3.378,3.1,4.614,1.3,1.938,2.078,3.1,2.241,3.344C1405.959,1488.25,1410.023,1498.22,1400.976,1504.578Z" transform="translate(-1218.557 -1119.307)" fill="#0e2549"/><path d="M1437.766,1465.3l-16.424,15.45-42.429-126.779s-1.679-6.472,10.324-8.964l-1.1-5.078s21.1-4.2,25.444,3.039C1416.93,1348.552,1437.766,1465.3,1437.766,1465.3Z" transform="translate(-1280.85 -1119.107)" fill="#fff"/><path d="M1437.557,1464.328c-.851-4.771-20.9-116.928-24.271-122.554l-.015-.022-.01-.016c-4.578-7.5-25.226-3.479-26.1-3.3l-.649.129,1.107,5.089c-4.631,1.057-7.756,2.844-9.293,5.318a5.869,5.869,0,0,0-.887,4.307l42.765,127.786,17.42-16.387Zm-58.885-111.487a4.723,4.723,0,0,1,.777-3.221c1.4-2.217,4.528-3.886,9.044-4.828,5.033-1,13.471-1.717,15.107.54a.7.7,0,0,1,0,.944c-1.684,2.31-10.889,3.921-14.036,2.889a.7.7,0,1,0-.437,1.334,10.674,10.674,0,0,0,3.131.37c4.376,0,10.769-1.425,12.477-3.767a2.073,2.073,0,0,0,0-2.594c-2.435-3.362-12.731-1.787-15.869-1.216l-.8-3.7c3.53-.619,20.306-3.2,24.054,2.778a7.479,7.479,0,0,1-1.294,5.525c-1.791,2.707-6.224,6.364-17.173,8.411C1383.407,1358.219,1379.282,1353.612,1378.673,1352.841Zm42.115,125.881-41.289-123.37a15.8,15.8,0,0,0,9.458,2.714,26.811,26.811,0,0,0,4.933-.484c9.15-1.711,15.213-4.73,18.019-8.973a9.814,9.814,0,0,0,1.333-2.937c4.227,15.738,16.455,82.037,22.973,118.538Z" transform="translate(-1280.002 -1118.251)" fill="#0e2549"/><path d="M1491.79,1434.943c-5.036,17.266-12.929,37.217-16.715,47.478-.078.226-.16.447-.239.659-.377,1.036-.711,1.96-.984,2.758-.343.98-.6,1.774-.755,2.355-.3,1.11.984,7.156.9,14.087-.057,4.684-.742,9.776-2.967,14.018a16.994,16.994,0,0,1-3.452,4.589v0a16.21,16.21,0,0,1-2.936,2.173,17.314,17.314,0,0,1-1.7.863c-1.2.533-5.556-2.975-9.373-6.826-3.088-3.114-5.829-6.454-6.267-8.054-.416-1.505,1.392-3.565,1.392-3.565-.477.022-9.745-.286-8.8-2.125a9.267,9.267,0,0,1,2.255-2.4c.7-.59,1.518-1.21,2.4-1.856,1.293-.95,2.724-1.947,4.12-2.936,2.932-2.073,5.721-4.116,6.831-5.634a17.125,17.125,0,0,0,1.817-4.693c1.292-4.532,2.888-11.979,5.057-22.18q.67-3.149,1.418-6.649c.043-.208.091-.421.139-.629a121.672,121.672,0,0,1,4.5-15.345v0c6.25-17.244,15.614-32.259,21.759-36.072,1.718-1.067,3.184-1.258,4.259-.373.816.668,1.405,1.952,1.709,3.938C1497.025,1414.16,1494.982,1424.014,1491.79,1434.943Z" transform="translate(-1315.39 -1156.094)" fill="#fff"/><path d="M1461.628,1523.711c-2.323,0-7.008-4.356-9.74-7.112-1.352-1.364-5.818-6-6.479-8.421a4.119,4.119,0,0,1,.626-3c-2.471-.117-7.011-.526-7.917-1.935a1.335,1.335,0,0,1-.058-1.361,9.658,9.658,0,0,1,2.465-2.66c.631-.529,1.406-1.129,2.438-1.887.984-.724,2.066-1.486,3.112-2.224l1.02-.721c2.785-1.97,5.591-4.012,6.639-5.444a16.879,16.879,0,0,0,1.688-4.428c1.247-4.374,2.737-11.276,5.044-22.126q.669-3.149,1.418-6.65c.044-.209.093-.428.142-.641a121.95,121.95,0,0,1,4.482-15.31l.049-.137c6.072-16.756,15.575-32.447,22.1-36.5,2.639-1.64,4.3-1.073,5.23-.308,1.017.833,1.673,2.291,2,4.457.8,5.174-.64,13.933-4.392,26.778h0c-4.058,13.918-9.857,29.277-14.092,40.493-1,2.656-1.9,5.034-2.641,7.04-.069.2-.148.414-.224.62-.389,1.066-.72,1.985-.992,2.779-.344.984-.592,1.757-.739,2.3a21.967,21.967,0,0,0,.254,3.3,83.615,83.615,0,0,1,.677,10.583c-.07,5.812-1.1,10.655-3.062,14.395a17.988,17.988,0,0,1-3.357,4.558v.005l-.265.252a17.128,17.128,0,0,1-3.087,2.284,18.352,18.352,0,0,1-1.782.905A1.38,1.38,0,0,1,1461.628,1523.711Zm-12.134-20.212-1.259,1.445c-.492.564-1.437,1.989-1.215,2.791.358,1.308,2.79,4.4,6.055,7.689,4.523,4.564,7.689,6.635,8.465,6.635h.013a16.407,16.407,0,0,0,1.581-.806,15.475,15.475,0,0,0,2.632-1.919l.154-.146a16.21,16.21,0,0,0,3.282-4.365c1.839-3.505,2.8-8.094,2.872-13.64a82.1,82.1,0,0,0-.667-10.376,14.119,14.119,0,0,1-.206-3.918c.159-.592.411-1.381.772-2.414.273-.8.608-1.726.988-2.769l.016-.043c.072-.195.147-.4.218-.6.748-2.026,1.647-4.408,2.651-7.068,4.225-11.19,10.011-26.515,14.052-40.37h0c3.631-12.431,5.092-21.2,4.344-26.057a5.577,5.577,0,0,0-1.413-3.419c-.738-.608-1.844-.461-3.288.436-6.231,3.866-15.4,19.116-21.365,35.51l-.05.143a120.52,120.52,0,0,0-4.471,15.238c-.049.211-.1.417-.137.62q-.749,3.508-1.419,6.653c-2.313,10.884-3.809,17.812-5.07,22.236a17.393,17.393,0,0,1-1.946,4.956c-1.2,1.638-4.006,3.689-7.024,5.823l-1.023.722c-1.039.733-2.113,1.491-3.085,2.205-1,.735-1.751,1.315-2.356,1.823a10.223,10.223,0,0,0-1.934,1.944c1.147.733,6.6,1.151,7.911,1.105Zm12.08,18.558Z" transform="translate(-1314.301 -1155.004)" fill="#0e2549"/><path d="M1494.06,1428.6s17.246-18.673,21.76-56.03a398.962,398.962,0,0,0,2.071-69.619l-36.649,3.115s-2.8,51.246-4.252,63.011c-2.016,16.369-10.8,59.523-10.8,59.523Z" transform="translate(-1330.321 -1098.855)" fill="#0e2549"/><path d="M1492.956,1424.425h-28.714l.216-.817c18.679-70.485,11.3-127.867,11.226-128.438a.651.651,0,0,1,1.29-.173c.02.144,1.924,14.628,1.484,37.654a391.47,391.47,0,0,1-12.526,90.474h27.024a.651.651,0,1,1,0,1.3Z" transform="translate(-1329.217 -1094.03)" fill="#a1c5e2"/><path d="M1318.548,987.664s-4.864,20.128.9,25.323,30.252,8.035,34.65,6.08,12.147-24.7,12.147-24.7-9.775,3.7-15.2,3.661-18.864.16-24.983-3.631A33.792,33.792,0,0,1,1318.548,987.664Z" transform="translate(-1245.626 -920.311)" fill="#0e2549"/><path d="M1355.645,1014.711c.321,1.459-3.984,5.857-7.682,5.195-6.035-1.081-6.527-7.53-5.146-6.924a12.423,12.423,0,0,0,5.979,2.9C1352.72,1016.468,1355.429,1013.732,1355.645,1014.711Z" transform="translate(-1260.093 -934.626)" fill="#fff"/><path d="M1384.368,871.111l-.684,6.735-69.517-7.062.684-6.735a34.938,34.938,0,0,1,69.517,7.062Z" transform="translate(-1244.231 -832.611)" fill="#02afbe"/><path d="M1378.192,839.89s-28.562,6.649-39.28,32.9c-1.072,2.628-12.142,1.557-12.426-2.134-1.5-19.568,15.717-35.216,15.717-35.216a34.972,34.972,0,0,1,35.988,4.449Z" transform="translate(-1251.155 -832.37)" fill="#88dbe2"/><path d="M1369.949,928.229l-72.488-7.364a3.093,3.093,0,0,1-2.765-3.39l.028-.274a3.093,3.093,0,0,1,3.39-2.764L1370.6,921.8a3.093,3.093,0,0,1,2.765,3.39l-.028.275A3.092,3.092,0,0,1,1369.949,928.229Z" transform="translate(-1233.196 -878.834)" fill="#02afbe"/><path d="M1224.9,1498.888a.651.651,0,0,1-.048-1.3l33.812-2.582a.658.658,0,0,1,.7.6.651.651,0,0,1-.6.7l-33.812,2.581Z" transform="translate(-1193.314 -1207.614)" fill="#a1c5e2"/></g><g transform="translate(113.77 551.909)"><path d="M392.117,1062.651s-2.963,31.114-.474,34.554,21.023,7.875,21.023,7.875l-28.254,72.73-51.439-4.972-3.335-52.656s23.479-19.127,24.9-23.055c1.96-5.436,1.965-34.476,1.965-34.476Z" transform="translate(-265.567 -974.164)" fill="#fff"/><path d="M383.964,1177.655l-52.482-5.073-3.391-53.545.26-.211c6.492-5.289,23.583-19.688,24.694-22.771,1.9-5.267,1.927-33.965,1.927-34.255a.651.651,0,0,1,.651-.651h0a.652.652,0,0,1,.651.651c0,1.191-.029,29.217-2,34.7-1.394,3.866-21.451,20.363-24.837,23.127l3.279,51.768,50.4,4.871,27.806-71.577c-3.788-.934-18.319-4.695-20.674-7.949-2.56-3.537.047-31.788.353-35a.651.651,0,1,1,1.3.123c-1.181,12.408-2.315,31.732-.594,34.111,1.926,2.662,15.557,6.405,20.646,7.622l.726.173Z" transform="translate(-264.691 -973.313)" fill="#0e2549"/><path d="M401.942,919.659c6.432.764,22.08,2.418,21.94,13.939-.16,13.141-2.582,30.01-4.011,38.891a7.152,7.152,0,0,1-7.147,6.021l-39.677-.481a7.155,7.155,0,0,1-7.028-6.436c-1.244-12.2-3.651-38.024-2.16-41.9C368.935,916.525,391.759,918.45,401.942,919.659Z" transform="translate(-284.678 -892.7)" fill="#0e2549"/><path d="M380.048,1000.807c-2.115-2.252-2.867-11.069-2.99-21.117a.835.835,0,0,0-.4-.7c-2.586-1.583-6.315-4.95-6.146-9.932.147-4.316,3.257-3.373,5.691-1.954a.662.662,0,0,0,.985-.583c.34-12.112,1.135-22.724,1.135-22.724l47.148.571s-.223,10.8-.822,22.91c-.027.544-2.357,29.415-3.521,32.016a8.066,8.066,0,0,1-3.429,3.528s-3.055,2.438-20.191,2.23Z" transform="translate(-288.712 -906.856)" fill="#fff"/><path d="M398.716,1004.852q-1,0-2.067-.013a.654.654,0,0,1,.008-1.308h.008c16.412.192,19.757-2.074,19.789-2.1l.063-.042a7.426,7.426,0,0,0,3.164-3.233c1.079-2.412,3.4-30.578,3.465-31.781.508-10.271.748-19.7.807-22.231l-45.871-.556c-.172,2.431-.8,11.763-1.09,22.081a1.336,1.336,0,0,1-.687,1.144,1.284,1.284,0,0,1-1.281-.013c-1.727-1.006-3.08-1.338-3.81-.935-.553.305-.855,1.095-.9,2.346-.174,5.111,4.022,8.243,5.833,9.352a1.481,1.481,0,0,1,.71,1.253c.18,14.806,1.629,19.417,2.812,20.677a.654.654,0,1,1-.953.9c-1.981-2.109-3.016-9.16-3.167-21.557a.183.183,0,0,0-.085-.152c-2.008-1.229-6.655-4.714-6.458-10.512.059-1.743.589-2.9,1.573-3.446,1.183-.653,2.9-.334,5.1.949.338-12.025,1.13-22.685,1.138-22.791l.046-.613,48.422.587-.013.66c0,.108-.23,10.949-.823,22.928-.014.273-2.324,29.45-3.578,32.251a8.669,8.669,0,0,1-3.663,3.807C416.7,1002.869,413.277,1004.852,398.716,1004.852Z" transform="translate(-287.858 -905.992)" fill="#0e2549"/><path d="M427.467,1003.875c-.032,0-.063,0-.1,0a1.518,1.518,0,0,1-1.421-1.608l.06-.973a1.518,1.518,0,0,1,3.03.187l-.06.973A1.518,1.518,0,0,1,427.467,1003.875Z" transform="translate(-320.106 -938.609)" fill="#0e2549"/><path d="M473.443,1005.174h-.033a1.518,1.518,0,0,1-1.485-1.551l.025-1.148a1.533,1.533,0,0,1,1.551-1.485,1.518,1.518,0,0,1,1.484,1.55l-.025,1.149A1.518,1.518,0,0,1,473.443,1005.174Z" transform="translate(-346.143 -939.245)" fill="#0e2549"/><path d="M426.426,988.4a.892.892,0,0,1-.2-.023c-.081-.019-8.175-1.888-12.1-.374a.889.889,0,0,1-.64-1.659c4.439-1.711,12.8.219,13.149.3a.889.889,0,0,1-.2,1.755Z" transform="translate(-312.723 -930.554)" fill="#0e2549"/><path d="M436.19,1044.025c-.759,1.091,3,4.906,7.419,4.764,7.213-.23,9.508-5.144,7.76-4.816a21.751,21.751,0,0,1-7.637,1.637C439.074,1045.67,436.7,1043.293,436.19,1044.025Z" transform="translate(-325.85 -963.536)" fill="#0e2549"/><path d="M382.54,926.182s-21.936-5.728-15.691,23.656c3.57,16.8-4.153-4.9,14.9-16.962C383.726,931.623,382.54,926.182,382.54,926.182Z" transform="translate(-286.006 -896.627)" fill="#0e2549"/><path d="M431.135,953.256s1.191-11.657-4.212-13.9-4.473,3.316-15.32,3.279-19.659-4.809-23.785-4.119-8.507,7.372-8.507,7.372l-1.021-11.2,24.744-3.215,16.748,1.827,9.88,2.785Z" transform="translate(-293.118 -899.88)" fill="#0e2549"/><path d="M457.531,1007.021a.749.749,0,0,1-.148-1.484c1.523-.309,3.236-1.062,3.36-1.689.2-1.024.156-1.19-1.629-5.938-.4-1.068-.887-2.361-1.472-3.937l-.018-.055c-.041-.143-.994-3.534-.522-5.728.16-.743.808-1.363,1.926-1.842,2.839-1.216,8.105-1.283,11.12.565a.749.749,0,1,1-.783,1.278c-2.76-1.692-7.538-1.411-9.747-.465-.768.328-1.022.644-1.051.779a13.5,13.5,0,0,0,.492,4.977c.579,1.56,1.06,2.841,1.459,3.9,1.835,4.884,1.986,5.283,1.7,6.755-.382,1.936-3.843,2.729-4.532,2.869A.738.738,0,0,1,457.531,1007.021Z" transform="translate(-337.567 -930.459)" fill="#0e2549"/><path d="M418.947,1553.762a316.982,316.982,0,0,1-49.924-8.8q-8.744-2.31-17.409-5.244l-1.388-13.037-.087,12.53q-9.31-3.227-18.407-7.256l-1.7,4.875a2.6,2.6,0,0,1-3.314,1.6L302.544,1530l-14.894-5.192c.147-4.671.312-9.039.494-13.068q.143-3.025.295-5.781c.009-.182.022-.364.03-.542a165.678,165.678,0,0,1,1.878-19.174c.087-.438.169-.867.256-1.3q.26-1.288.525-2.524v-.021c.165-.768.33-1.509.5-2.247,1.1-4.862,2.277-9.121,3.478-12.86v0a82.206,82.206,0,0,1,7.438-17.171c3.986-6.649,7.061-8.345,7.061-8.345h.217l21.781-.2h.009l37.412-.338,23.351-.208s5.482-.954,16.32,35.13l0,.009c.035.117.069.239.1.36a.033.033,0,0,1,0,.017q1,3.331,2.06,7.1v0c.317,1.128.633,2.281.959,3.465.169.616.338,1.245.512,1.882.651,2.411,1.258,5.365,1.822,8.8,1.765,10.721,3.136,26.153,4.19,44.5Q418.661,1547.86,418.947,1553.762Z" transform="translate(-241.789 -1188.438)" fill="#02afbe"/><path d="M206.254,1223.93c-.641,1,36.624,18.168,36.624,18.168l9.605-11.823-8.189,100.2,132.986,2.715-8.047-99.764,20.676,5.288s-19.516-82.366-56.051-88.482c-4.555-.763-11.4,11.607-17.244,11.74-12.653.288-30.992-13.83-45.543-11.74C263.7,1151.293,238.977,1172.673,206.254,1223.93Z" transform="translate(-195.691 -1023.642)" fill="#0e2549"/><path d="M402.516,1263.966l-84.65-.491s-6.782,39.373-19.057,47.033l-4.834,84.216,120.186,2.454Z" transform="translate(-245.371 -1087.888)" fill="#02afbe"/><path d="M565.34,1486.114a.891.891,0,0,1-1.642-.345,123.731,123.731,0,0,1,.725-14.7c.241-2.394-1.585-9.441-1.585-9.441s-9.013,8.983-9.648,6.574,8.148-12.758,7.937-16.272-9.713-115.847-9.713-115.847l26.627-1.491-6.73,116.418s4.261,13.532,3.612,16.394C574.1,1471.039,568.022,1481.575,565.34,1486.114Z" transform="translate(-391.156 -1128.162)" fill="#fff"/><path d="M563.661,1486.286a1.637,1.637,0,0,1-.393-.048,1.446,1.446,0,0,1-1.14-1.337,129.818,129.818,0,0,1,.727-14.8c.16-1.584-.718-5.715-1.294-8.112-2.632,2.555-7.34,6.8-9.105,6.326a1.136,1.136,0,0,1-.816-.849c-.362-1.372,1.171-3.91,3.7-7.936,2.021-3.216,4.312-6.861,4.215-8.462-.209-3.467-9.617-114.708-9.712-115.831l-.056-.667L577.812,1333l-6.766,117.026c.581,1.853,4.244,13.739,3.591,16.62-.818,3.6-6.4,13.386-9.657,18.9h0A1.52,1.52,0,0,1,563.661,1486.286Zm-1.4-26.82.285,1.1c.076.292,1.852,7.188,1.6,9.669a123.637,123.637,0,0,0-.723,14.6c0,.086.085.124.151.14a.255.255,0,0,0,.281-.092h0c2.59-4.384,8.7-14.964,9.508-18.523.448-1.973-1.907-10.682-3.6-16.055l-.036-.114.006-.119,6.688-115.689-25.231,1.412c.787,9.311,9.457,111.855,9.658,115.2.122,2.018-2.081,5.522-4.412,9.233-1.557,2.477-3.674,5.846-3.558,6.841,1.008-.049,4.845-3.083,8.573-6.8Z" transform="translate(-390.236 -1127.261)" fill="#0e2549"/><path d="M387.759,1482.521l-59.784-20.847a6.322,6.322,0,0,1-3.887-8.05l6.51-18.667a6.321,6.321,0,0,1,8.05-3.887l59.783,20.848Z" transform="translate(-262.224 -1182.595)" fill="#007882"/><rect width="39.438" height="22.061" transform="translate(55.931 317.285) rotate(-70.776)" fill="#007882"/><path d="M331.911,1601.514l-3.981,11.42-1.7,4.875a2.6,2.6,0,0,1-3.314,1.6l-24.175-8.431-14.894-5.192-1.167-.408a2.6,2.6,0,0,1-1.6-3.313l3.262-9.347,1.657-4.749.551-1.574.217-.625a2.6,2.6,0,0,1,3.314-1.6l4.207,1.466,2.173.759,2.281.794,16.377,5.712,15.193,5.3A2.6,2.6,0,0,1,331.911,1601.514Z" transform="translate(-237.986 -1269.412)" fill="#0e2549"/><path d="M4.51,0H31.35A4.511,4.511,0,0,1,35.86,4.511v.846a4.511,4.511,0,0,1-4.511,4.511H4.51A4.51,4.51,0,0,1,0,5.357V4.51A4.51,4.51,0,0,1,4.51,0Z" transform="matrix(0.329, -0.944, 0.944, 0.329, 123.291, 300.757)" fill="#0e2549"/><path d="M496.932,1521.209l-7.29-2.542,8.875-25.452,7.29,2.542a4.554,4.554,0,0,1,2.8,5.8l-5.877,16.853A4.554,4.554,0,0,1,496.932,1521.209Z" transform="translate(-356.175 -1217.987)" fill="#0e2549"/><path d="M540.333,1535.65l-22.12-7.713a2.646,2.646,0,0,1-1.628-3.371h0a2.647,2.647,0,0,1,3.371-1.628l22.12,7.713a2.648,2.648,0,0,1,1.628,3.372h0A2.647,2.647,0,0,1,540.333,1535.65Z" transform="translate(-371.35 -1234.735)" fill="#0e2549"/><path d="M349,1464.633a.65.65,0,0,1-.619-.853l5.918-18.087a.651.651,0,0,1,1.237.405l-5.919,18.087A.651.651,0,0,1,349,1464.633Z" transform="translate(-276.165 -1190.823)" fill="#0e2549"/><path d="M378.4,1517.646a.662.662,0,0,1-.216-.036l-48.549-17.082a.651.651,0,0,1,.432-1.228l48.549,17.081a.651.651,0,0,1-.216,1.264Z" transform="translate(-265.321 -1221.413)" fill="#0e2549"/><path d="M208.4,1302.051c12.036-5.849,27.179,12.131,27.179,12.131.579.494-23,40.5-19.394,45.714,8.006,11.575,22.356,32.044,29.3,40.2,1.77-1.925,5.636-4.848,7.781-5.3a.441.441,0,0,1,.553.526c-.461,1.466-1.72,5.428-2.715,8.151,6.025,3.4,17.748,6.6,16.719,10.043-1.828,6.12-7.08,15.615-13.438,13.622-9.883-3.1-19.778-18.4-21.316-20.067-5.394-5.846-44.953-37.323-49.506-51.568C181.568,1349.265,199.032,1306.606,208.4,1302.051Z" transform="translate(-182.756 -1109.071)" fill="#fff"/><path d="M255.27,1427.192a6.414,6.414,0,0,1-1.927-.3c-8.45-2.648-16.707-13.736-20.233-18.471-.635-.852-1.135-1.525-1.367-1.776-1.307-1.417-4.762-4.458-9.136-8.309-13.849-12.192-37.027-32.6-40.512-43.5-1.174-3.672,3.419-16.993,8.184-27.816,2.385-5.419,10.661-23.34,16.995-26.418h0c12.18-5.916,26.917,11.067,27.927,12.257.507.441.407.631-3.6,8.172-3.084,5.8-7.745,14.573-11.194,22.161-5.255,11.559-5.092,14.655-4.527,15.471,7.784,11.254,21.716,31.131,28.794,39.6,1.959-1.935,5.452-4.511,7.612-4.971a1.144,1.144,0,0,1,1.084.34,1.035,1.035,0,0,1,.225,1.017c-.457,1.455-1.577,4.978-2.535,7.654,1.813.974,4.1,1.948,6.316,2.892,5.953,2.537,11.094,4.728,10.225,7.639-1.534,5.135-4.927,11.3-9.048,13.488A6.945,6.945,0,0,1,255.27,1427.192Zm-42.545-126.519a11.022,11.022,0,0,0-4.882,1.1c-3.945,1.917-10.219,11.792-16.373,25.771-5.436,12.348-9.009,24.162-8.136,26.9,3.376,10.561,26.385,30.819,40.133,42.922,4.4,3.876,7.88,6.937,9.233,8.4.278.3.746.93,1.454,1.881,3.451,4.634,11.531,15.485,19.579,18.006a5.32,5.32,0,0,0,4.208-.475c3.769-2,7-7.994,8.412-12.712.537-1.8-5.022-4.165-9.488-6.069a73.7,73.7,0,0,1-6.927-3.221l-.481-.271.19-.518c.91-2.49,2.034-5.994,2.582-7.731-1.964.611-5.386,3.146-7.111,5.022l-.5.542-.477-.56c-6.953-8.175-21.364-28.729-29.335-40.254-2.648-3.829,6.686-22.13,15.642-38.984,1.642-3.089,3.2-6.023,3.576-6.928C232.439,1311.694,222.3,1300.673,212.725,1300.673Z" transform="translate(-181.91 -1108.205)" fill="#0e2549"/><path d="M431.207,1589.353a.8.8,0,0,1-.083,0,.651.651,0,0,1-.563-.727l2.123-16.732,10.3-6.8v-9.174a.651.651,0,1,1,1.3,0v9.874l-10.39,6.856-2.048,16.139A.65.65,0,0,1,431.207,1589.353Z" transform="translate(-322.716 -1253.126)" fill="#0e2549"/><path d="M571.592,1274.988s12.114,29.75,10.514,36.785H548.268l-2.41-33.239Z" transform="translate(-388.01 -1094.408)" fill="#0e2549"/><path d="M257.248,1283.552l-13.2,22.06-35.61-22.088,21.476-29.673Z" transform="translate(-196.93 -1082.438)" fill="#0e2549"/><path d="M343.73,896.357v7.255h74.88v-7.255a37.44,37.44,0,0,0-74.88,0Z" transform="translate(-273.547 -858.887)" fill="#02afbe"/><path d="M383.669,864.488s29.731,10.182,38.314,39.331c.859,2.917,12.777,2.975,13.478-.93,3.718-20.7-12.942-39.247-12.942-39.247a37.476,37.476,0,0,0-38.851.846Z" transform="translate(-296.164 -858.627)" fill="#88dbe2"/><rect width="84.71" height="6.925" rx="3.462" transform="translate(154.006 49.452) rotate(180)" fill="#02afbe"/><path d="M497.8,1148.018a126.022,126.022,0,0,1,13.594,53.314h-7.937s-2.673-41.185-12.535-53Z" transform="translate(-356.898 -1022.506)" fill="#02afbe"/><path d="M344.1,1148.018s13.426,23.4,14.232,53.314h-7.937s-2.392-39.112-12.254-50.669Z" transform="translate(-270.38 -1022.506)" fill="#02afbe"/><path d="M441.929,1330.082h-9.243a19.26,19.26,0,0,1-19.238-19.238v-7.709a2.578,2.578,0,0,1,2.576-2.575h42.567a2.578,2.578,0,0,1,2.575,2.575v7.709A19.26,19.26,0,0,1,441.929,1330.082Zm-25.905-28.221a1.276,1.276,0,0,0-1.275,1.274v7.709a17.957,17.957,0,0,0,17.937,17.936h9.243a17.957,17.957,0,0,0,17.936-17.936v-7.709a1.276,1.276,0,0,0-1.274-1.274Z" transform="translate(-313.028 -1108.889)" fill="#0e2549"/></g><g transform="translate(275.005 539.646)"><path d="M699.664,1036.826s1.132,30.579-1.581,34.066-16.884,11.426-16.884,11.426l40.868,50.7,36.379-50.082s-15.517-6.8-16.984-10.836c-2.03-5.582-1.659-35.274-1.659-35.274Z" transform="translate(-625.888 -947.276)" fill="#fff"/><path d="M720.8,1133.237l-41.884-51.962.672-.376c.141-.078,14.087-7.913,16.688-11.257,1.884-2.421,1.9-21.446,1.444-33.643a.651.651,0,1,1,1.3-.048c.117,3.154,1.06,30.918-1.717,34.489-2.448,3.148-13.524,9.572-16.409,11.214l39.853,49.442,35.407-48.745c-3.363-1.516-15.218-7.087-16.6-10.881-2.047-5.629-1.713-34.287-1.7-35.5a.643.643,0,0,1,.659-.643.651.651,0,0,1,.642.659c0,.3-.347,29.636,1.619,35.043,1.125,3.094,12.389,8.6,16.634,10.462l.74.324Z" transform="translate(-624.595 -946.425)" fill="#0e2549"/><path d="M719.695,894.037c-6.412.681-22.011,2.136-22.011,13.583,0,13.056,2.209,29.842,3.524,38.681a7.116,7.116,0,0,0,7.042,6.067h39.507a7.118,7.118,0,0,0,7.074-6.308c1.386-12.1,4.094-37.728,2.656-41.592C752.593,891.321,729.847,892.958,719.695,894.037Z" transform="translate(-635.222 -866.016)" fill="#0e2549"/><path d="M716.547,978.313c11.2,1.3,25.195-.819,29.078-4.7,2.277-2.276,3.19-11.281,3.449-21.554a.848.848,0,0,1,.431-.713c2.769-1.587,6.775-4.982,6.659-10.078-.1-4.415-3.417-3.489-6.023-2.068a.7.7,0,0,1-1.039-.609c-.206-12.388-.914-23.248-.914-23.248H698.076s.1,11.047.579,23.435a.7.7,0,0,1-1.056.638c-2.65-1.531-6.3-2.783-6.405,1.853-.131,5.777,5.034,9.369,7.689,10.618a.836.836,0,0,1,.478.7c.582,8.737,1.42,16.292,2.624,18.966a8.387,8.387,0,0,0,3.6,3.65Z" transform="translate(-631.546 -878.48)" fill="#fff"/><path d="M722.772,978.508a62.537,62.537,0,0,1-7.149-.4.651.651,0,0,1,.15-1.292c11.269,1.307,24.874-.847,28.543-4.516,1.276-1.276,2.877-5.974,3.259-21.111a1.509,1.509,0,0,1,.758-1.261c1.943-1.114,6.451-4.269,6.332-9.5-.029-1.263-.335-2.072-.91-2.4-.786-.454-2.26-.138-4.151.893a1.354,1.354,0,0,1-2-1.169c-.176-10.581-.725-20.15-.874-22.608H697.885c.03,2.558.163,12.226.572,22.759a1.354,1.354,0,0,1-2.032,1.226c-2.06-1.19-3.66-1.584-4.505-1.109-.584.328-.895,1.14-.924,2.413-.143,6.323,6.552,9.655,7.315,10.014a1.487,1.487,0,0,1,.85,1.249c.843,12.647,1.862,17.173,2.568,18.743a7.756,7.756,0,0,0,3.334,3.355.651.651,0,0,1-.656,1.124,9.007,9.007,0,0,1-3.864-3.945c-1.092-2.425-1.993-8.882-2.68-19.191a.184.184,0,0,0-.105-.157c-3.8-1.785-8.186-5.795-8.063-11.221.04-1.765.574-2.949,1.587-3.518,1.3-.73,3.248-.354,5.794,1.116a.047.047,0,0,0,.055,0,.049.049,0,0,0,.026-.049c-.475-12.256-.578-23.344-.58-23.454l-.006-.657H747.95l.039.609c.007.109.712,11.018.915,23.279a.049.049,0,0,0,.027.048.044.044,0,0,0,.05,0c2.371-1.292,4.2-1.589,5.425-.877,1,.576,1.52,1.753,1.56,3.5.135,5.928-4.841,9.428-6.986,10.658a.2.2,0,0,0-.1.165c-.32,12.673-1.51,19.869-3.64,22C742.05,976.407,732.513,978.508,722.772,978.508Z" transform="translate(-630.697 -877.63)" fill="#0e2549"/><path d="M718,1157.688l44.78,1.92-4.894,49.082H709.964Z" transform="translate(-642.176 -1015.719)" fill="#d4f2f4"/><path d="M727.351,1252.695s-29.471,8.686-47.579,0c-27.286-13.088-40.492,12.351-63.643,6-1.437-.394-16.749-1.089-33.721-2.4-18.637-1.436-25.373-10.078-26.815-13.268-2.2-4.857-2.652-14.637-.634-19.878l22.183-88.81s31.819-15.907,35.212-15.312c4.22.74,22.762,6.094,23.315,7.233,1.906,3.924,10.379,39.145,12.666,38.5,1.512-.424,10.95-36.885,12.482-38.1,6.589-5.212,20.6-8.959,21.957-8.6l29.068,16.279,30.273,90.042C745.959,1234.117,736.638,1247.886,727.351,1252.695Z" transform="translate(-553.667 -993.268)" fill="#02afbe"/><path d="M650.957,1321.326a.537.537,0,0,1-.513-.7l9.813-31.416a.537.537,0,0,1,1.025.32l-9.813,31.416A.538.538,0,0,1,650.957,1321.326Z" transform="translate(-608.457 -1089.987)" fill="#0e2549"/><path d="M741.219,1551.3l-.022,4.407-.026,5.786v0l-.03,6.549-.03,7.043s0,0,0,0l-.139,29.449q-4.144,1.464-8.362,3.131s-2.216.516-6.28,1.292c-2.685.516-6.176,1.145-10.37,1.817-8.934,1.436-21.061,3.071-35.365,4.207l-.134.013h-.035a432.165,432.165,0,0,1-61.465.59V1548.45l13.662.317,2.927.069,21.417.5,2.927.069,9.81.23,3.47.078,11.4.269,10.175.234,3.144.074,8.457.2,2.927.065,6.679.156,11.788.277h0l4.294.1,2.927.065.074,0Z" transform="translate(-590.642 -1237.003)" fill="#02afbe"/><path d="M843.723,1364.947a.537.537,0,0,1-.25-1.012l39.237-20.6a.537.537,0,1,1,.5.95l-39.238,20.6A.54.54,0,0,1,843.723,1364.947Z" transform="translate(-717.618 -1120.815)" fill="#0e2549"/><path d="M869.5,1313.242a.537.537,0,0,1-.512-.375l-13.91-44.008a.537.537,0,1,1,1.024-.324l13.911,44.009a.537.537,0,0,1-.512.7Z" transform="translate(-724.34 -1078.278)" fill="#0e2549"/><path d="M794.159,978.451h-.014a1.3,1.3,0,0,1-1.288-1.315l.013-1.175a1.3,1.3,0,1,1,2.6.027l-.013,1.175A1.3,1.3,0,0,1,794.159,978.451Z" transform="translate(-689.118 -912.08)" fill="#0e2549"/><path d="M740.56,978.451a1.3,1.3,0,0,1-1.3-1.289l-.011-1.175a1.3,1.3,0,0,1,1.289-1.314h.013a1.3,1.3,0,0,1,1.3,1.289l.011,1.175a1.3,1.3,0,0,1-1.289,1.313Z" transform="translate(-658.759 -912.08)" fill="#0e2549"/><path d="M730.049,960.96a.651.651,0,0,1-.334-1.209,12.126,12.126,0,0,1,8.776-1.259.651.651,0,0,1-.347,1.254,10.987,10.987,0,0,0-7.763,1.123A.648.648,0,0,1,730.049,960.96Z" transform="translate(-653.182 -902.733)" fill="#0e2549"/><path d="M795.555,961.462a.645.645,0,0,1-.333-.092,11,11,0,0,0-7.763-1.122.651.651,0,0,1-.346-1.254,12.125,12.125,0,0,1,8.775,1.259.651.651,0,0,1-.334,1.209Z" transform="translate(-685.595 -903.017)" fill="#0e2549"/><path d="M612.464,1417.247l2.817,52.019,122.257,2.85,1.235-63.495Z" transform="translate(-586.963 -1157.82)" fill="#02afbe"/><path d="M617.972,1389.8a85.653,85.653,0,0,1-15.387-1.4.537.537,0,1,1,.193-1.056c21.2,3.871,36.992-1.529,39.446-2.444A88.817,88.817,0,0,1,644.6,1364.4l-33.207-11.191a.537.537,0,1,1,.343-1.017l34.168,11.514-.14.493a85.4,85.4,0,0,0-2.469,21.079v.359l-.332.137C642.836,1385.822,632.982,1389.8,617.972,1389.8Z" transform="translate(-581.119 -1125.846)" fill="#0e2549"/><path d="M741.614,1648.378a.651.651,0,0,1-.647-.588l-2.219-23.154-7.2-1.82-4.517-12.707a.651.651,0,0,1,1.226-.435l4.284,12.051,7.411,1.874,2.306,24.067a.65.65,0,0,1-.585.71Z" transform="translate(-651.823 -1271.428)" fill="#0e2549"/><path d="M695.79,1363.226l64.647-16.478s17.085-7.608,17.2-13.842l-6.4-19.679c-1.638.7-7.87,10.072-14.736,14.993a21.774,21.774,0,0,1-12.116,3.739l-45.633,6.047Z" transform="translate(-634.15 -1103.799)" fill="#fff"/><path d="M694.046,1362.943l3.127-26.662,46.188-6.121.054,0a21.333,21.333,0,0,0,11.715-3.618c4.17-2.987,8.08-7.617,10.935-11,2.13-2.523,3.187-3.749,3.923-4.064l.654-.281,6.655,20.46,0,.109c-.117,6.573-16.869,14.107-17.582,14.425l-.1.036Zm4.3-25.505-2.788,23.777,63.676-16.231c4.649-2.078,16.5-8.389,16.756-13.134l-6.082-18.7c-.7.683-1.788,1.973-2.851,3.232-2.9,3.432-6.87,8.133-11.171,11.216a22.24,22.24,0,0,1-12.46,3.862Z" transform="translate(-633.162 -1102.652)" fill="#0e2549"/><path d="M675.752,1370.713s-4.584,26.389-3,29.6,13.2-.973,13.2-.973l2.746-25.6Z" transform="translate(-620.915 -1136.353)" fill="#0e2549"/><path d="M675.206,1401.141c-1.806,0-3.287-.41-3.862-1.573-1.631-3.3,2.47-27.275,2.942-30l.118-.678,14.182,3.307-2.852,26.582-.382.137C683.985,1399.412,678.914,1401.141,675.206,1401.141Zm.245-30.669c-1.808,10.538-4.01,26.352-2.94,28.52.89,1.8,7.429.438,12.017-1.162l2.641-24.625Z" transform="translate(-620.09 -1135.322)" fill="#0e2549"/><path d="M740.427,1341.3s-50.8-6.7-59.254-7.548-6.911-5.7-14.094-6.541-10.171-3.453-10.171-3.453l-5.25,16.806s27.08,9.186,30.46,10.877,47.746,21.126,60.422,19.859,16.479-2.958,16.479-2.958Z" transform="translate(-609.158 -1109.764)" fill="#fff"/><path d="M740.19,1370.515c-14.473,0-56.024-18.288-59.421-19.987-3.3-1.651-30.107-10.751-30.378-10.842l-.6-.2,5.736-18.364.751.656c.027.024,2.965,2.49,9.82,3.3a10.531,10.531,0,0,1,6.717,3.239,10.793,10.793,0,0,0,7.365,3.3c8.364.836,58.765,7.484,59.274,7.55l.287.038,19.2,27.925-.716.318c-.159.071-4.044,1.746-16.678,3.01A13.473,13.473,0,0,1,740.19,1370.515Zm-88.78-31.857c4.111,1.4,26.8,9.136,29.941,10.706,3.337,1.668,47.567,21.04,60.066,19.794,9.393-.94,13.893-2.121,15.527-2.64L739,1340.412c-4.129-.543-50.932-6.706-58.947-7.508a12.15,12.15,0,0,1-8.112-3.634,9.215,9.215,0,0,0-5.993-2.908,23.158,23.158,0,0,1-9.742-3.048Z" transform="translate(-608.1 -1108.268)" fill="#0e2549"/><path d="M854.309,1358.535l15.108-3.675a108.025,108.025,0,0,1,9.792,34.112s-18.581,3.679-20.359,1.836S852.565,1370.478,854.309,1358.535Z" transform="translate(-723.694 -1127.375)" fill="#0e2549"/><path d="M861.045,1390.964c-1.743,0-3.039-.194-3.515-.688-2.126-2.2-6.458-20.9-4.716-32.818l.063-.434,16.032-3.9.235.455a109.716,109.716,0,0,1,9.86,34.34l.064.592-.585.116C875.169,1389.283,866.174,1390.964,861.045,1390.964Zm-7-32.884c-1.529,11.631,2.794,29.6,4.425,31.293.974.95,10.591-.239,19.178-1.907a109.3,109.3,0,0,0-9.431-32.833Z" transform="translate(-722.842 -1126.392)" fill="#0e2549"/><path d="M695.759,1124.433l-17.49,7.243L658,1115.771l14.538-1.761Z" transform="translate(-612.752 -990.984)" fill="#0e2549"/><path d="M676.031,1131.551l-21.8-17.109,16.275-1.971,24.758,11.115Zm-18.526-16.2,18.731,14.7,15.745-6.521-21.676-9.731Z" transform="translate(-610.616 -990.113)" fill="#0e2549"/><path d="M799.649,1122.473l16.669,8.813,17.456-16.992L823,1111.064Z" transform="translate(-692.964 -989.317)" fill="#0e2549"/><path d="M814.558,1131.172l-18.218-9.632,24.733-12.081,12.074,3.62Zm-15.348-9.586,15.119,7.994,16.324-15.89-9.467-2.838Z" transform="translate(-691.09 -988.407)" fill="#0e2549"/><path d="M771.081,1280.848a.66.66,0,0,1-.66-.66v-55.275a.66.66,0,0,1,1.32,0v55.275A.66.66,0,0,1,771.081,1280.848Z" transform="translate(-676.412 -1053.414)" fill="#0e2549"/><rect width="1.301" height="63.858" transform="translate(93.285 251.195)" fill="#0e2549"/><path d="M762.08,993.011a.7.7,0,0,1-.154-.016c-.7-.15-4.209-1-4.571-2.961-.277-1.5-.118-1.9,1.817-6.869.423-1.086.934-2.4,1.55-4a.731.731,0,1,1,1.365.525c-.617,1.6-1.129,2.918-1.553,4-1.888,4.845-1.937,5.015-1.741,6.073.133.719,2.084,1.506,3.441,1.8a.731.731,0,0,1-.153,1.446Z" transform="translate(-668.954 -914.359)" fill="#0e2549"/><path d="M764.528,1023.9c.763,1.125-3.126,4.979-7.644,4.78-7.372-.325-9.657-5.378-7.875-5.019a22.241,22.241,0,0,0,7.788,1.769C761.559,1025.543,764.016,1023.142,764.528,1023.9Z" transform="translate(-663.961 -939.808)" fill="#0e2549"/><path d="M715.05,900.236s33.634,9.718,48.845-2.113-8.959-12.316-23.493-10.837S705.48,891.711,715.05,900.236Z" transform="translate(-643.66 -862.256)" fill="#0e2549"/><path d="M712.09,900.135s-22.78-5.52-15.75,24.381c1.2,5.124.977,7.445,1.567,3.278a29.348,29.348,0,0,1,13.456-20.806C713.369,905.684,712.09,900.135,712.09,900.135Z" transform="translate(-633.698 -869.642)" fill="#0e2549"/><rect width="125.008" height="15.147" transform="translate(26.802 303.555)" fill="#0e2549"/><rect width="2.928" height="18.433" transform="translate(41.982 301.615)" fill="#0e2549"/><rect width="2.928" height="18.433" transform="translate(66.324 301.912)" fill="#0e2549"/><rect width="2.928" height="18.433" transform="translate(115.713 301.912)" fill="#0e2549"/><rect width="2.928" height="18.433" transform="translate(141.404 302.248)" fill="#e2474b"/><rect width="28.191" height="19.047" transform="translate(79.064 301.922)" fill="#f9e8f2"/><rect width="21.577" height="13.228" transform="translate(82.534 304.85)" fill="#0e2549"/><path d="M755.419,865.561v6.77H685.544v-6.77a34.938,34.938,0,0,1,69.875,0Z" transform="translate(-628.348 -830.595)" fill="#02afbe"/><path d="M762.048,835.821l-9.056,36.267-.161.641H736.277l-.178-.641-10.3-37.056a34.97,34.97,0,0,1,36.254.789Z" transform="translate(-651.141 -830.352)" fill="#88dbe2"/><rect width="79.048" height="6.462" rx="3.231" transform="translate(52.61 39.148)" fill="#02afbe"/></g><g transform="translate(408.061 570.662)"><path d="M998.112,1523.184c-19.925-1.375-38.978-1.986-58.208-.408l.646-7.1,1.709-18.784-6.059,23.889v0l-.6,2.385c-.52.048-1.045.1-1.566.16l-8.973,10.535-9.733-7.807a227.706,227.706,0,0,0-34.163,9.229q-4.144,1.464-8.362,3.131s-2.216.516-6.28,1.292c4.328-13.571,8.249-26.018,11.563-36.753q.865-2.8,1.67-5.434.839-2.732,1.609-5.282v0c1.1-3.621,2.091-6.965,2.975-9.984,1.631-5.573,2.88-10.071,3.678-13.276,1.8-7.221,3.6-13.228,5.369-18.216.377-1.071.75-2.09,1.123-3.071,0,0,0,0,0-.009a75.589,75.589,0,0,1,6.475-13.467c5.083-8.015,8.713-8.063,8.8-8.063l.781.009,66,.642a8.022,8.022,0,0,1,.833.551c.33.243.742.568,1.232,1a26.355,26.355,0,0,1,2.555,2.624,48.015,48.015,0,0,1,6.887,11.06c.594,1.279,1.188,2.654,1.774,4.137a109.358,109.358,0,0,1,5.647,20.718c.23,1.284.447,2.941.646,4.949v.013c.113,1.136.221,2.385.321,3.739.729,9.559,1.232,24.379,1.561,42.473C998.056,1519.745,998.082,1521.449,998.112,1523.184Z" transform="translate(-863.889 -1198.762)" fill="#0e2549"/><path d="M1008.834,944.73a67.657,67.657,0,0,0-29.263,15.982c-13.884,12.856-12.889,13.521-11.6,24.577s.281,14.12-8.516,17.316a13.013,13.013,0,0,0-7.531,6.379c-2.057,3.6-1.194,16.455-1.194,16.455l94.6-.722s5.354-12.142,3.26-17.866c-3.822-10.444-12.68-11.869-9.347-22.127C1041.026,979.228,1045.748,947.092,1008.834,944.73Z" transform="translate(-911.472 -926.139)" fill="#0e2549"/><path d="M941.864,1474.643a.651.651,0,0,1-.075-1.3l26.685-3.117a.651.651,0,1,1,.151,1.292l-26.685,3.117A.645.645,0,0,1,941.864,1474.643Z" transform="translate(-906.187 -1223.721)" fill="#a1c5e2"/><path d="M965.458,1517.1l-21.875,25.568-4.653,5.434v0l-2.319,2.71-9.6,11.215-10.409-8.311-24.092-19.234-12.264-9.792-1.688-1.348-10.525-8.4-4.24-3.385-1.215-.969,3.344-4.054h0l1.146-1.39,3.446-4.178,3.131-3.79,1-1.214.436-.531,5.6-6.777,12.45-15.088,1.141-1.381,4.574-5.54.886-1.075,6.842,5.365,4.935,3.869,32.136,25.2,2.649,2.078Z" transform="translate(-861.657 -1221.085)" fill="#fff"/><path d="M925.895,1561.753l-65.442-52.247,37.983-46.02,66.752,52.34Zm-63.6-52.439,63.426,50.637,37.594-43.938-64.685-50.719Z" transform="translate(-860.453 -1219.905)" fill="#0e2549"/><path d="M893.724,1469.546c-3.778,14.986-6.1,23.7-5.691,26.047.578,3.3,6.436,14.2,6.477,16.835.024,1.6-6.54-3.985-6.863-4.161l-1.18,2.694s-1.857,1.057-3.028.16c-1-.768-1.109-2.69-2.126-3.236a15.5,15.5,0,0,1-2.938-.611c-.862-.464-1.091-2.5-1.617-3.233-.387-.54-2.349-.268-3.009-.991-1.056-1.158-.117-2.807-.849-3.645-.69-.79-2.274.093-3.417-1.345-1.118-1.406,6.79-8.188,7.159-10.089,1.3-6.664,1.5-39.643,9.03-50.4S899.875,1445.153,893.724,1469.546Z" transform="translate(-865.505 -1203.446)" fill="#fff"/><path d="M893.38,1512.51c-.816,0-2.309-.876-6.259-4.019l-.072-.057-.932,2.128-.187.107c-.091.052-2.248,1.257-3.745.111a4.5,4.5,0,0,1-1.228-1.887,3.257,3.257,0,0,0-.745-1.251c-.072-.011-.177-.025-.3-.042a9.683,9.683,0,0,1-2.7-.609,3.921,3.921,0,0,1-1.4-2.33,5.768,5.768,0,0,0-.421-1.064,4.167,4.167,0,0,0-.867-.178,3.443,3.443,0,0,1-2.115-.787,3.382,3.382,0,0,1-.712-2.575,1.868,1.868,0,0,0-.146-1.08c-.117-.134-.443-.158-.82-.186a3.271,3.271,0,0,1-2.617-1.182c-.936-1.177.767-3.174,3.857-6.6,1.358-1.506,3.049-3.381,3.173-4.019.324-1.664.582-5.063.909-9.367,1-13.191,2.518-33.125,8.227-41.285,2.624-3.753,4.881-3.76,6.312-3.106,5.041,2.3,7.474,17.5,2.905,35.615l-1.144,4.524c-2.939,11.615-4.881,19.29-4.538,21.252.258,1.472,1.711,4.736,3.117,7.893,1.721,3.866,3.346,7.517,3.37,9.044a.9.9,0,0,1-.488.851A.957.957,0,0,1,893.38,1512.51Zm-6.9-6.011.623.339a8.444,8.444,0,0,1,.833.635,34.894,34.894,0,0,0,5,3.58,58.819,58.819,0,0,0-3.187-8.006c-1.5-3.378-2.924-6.569-3.21-8.2-.391-2.236,1.367-9.183,4.558-21.8l1.143-4.524c4.639-18.4,1.854-32.268-2.185-34.114-1.778-.813-3.54,1-4.7,2.668-5.5,7.868-7.063,28.382-8,40.638-.33,4.346-.591,7.779-.929,9.517-.184.945-1.444,2.379-3.484,4.642-1.423,1.578-3.793,4.206-3.774,4.957a2.057,2.057,0,0,0,1.664.656,2.281,2.281,0,0,1,1.7.628,2.716,2.716,0,0,1,.467,1.966,2.227,2.227,0,0,0,.373,1.668,2.97,2.97,0,0,0,1.338.376,2.417,2.417,0,0,1,1.719.675,5.645,5.645,0,0,1,.62,1.444c.19.571.476,1.433.777,1.595a10.962,10.962,0,0,0,2.26.466,1.9,1.9,0,0,1,.678.143,3.59,3.59,0,0,1,1.389,1.923,3.567,3.567,0,0,0,.825,1.369c.633.486,1.707.075,2.131-.12Z" transform="translate(-864.646 -1202.587)" fill="#0e2549"/><path d="M1127.633,1355.527c-.467.433.448,1.213-14.615,21.018-9.253,12.167-14.557,19.341-16.624,20.471-4.669,2.552-11.024,6.914-10.137,7.289l23.683,3.717s-1.867-5.443-.625-6.9c4.352-5.113,31.037-36.583,34.711-49.042S1127.633,1355.527,1127.633,1355.527Z" transform="translate(-988.276 -1154.117)" fill="#fff"/><path d="M1110.054,1408.006l-24.9-3.928a.776.776,0,0,1-.479-.678c-.019-.37-.047-.93,3.729-3.552,2.077-1.443,4.694-3.063,6.829-4.23,1.728-.944,6.463-7.182,13.631-16.625l2.787-3.669c8.22-10.809,13.042-17.719,14.33-20.538a1.564,1.564,0,0,1,.36-.564l.038-.033c2.194-1.74,13.318-10.3,16.838-7.923,1.183.8,1.373,2.488.583,5.169-3.5,11.856-27.55,40.716-34.839,49.28-.683.8.041,4.214.745,6.268Zm-23.625-5.026,21.722,3.41c-.53-1.81-1.307-5.2-.184-6.518,7.248-8.513,31.158-37.194,34.582-48.8.584-1.979.561-3.3-.063-3.723-2.11-1.424-10.45,4.027-15.251,7.824-.022.039-.042.089-.074.158-1.328,2.905-6.2,9.9-14.477,20.784l-2.787,3.668c-7.784,10.254-12.072,15.9-14.043,16.98A64.225,64.225,0,0,0,1086.43,1402.981Z" transform="translate(-987.425 -1153.292)" fill="#0e2549"/><path d="M1029.006,1074.007s-1.326,32.605-.082,34.322c4.261,5.871,16.884,11.038,19.766,11.814s-47.114,19.845-47.114,19.845L973.2,1121.794l12.885-4.683s8.513-1.145,11.931-4.676,5.08-36.7,5.08-36.7Z" transform="translate(-924.303 -999.347)" fill="#fff"/><path d="M999.6,1139.8l-29.755-19.081,14.256-5.165c.083-.011,8.33-1.158,11.55-4.484,2.383-2.461,4.234-23.046,4.9-36.283l.029-.578,27.207-1.812-.029.724c-.5,12.283-.993,32.357-.19,33.938,3.983,5.485,16.093,10.655,19.393,11.543a.761.761,0,0,1,.6.7c.036.714.077,1.523-23.993,11.143-11.689,4.672-23.541,9.2-23.659,9.24Zm-26.838-18.756,26.988,17.306c16.144-6.163,41.223-16.086,45.89-18.8-4.093-1.391-15.106-6.193-19.142-11.755-1.241-1.71-.408-25.562-.071-34.006l-24.607,1.64c-.282,5.359-1.894,33.1-5.232,36.544-3.405,3.518-11.346,4.732-12.241,4.858Z" transform="translate(-922.399 -998.437)" fill="#0e2549"/><path d="M1048.763,1030.146c3.831-2.542,10.555-7.685,10.735-12.7s-5.544-4.432-7.292-3.639c-1.163.528.024-24.573.024-24.573l-38.841-2.08s-5.755,21.581-4.365,35.439c1.395,13.916,7.775,17.516,17.9,17.969A23.679,23.679,0,0,0,1039,1038.1Z" transform="translate(-944.465 -950.162)" fill="#fff"/><path d="M1027.357,1040.353q-.648,0-1.307-.03c-5.835-.261-9.73-1.525-12.628-4.1-3.281-2.915-5.208-7.643-5.891-14.454-1.385-13.817,4.326-35.455,4.384-35.671l.136-.511,40.014,2.143-.03.646c-.476,10.061-.735,21.245-.349,23.732,1.408-.428,4-.719,5.833.508a4.253,4.253,0,0,1,1.784,3.965c-.19,5.265-6.99,10.544-11.026,13.222a.651.651,0,1,1-.719-1.084c3.828-2.54,10.276-7.5,10.444-12.185a3,3,0,0,0-1.208-2.837c-1.5-1-4.119-.66-5.165-.185a.728.728,0,0,1-.717-.062c-.438-.3-.934-.634-.615-13.1.124-4.844.331-9.683.408-11.391l-37.664-2.016c-.849,3.341-5.459,22.288-4.215,34.7,1.393,13.894,7.646,16.952,17.283,17.384a23.263,23.263,0,0,0,11.75-2.383.651.651,0,0,1,.592,1.159A24.138,24.138,0,0,1,1027.357,1040.353Z" transform="translate(-943.62 -949.276)" fill="#0e2549"/><path d="M995.981,1175.843c-3.192-2.822-15.846-6.267-15.846-6.267l-20.241,4.4-7.145-2.845-9.805-.6-16.864-2.19s-18.718,5.471-21.756,11.625c-10.451,21.174-35.668,154.277-35.668,154.277l22.578,2.689,18.3-81.3L911,1280.158l67.482,2.652,5.074-54.3,13.731,20.356-20,38.425,13.775,12.891,41.79-56.76S1010.4,1188.591,995.981,1175.843Z" transform="translate(-865.098 -1052.769)" fill="#fff"/><path d="M890.781,1336.8l-23.737-2.826.118-.622c1.031-5.438,25.352-133.425,35.72-154.429,3.116-6.314,21.345-11.7,22.119-11.93l.119-.035.123.016,16.864,2.19,9.86.6,7.065,2.814,20.206-4.4.14.038c.522.142,12.825,3.515,16.082,6.395,14.355,12.694,36.1,65.552,37.021,67.8l.126.307-.2.267-42.184,57.3-14.588-13.653,2.085-4.006-.182-.007-68.016-2.673-1.249-20.891Zm-22.339-3.85,21.42,2.551,19.1-84.859,1.683,28.163,66.388,2.609,5.175-55.391,14.852,22.018L977.1,1286.378l12.961,12.131,41.2-55.957c-1.836-4.433-22.988-55.032-36.583-67.053h0c-2.878-2.545-14.092-5.717-15.472-6.1l-20.275,4.411-7.225-2.877-9.71-.6-16.779-2.177c-1.583.476-18.508,5.679-21.274,11.284C894.01,1199.565,870.332,1323.038,868.442,1332.949Zm114.631-103.526-4.888,52.312,17.5-33.617Z" transform="translate(-864.186 -1051.983)" fill="#0e2549"/><path d="M1027.245,1040.963a1.1,1.1,0,0,1-.143-.009,1.084,1.084,0,0,1-.933-1.217l.166-1.262a1.084,1.084,0,0,1,2.15.283l-.166,1.263A1.085,1.085,0,0,1,1027.245,1040.963Z" transform="translate(-954.291 -978.692)" fill="#0e2549"/><path d="M1067.055,1042.7a1.055,1.055,0,0,1-.143-.01,1.085,1.085,0,0,1-.933-1.217l.167-1.262a1.084,1.084,0,0,1,2.15.284l-.166,1.262A1.084,1.084,0,0,1,1067.055,1042.7Z" transform="translate(-976.835 -979.678)" fill="#0e2549"/><path d="M1071.636,1030.845a.644.644,0,0,1-.343-.1,9.352,9.352,0,0,0-6.62-1.078.65.65,0,0,1-.324-1.26,10.571,10.571,0,0,1,7.63,1.232.651.651,0,0,1-.344,1.2Z" transform="translate(-975.641 -973.389)" fill="#0e2549"/><path d="M1029.037,1043.517c-1.088,0-4.726-1.064-5.332-1.876a.825.825,0,0,1-.025-1.013,17.479,17.479,0,0,0,3.327-6.566,15.035,15.035,0,0,0,.795-4.752c-.065-.395-.164-.454-.824-.682-.1-.036-.21-.073-.321-.114-1.693-.629-5.267-.043-6.5.236a.651.651,0,0,1-.287-1.269c.2-.044,4.838-1.079,7.242-.187.1.037.2.072.293.1,1.946.673,2.272,1.619.863,6.994a18.305,18.305,0,0,1-3.267,6.637,16.688,16.688,0,0,0,3.885,1.2.661.661,0,0,1,.145-.025.653.653,0,0,1,.687.613.7.7,0,0,1-.447.669A.724.724,0,0,1,1029.037,1043.517Z" transform="translate(-950.441 -972.69)" fill="#0e2549"/><path d="M1103.46,1480.893a.691.691,0,0,1-.1-.008l-32.531-5.049a.65.65,0,1,1,.2-1.285l32.531,5.049a.651.651,0,0,1-.1,1.294Z" transform="translate(-979.275 -1226.167)" fill="#a1c5e2"/><path d="M1093.785,1162.055l-12.431-10.416-26.818,9.812,8.12,10.416Z" transform="translate(-970.36 -1043.309)" fill="#fff"/><path d="M987.185,1160.772l9.252-9.133,19.959,9.812-7.976,9.057Z" transform="translate(-932.22 -1043.309)" fill="#fff"/><path d="M1022.932,1171.646l32.774-10.331-13.692-11.472-27.037,9.892-19.993-9.829-10.159,10.029,22.412,10.277,6.939-7.88c-1.259,12.385-7.895,79.8-6.13,107.393a.685.685,0,0,0,.683.641h.044a.685.685,0,0,0,.64-.727c-1.771-27.7,4.97-95.829,6.153-107.44Zm18.81-20.245,11.169,9.36-29.484,9.293-7.25-9.3Zm-34.811,17.37-20.058-9.2,8.343-8.237,18.889,9.286Z" transform="translate(-930.884 -1042.292)" fill="#0e2549"/><path d="M1027.73,1071.234c-.633.7,2.636,3.536,5.309,3.538,6.719.006,8.8-4.771,7.285-4.02a16.027,16.027,0,0,1-7.285,1.558C1028.776,1072,1028.449,1070.439,1027.73,1071.234Z" transform="translate(-955.135 -997.459)" fill="#0e2549"/><path d="M1015.211,986.2s36.341,8.586,39.881,26.692a9.805,9.805,0,0,1,3.879-.125,4.711,4.711,0,0,1,2.547,1.359l3.269-28.658Z" transform="translate(-948.091 -949.206)" fill="#0e2549"/><path d="M1070.351,937.073v6.771h-69.875v-6.771a34.938,34.938,0,0,1,69.875,0Z" transform="translate(-939.746 -902.108)" fill="#02afbe"/><path d="M1060.551,907.334s-27.744,9.5-35.753,36.7c-.8,2.722-11.923,2.776-12.577-.867-3.47-19.316,12.077-36.624,12.077-36.624a34.97,34.97,0,0,1,36.254.789Z" transform="translate(-946.111 -901.865)" fill="#88dbe2"/><rect width="79.048" height="6.462" rx="3.231" transform="translate(52.384 39.685)" fill="#02afbe"/><path d="M962.128,1309.175h-.014a.591.591,0,0,1-.576-.605c.51-21.2,5.807-46,5.86-46.251a.591.591,0,0,1,1.155.249c-.053.247-5.327,24.947-5.834,46.031A.591.591,0,0,1,962.128,1309.175Z" transform="translate(-917.696 -1105.722)" fill="#0e2549"/></g></g></svg>