<svg xmlns="http://www.w3.org/2000/svg" width="275.14" height="90.804" viewBox="0 0 275.14 90.804"><g transform="translate(-124.635 -44.712)"><path d="M163.322,67.085l-2.167,4.234-9.918,19.464-9.918-19.464-2.167-4.234h4.739l2.167,4.234,5.179,10.155,5.181-10.155,2.167-4.234Z" transform="translate(19.457 29.987)" fill="#005861"/><path d="M155.675,73.483v2.2H170.91v4.231H155.675v4.468a2.182,2.182,0,0,0,2.167,2.167h17.3v4.234h-17.3a6.389,6.389,0,0,1-6.366-6.4v-10.9a6.387,6.387,0,0,1,6.366-6.4h17.3v4.231h-17.3a2.182,2.182,0,0,0-2.167,2.167" transform="translate(35.975 29.987)" fill="#005861"/><path d="M176.585,67.12a11.815,11.815,0,0,1,9.038,19.464c-.2.239-.438.475-.676.711a11.641,11.641,0,0,1-8.327,3.487H164.771v-23.7Zm-7.618,19.464h7.618a7.617,7.617,0,1,0,0-15.233h-7.618Z" transform="translate(53.794 29.987)" fill="#005861"/><path d="M200.414,90.783h-4.739l-2.167-4.234L188.329,76.4,183.15,86.549l-2.167,4.234h-4.739l2.167-4.234,9.918-19.464,9.918,19.464Z" transform="translate(69.171 29.986)" fill="#005861"/><path d="M212.871,67.12v23.7l-4.231-3.251L193.407,75.821v15h-4.231V67.188l4.231,3.251L208.64,82.184v-15.1Z" transform="translate(86.504 29.986)" fill="#005861"/><path d="M220.645,73.654v-.136a2.182,2.182,0,0,0-2.167-2.165h-9.614a2.182,2.182,0,0,0-2.167,2.165v.136a2.184,2.184,0,0,0,2.167,2.167h8.53a7.432,7.432,0,0,1,5.518,2.436c.1.1.169.2.272.307a7.478,7.478,0,0,1-5.79,12.219H209.98A7.484,7.484,0,0,1,202.5,83.3h4.234a3.249,3.249,0,0,0,3.248,3.251h7.414a3.251,3.251,0,1,0,0-6.5h-8.53a6.335,6.335,0,0,1-4.435-1.793,5.817,5.817,0,0,1-.812-1.016,6.282,6.282,0,0,1-1.119-3.623v-.133a6.389,6.389,0,0,1,6.366-6.4h9.614a6.419,6.419,0,0,1,6.4,6.4v.133Z" transform="translate(104.36 29.987)" fill="#005861"/><path d="M238.939,67.085v23.7h-4.231V79.915H219.474V90.783h-4.231v-23.7h4.231v8.6h15.233v-8.6Z" transform="translate(121.443 29.987)" fill="#005861"/><path d="M186.039,50.329a5.619,5.619,0,1,1,5.617,5.619,5.615,5.615,0,0,1-5.617-5.619" transform="translate(82.3 0)" fill="#02afbe"/><path d="M171.867,50.329a5.619,5.619,0,1,1,5.617,5.619,5.617,5.617,0,0,1-5.617-5.619" transform="translate(63.305 0)" fill="#02afbe"/><path d="M178.953,64.249a5.619,5.619,0,1,1,5.617,5.619,5.619,5.619,0,0,1-5.617-5.619" transform="translate(72.803 18.654)" fill="#02afbe"/><path d="M174.767,57.306a5.652,5.652,0,1,1,5.652,5.652,5.654,5.654,0,0,1-5.652-5.652" transform="translate(67.192 9.304)" fill="#02afbe"/><path d="M183.029,57.306a5.652,5.652,0,1,1,5.652,5.652,5.653,5.653,0,0,1-5.652-5.652" transform="translate(78.266 9.304)" fill="#02afbe"/><path d="M399.775,82.491H124.635V84.88h275.14" transform="translate(0 50.635)" fill="none"/><path d="M399.775,82.491H124.635V84.88h275.14" transform="translate(0 50.635)" fill="none"/></g></svg>