<svg id="Group_269" data-name="Group 269" xmlns="http://www.w3.org/2000/svg" xmlns:xlink="http://www.w3.org/1999/xlink" width="485.599" height="337.765" viewBox="0 0 485.599 337.765">
  <defs>
    <linearGradient id="linear-gradient" x1="0.124" y1="0.803" x2="1.126" y2="0.803" gradientUnits="objectBoundingBox">
      <stop offset="0" stop-color="#fbd15b"/>
      <stop offset="1" stop-color="#f9c237"/>
    </linearGradient>
    <linearGradient id="linear-gradient-2" x1="0" y1="0.5" x2="1" y2="0.5" xlink:href="#linear-gradient"/>
    <linearGradient id="linear-gradient-5" x1="-5.805" y1="-6.965" x2="-4.798" y2="-6.965" xlink:href="#linear-gradient"/>
  </defs>
  <g id="Group_201" data-name="Group 201" transform="translate(0 88.539)">
    <g id="Group_167" data-name="Group 167">
      <path id="Path_927" data-name="Path 927" d="M37.236,390.675H488.371c24.679-41.241,14.834-92.342-18.455-117.393-25.817-19.43-62.88-21.042-93.914-4.193a28.009,28.009,0,0,0-46.958-24.318c-1.9-4.31-13.878-30.3-42.764-39.41-26.184-8.261-55.848.625-75.468,22.64a48.941,48.941,0,0,0-77.145,36.9c-30-12.6-63.705-8.985-86.367,10.062C16.664,300.706,10.089,351.389,37.236,390.675Z" transform="translate(-20.153 -162.405)" fill="rgba(82,188,197,0.37)"/>
      <circle id="Ellipse_22" data-name="Ellipse 22" cx="70.725" cy="70.725" r="70.725" transform="translate(275.159 104.065) rotate(-45)" fill="rgba(82,188,197,0.37)"/>
      <circle id="Ellipse_23" data-name="Ellipse 23" cx="24.403" cy="24.403" r="24.403" transform="translate(416.576 107.287) rotate(-45)" fill="rgba(82,188,197,0.37)"/>
      <ellipse id="Ellipse_24" data-name="Ellipse 24" cx="16.441" cy="16.441" rx="16.441" ry="16.441" transform="translate(243.629)" fill="rgba(82,188,197,0.37)"/>
      <ellipse id="Ellipse_25" data-name="Ellipse 25" cx="8.221" cy="8.221" rx="8.221" ry="8.221" transform="translate(121.315 7.642)" fill="rgba(82,188,197,0.37)"/>
      <ellipse id="Ellipse_26" data-name="Ellipse 26" cx="16.441" cy="16.441" rx="16.441" ry="16.441" transform="translate(28.48 79.801) rotate(-80.826)" fill="rgba(82,188,197,0.37)"/>
      <ellipse id="Ellipse_27" data-name="Ellipse 27" cx="24.403" cy="24.403" rx="24.403" ry="24.403" transform="matrix(0.159, -0.987, 0.987, 0.159, 285.324, 88.654)" fill="rgba(82,188,197,0.37)"/>
      <ellipse id="Ellipse_28" data-name="Ellipse 28" cx="82.818" cy="82.818" rx="82.818" ry="82.818" transform="matrix(0.223, -0.975, 0.975, 0.223, 59.119, 170.115)" fill="rgba(82,188,197,0.37)"/>
    </g>
    <g id="Group_200" data-name="Group 200" transform="translate(69.092 174.402)">
      <path id="Path_964" data-name="Path 964" d="M248.01,376.145c-7.064-1.346-12.162,3.959-12.5,4.295-.311-1.086-3.39-11.1-13.379-14.647a21.231,21.231,0,0,0-13.793,0,9.855,9.855,0,0,0-12.085-12.939,19.487,19.487,0,0,0-35.35,6.03,9.8,9.8,0,0,0-17.7,2.587,18.059,18.059,0,0,0-30.456,7.635,18.39,18.39,0,0,0-16.86-3.255,18.664,18.664,0,0,0-12.388,21.5H258.8A13.835,13.835,0,0,0,248.01,376.145Z" transform="translate(-83.12 -323.033)" fill="rgba(82,188,197,0.37)"/>
      <path id="Path_965" data-name="Path 965" d="M439.018,372.936c-10.148-1.933-17.47,5.687-17.953,6.17-.447-1.561-4.87-15.946-19.217-21.038a30.508,30.508,0,0,0-19.811,0,14.155,14.155,0,0,0-17.358-18.585,27.99,27.99,0,0,0-50.774,8.661,14.074,14.074,0,0,0-25.424,3.716,25.939,25.939,0,0,0-43.745,10.966,26.418,26.418,0,0,0-24.215-4.676c-12.6,3.968-20.54,17.344-17.795,30.879H454.517A19.873,19.873,0,0,0,439.018,372.936Z" transform="translate(-71.537 -324.713)" fill="rgba(82,188,197,0.37)"/>
      <g id="Group_199" data-name="Group 199" transform="translate(90.635)">
        <path id="Path_966" data-name="Path 966" d="M177.027,371a18.183,18.183,0,0,1,11.937-.636A28.607,28.607,0,0,1,199.9,349.115c8.814-6.635,21.472-7.186,32.068-1.433a9.564,9.564,0,0,1,16.035-8.3c.651-1.471,4.738-10.345,14.6-13.456,8.943-2.821,19.072.213,25.771,7.729a16.711,16.711,0,0,1,26.341,12.6c10.244-4.3,21.755-3.067,29.493,3.436,6.061,5.1,9.34,13.052,9.242,21.451A18.745,18.745,0,0,1,364.434,389.2h-198.7A18.733,18.733,0,0,1,177.027,371Z" transform="translate(-165.719 -324.884)" fill="rgba(82,188,197,0.37)"/>
        <path id="Path_967" data-name="Path 967" d="M178.731,386.66H282.122a12.688,12.688,0,0,0-5.146-13.833c-4.937-3.109-10.385-1.09-11.01-.847a11.738,11.738,0,0,0-16.093-14.963c-.675-.654-8.214-7.708-18.915-5.644-10.8,2.082-15.163,11.588-15.525,12.42a9.224,9.224,0,0,0-17.222,5.082,13.808,13.808,0,0,0-19.48,17.786Z" transform="translate(-164.569 -322.343)" fill="rgba(82,188,197,0.37)"/>
        <path id="Path_968" data-name="Path 968" d="M228.851,383.179V363.423a.977.977,0,0,0-1.953,0v19.757a.977.977,0,0,0,1.953,0" transform="translate(-159.767 -321.229)" fill="rgba(82,188,197,0.37)"/>
        <path id="Path_969" data-name="Path 969" d="M230.459,377.5,250.841,367.2a.977.977,0,0,0-.881-1.744l-20.382,10.295a.977.977,0,1,0,.881,1.744" transform="translate(-159.558 -320.947)" fill="rgba(82,188,197,0.37)"/>
        <path id="Path_970" data-name="Path 970" d="M223.4,376.61,208.343,364.38a.977.977,0,1,0-1.231,1.516l15.053,12.229a.977.977,0,0,0,1.231-1.516" transform="translate(-161.727 -321.063)" fill="rgba(82,188,197,0.37)"/>
        <path id="Path_971" data-name="Path 971" d="M267.931,382.367v-39.52a.977.977,0,1,0-1.953,0v39.52a.977.977,0,0,0,1.953,0" transform="translate(-155.965 -323.231)" fill="rgba(82,188,197,0.37)"/>
        <path id="Path_972" data-name="Path 972" d="M268.1,369.953l37.394-11.6a.977.977,0,0,0-.579-1.865l-37.393,11.6a.977.977,0,0,0,.578,1.867" transform="translate(-155.882 -321.813)" fill="rgba(82,188,197,0.37)"/>
        <path id="Path_973" data-name="Path 973" d="M286.968,362.875l3.293-11.526a.977.977,0,0,0-1.879-.537l-3.292,11.526a.976.976,0,1,0,1.877.537" transform="translate(-154.109 -322.43)" fill="rgba(82,188,197,0.37)"/>
        <path id="Path_974" data-name="Path 974" d="M265.233,352.958l-8.979-9.166a.977.977,0,0,0-1.4,1.367l8.979,9.166a.977.977,0,0,0,1.4-1.367" transform="translate(-157.074 -323.073)" fill="rgba(82,188,197,0.37)"/>
      </g>
    </g>
  </g>
  <g id="Group_268" data-name="Group 268" transform="translate(7.671 0)">
    <g id="Group_227" data-name="Group 227" transform="translate(147.354)">
      <g id="Group_203" data-name="Group 203" transform="translate(95.039 127.751)">
        <path id="Path_975" data-name="Path 975" d="M248.649,221.449c-5.972-12.613,34.118-18.474,44.458-16.818s-.2,6.738-16.384,12.62S251,226.412,248.649,221.449Z" transform="translate(-248.046 -201.419)" fill="#fff"/>
        <g id="Group_202" data-name="Group 202" transform="translate(26.246)">
          <path id="Path_976" data-name="Path 976" d="M272.277,212.156c-4.062-10.769,32.8-10.289,41.967-7.655s-.894,5.321-16.145,7.915S273.875,216.393,272.277,212.156Z" transform="translate(-271.965 -201.559)" fill="#fff"/>
          <path id="Path_977" data-name="Path 977" d="M310.066,206.121c-.6-4.252,6.85-4.462,9.395-4.44,4.146.037,8.963,3.217,8.977,4.861s-9.416,1-9.727,1.377,4.246,1.134,4.1,2.678-6.306,1.323-8.716.279S310.442,208.785,310.066,206.121Z" transform="translate(-268.262 -201.68)" fill="#fff"/>
        </g>
        <path id="Path_978" data-name="Path 978" d="M257.243,208.984l13.966-3.269A14.778,14.778,0,0,1,275.551,212a28.9,28.9,0,0,1,1.386,7.483s-16.26,3.418-19.771,7.482" transform="translate(-247.159 -201.287)" fill="#fff"/>
      </g>
      <g id="Group_216" data-name="Group 216" transform="translate(64.207 81.792)">
        <g id="Group_206" data-name="Group 206" transform="translate(50.602 108.915)">
          <g id="Group_205" data-name="Group 205" transform="translate(0 60.938)">
            <path id="Path_979" data-name="Path 979" d="M280.048,376.433c3.109.035,5.64,6.65,4.483,9.991s-16.718,6.023-18.3,3.52S275.077,376.376,280.048,376.433Z" transform="translate(-266.064 -308.574)" fill="#ffc8af"/>
            <g id="Group_204" data-name="Group 204">
              <path id="Path_980" data-name="Path 980" d="M285.3,314.985c-17.6-5.757-14.5,53.105-9.671,67.58s8.511-1.791,11.723-26.338S292.227,317.25,285.3,314.985Z" transform="translate(-265.499 -314.59)" fill="#ffc8af"/>
              <path id="Path_981" data-name="Path 981" d="M274.706,378.553c6.324,2.382,8.48.123,8.5.1.1.17.2.345.3.526l.031.053c1.128,2.2,1.644,5.11.993,6.989-1.155,3.342-16.718,6.023-18.3,3.52C265.1,387.968,269.99,381.926,274.706,378.553Z" transform="translate(-266.064 -308.367)" fill="#112b46"/>
            </g>
          </g>
          <path id="Path_982" data-name="Path 982" d="M291.769,259.3c-26.351-4.473-18.744,53.271-14.337,67.878s13.356-2.612,17.275-27.056S303.767,261.336,291.769,259.3Z" transform="translate(-265.397 -259.055)" fill="#ffc8af"/>
        </g>
        <g id="Group_209" data-name="Group 209" transform="translate(86.822 108.915)">
          <g id="Group_208" data-name="Group 208" transform="translate(9.789 60.581)">
            <path id="Path_983" data-name="Path 983" d="M318.7,376.433c-3.11.035-5.641,6.65-4.485,9.991s16.718,6.023,18.3,3.52S323.674,376.376,318.7,376.433Z" transform="translate(-307.416 -308.216)" fill="#ffc8af"/>
            <g id="Group_207" data-name="Group 207">
              <path id="Path_984" data-name="Path 984" d="M312.647,314.693c17.516-6.008,15.256,52.892,10.638,67.435s-8.536-1.669-12.1-26.167S305.756,317.058,312.647,314.693Z" transform="translate(-307.994 -314.264)" fill="#ffc8af"/>
              <path id="Path_985" data-name="Path 985" d="M324.046,378.553c-6.324,2.382-8.481.123-8.505.1-.1.17-.2.345-.3.526l-.03.053c-1.129,2.2-1.644,5.11-.994,6.989,1.157,3.342,16.718,6.023,18.3,3.52C333.647,387.968,328.763,381.926,324.046,378.553Z" transform="translate(-307.416 -308.01)" fill="#112b46"/>
            </g>
          </g>
          <path id="Path_986" data-name="Path 986" d="M306.538,259.3c26.35-4.473,18.743,53.271,14.337,67.878s-13.356-2.612-17.275-27.056S294.54,261.336,306.538,259.3Z" transform="translate(-299.073 -259.055)" fill="#ffc8af"/>
        </g>
        <path id="Path_987" data-name="Path 987" d="M324.68,265.4c-1.626-17.851.549-56.9-8.994-59.249a64.865,64.865,0,0,0-31.262,0c-9.543,2.354-7.368,41.4-8.993,59.249-1.437,15.775,8.344,14.065,24.624,14.065S326.116,281.172,324.68,265.4Z" transform="translate(-214.564 -155.472)" fill="#ffc8af"/>
        <path id="Path_988" data-name="Path 988" d="M304.15,198.466l-5.778.78-5.778-.78v6.744a26.336,26.336,0,0,0,5.777,1.467h0a26.322,26.322,0,0,0,5.776-1.467Z" transform="translate(-212.881 -156.034)" fill="#ffc8af"/>
        <ellipse id="Ellipse_29" data-name="Ellipse 29" cx="5.026" cy="2.883" rx="5.026" ry="2.883" transform="translate(80.49 43.851)" fill="#f4b49a"/>
        <g id="Group_210" data-name="Group 210" transform="translate(27.037 50.186)">
          <path id="Path_989" data-name="Path 989" d="M285.568,208.514c-6.663-12.262-35.042,16.653-39.8,25.98s5.559,3.814,19.854-5.786S288.191,213.339,285.568,208.514Z" transform="translate(-244.588 -205.532)" fill="#ffc8af"/>
        </g>
        <g id="Group_211" data-name="Group 211" transform="translate(89.664)">
          <path id="Path_990" data-name="Path 990" d="M301.832,214.718c-3.1-13.607,37.307-10.655,47.045-6.8s-1.654,6.537-18.726,8.777S303.053,220.072,301.832,214.718Z" transform="translate(-301.663 -155.428)" fill="#ffc8af"/>
          <path id="Path_991" data-name="Path 991" d="M347.067,215.4c11.373-1.764-7.187-33.612-13.995-40.3s-4.192,3.4,1.058,17.949S342.591,216.1,347.067,215.4Z" transform="translate(-299.005 -158.512)" fill="#ffc8af"/>
          <path id="Path_992" data-name="Path 992" d="M329.075,177.12c3.751,2.09,6.627-4.789,7.52-7.171,1.456-3.881.222-9.52-1.308-10.125s-4.319,8.427-4.782,8.582.469-4.369-1.026-4.789-3.5,5.408-3.393,8.033S326.724,175.811,329.075,177.12Z" transform="translate(-299.287 -159.796)" fill="#ffc8af"/>
        </g>
        <g id="Group_215" data-name="Group 215" transform="translate(72.076 12.742)">
          <path id="Path_993" data-name="Path 993" d="M298.722,174.763c-9.719,0-11.5,9.138-11.43,16.144,0,.645.033,1.227.065,1.807,0,0,.005.075.014.185.128,6.938,4.426,14.073,11.361,14.073,7.092,0,11.953-7.542,11.663-14.548-.007-.138-.015-.264-.022-.4.027-.36.049-.728.069-1.12C310.732,183.9,309.15,174.763,298.722,174.763Z" transform="translate(-285.473 -171.082)" fill="#ffc8af"/>
          <path id="Path_994" data-name="Path 994" d="M298.924,171.408c-17,0-11.561,20.891-11.561,20.891l1.648-8.652a140.213,140.213,0,0,0,16.92-5.856c2.2,2.946,4.386,9.778,4.386,14.405,0,0,3.592-10.891-1.344-16.906-.458-.559-2.057-.415-2.057-.415s-.771-1.939-1.5-2.265A15.787,15.787,0,0,0,298.924,171.408Z" transform="translate(-285.546 -171.408)" fill="#878cf0"/>
          <g id="Group_214" data-name="Group 214" transform="translate(0 17.887)">
            <g id="Group_212" data-name="Group 212" transform="translate(23.988)">
              <path id="Path_995" data-name="Path 995" d="M308.541,189.495c.613-.194,2.06-.872,1.794,2.023-.458,5.006-2.633,4.692-2.633,4.692.129-.71.324-1.711.485-2.874-.59-.477.165-1.1.193-1.679a1.188,1.188,0,0,0,.033-.356C308.478,190.721,308.51,190.14,308.541,189.495Z" transform="translate(-307.475 -187.556)" fill="#ffc8af"/>
              <path id="Path_996" data-name="Path 996" d="M308.36,191.178s.679-.888,1.193-.533.149,1.959-.257,2.912-.857,1.036-.936.771.825-.825.5-1.275-.648-.53-.619-.792S308.36,191.178,308.36,191.178Z" transform="translate(-307.422 -187.432)" fill="#e29b7f"/>
              <path id="Path_997" data-name="Path 997" d="M308.133,187.709a57.123,57.123,0,0,1-.638,7.8l.312.4.99-6.873Z" transform="translate(-307.495 -187.709)" fill="#878cf0"/>
            </g>
            <g id="Group_213" data-name="Group 213">
              <path id="Path_998" data-name="Path 998" d="M287.459,189.495c-.613-.194-2.059-.872-1.793,2.023.458,5.006,2.633,4.692,2.633,4.692-.129-.71-.324-1.711-.485-2.874.59-.477-.165-1.1-.193-1.679a1.188,1.188,0,0,1-.033-.356C287.524,190.721,287.492,190.14,287.459,189.495Z" transform="translate(-285.634 -187.556)" fill="#ffc8af"/>
              <path id="Path_999" data-name="Path 999" d="M287.543,191.178s-.679-.888-1.193-.533-.149,1.959.257,2.912.857,1.036.936.771-.825-.825-.5-1.275.649-.53.619-.792S287.543,191.178,287.543,191.178Z" transform="translate(-285.589 -187.432)" fill="#e29b7f"/>
              <path id="Path_1000" data-name="Path 1000" d="M287.748,187.709a57.123,57.123,0,0,0,.638,7.8l-.312.4-.99-6.873Z" transform="translate(-285.493 -187.709)" fill="#878cf0"/>
            </g>
          </g>
          <path id="Path_1001" data-name="Path 1001" d="M305.518,177.225c-3.537,2.846-14.73,6.533-14.73,6.533l1.042-3.153Z" transform="translate(-285.132 -170.842)" fill="#878cf0"/>
        </g>
        <path id="Path_1002" data-name="Path 1002" d="M270.113,201" transform="translate(-215.068 -155.787)" fill="#feca7a"/>
        <path id="Path_1003" data-name="Path 1003" d="M275.055,259.891s-3.51,27.715-3.51,45.637.115,79.405.115,79.405l12.264.416s14.412-106.612,16.814-106.612,16.814,106.612,16.814,106.612l12.264-.416s.115-61.482.115-79.405-3.51-45.637-3.51-45.637Z" transform="translate(-214.928 -150.058)" fill="#112b46"/>
        <path id="Path_1004" data-name="Path 1004" d="M274.778,205.929c-.684,6.035-3.3,75.457-2.079,75.758,3.215.944,17.855,4.073,27.279,3.888s27.779-1.87,29.626-3.162c.191-.134.2-.452.257-.652.74-2.684.128-6.2,0-8.923-.236-4.907-2.935-24.07-3.3-28.968-.675-8.981-1.142-18.008-1.982-26.969-.266-2.828-1.493-5.279-2.653-7.9-.371-.838-.8-2.317-1.644-2.855-.906-.574-2.7-.443-3.778-.6-2.4-.352-4.861-.318-7.248-.725a14.421,14.421,0,0,1-8.038,3.465c-5.044.55-10.453-3.407-10.531-3.464-.921-.676-11.674-.33-15,.074C275.67,204.948,274.785,205.863,274.778,205.929Z" transform="translate(-214.847 -155.453)" fill="#005861"/>
        <path id="Path_1005" data-name="Path 1005" d="M321.724,262" transform="translate(-210.047 -149.853)" fill="#feca7a"/>
        <path id="Path_1006" data-name="Path 1006" d="M252.744,229.061c9.945,5.795-18.96,28.669-27.739,32.408s-2.661-4.692,7.537-16.324S248.831,226.781,252.744,229.061Z" transform="translate(-219.866 -153.1)" fill="#ffc8af"/>
        <path id="Path_1007" data-name="Path 1007" d="M280.319,204.854a89.3,89.3,0,0,0-24.352,17.433c-11.549,11.732-31.31,30.66-31.31,30.66l7.937,7.032s20.047-18.385,22.542-21.063S279.8,221.639,279.8,221.639l5.359-10.624Z" transform="translate(-219.49 -155.412)" fill="#005861"/>
        <path id="Path_1008" data-name="Path 1008" d="M225.115,248.683a22.3,22.3,0,0,0-5.167,7.033,9.384,9.384,0,0,1,5.167-.954c2.874.331,7.937.954,7.937.954l2.011-5.6Z" transform="translate(-219.948 -151.148)" fill="#fbd15b"/>
        <path id="Path_1009" data-name="Path 1009" d="M305.98,207.332c4.452.443,14.291-.516,16.28-.472s17.315.294,17.315.294l-7.773-26a15.362,15.362,0,0,1,7.773-2.542s8.842,13.853,11.2,20.484,3.684,10.012,1.694,15.8c0,0-10.61,5.125-31.978,7.262Z" transform="translate(-211.578 -157.965)" fill="#005861"/>
      </g>
      <g id="Group_217" data-name="Group 217" transform="translate(132.727 19.898)">
        <path id="Path_1010" data-name="Path 1010" d="M306.151,104.481l22.622,14.225a2.207,2.207,0,0,0,2.051.158l24.543-10.571a2.211,2.211,0,0,1,3.019,2.571l-6.539,25.911a2.212,2.212,0,0,0,.483,2l17.639,20.075a2.211,2.211,0,0,1-1.513,3.665L341.792,164.3a2.213,2.213,0,0,0-1.752,1.078L326.4,188.359a2.21,2.21,0,0,1-3.952-.306l-9.94-24.805a2.215,2.215,0,0,0-1.566-1.334l-26.069-5.873a2.211,2.211,0,0,1-.93-3.855l20.519-17.119a2.212,2.212,0,0,0,.785-1.9l-2.47-26.608A2.211,2.211,0,0,1,306.151,104.481Z" transform="translate(-282.32 -103.316)" fill="#fbd15b"/>
        <path id="Path_1011" data-name="Path 1011" d="M324.575,190.337c-.079,0-.16,0-.24-.009a3.015,3.015,0,0,1-2.581-1.9l-9.941-24.805a1.384,1.384,0,0,0-.982-.837l-26.069-5.874a3.033,3.033,0,0,1-1.276-5.288L304,134.508a1.387,1.387,0,0,0,.492-1.194l-2.47-26.608a3.034,3.034,0,0,1,4.636-2.849l22.623,14.225a1.387,1.387,0,0,0,1.287.1l24.542-10.572a3.034,3.034,0,0,1,4.142,3.529l-6.539,25.91a1.392,1.392,0,0,0,.3,1.256l17.638,20.074a3.034,3.034,0,0,1-2.076,5.029L341.92,165.2a1.385,1.385,0,0,0-1.1.675l-13.644,22.979A3.011,3.011,0,0,1,324.575,190.337Zm-19.527-85.3a1.382,1.382,0,0,0-.728.211,1.36,1.36,0,0,0-.655,1.31l2.47,26.609a3.032,3.032,0,0,1-1.076,2.609l-20.519,17.119a1.388,1.388,0,0,0,.584,2.42l26.069,5.874a3.031,3.031,0,0,1,2.148,1.831l9.94,24.8a1.389,1.389,0,0,0,2.482.192l13.643-22.978a3.028,3.028,0,0,1,2.4-1.478l26.665-1.79a1.387,1.387,0,0,0,.948-2.3l-17.638-20.075a3.04,3.04,0,0,1-.664-2.744l6.539-25.912a1.387,1.387,0,0,0-1.894-1.613l-24.542,10.571a3.033,3.033,0,0,1-2.816-.218L305.785,105.25A1.394,1.394,0,0,0,305.048,105.033Z" transform="translate(-282.393 -103.388)" fill="url(#linear-gradient)"/>
      </g>
      <g id="Group_225" data-name="Group 225">
        <path id="Path_1012" data-name="Path 1012" d="M260.753,265.312c-11.178-26.082,7.309-54.1-2.235-56.459a64.9,64.9,0,0,0-31.261,0c-9.543,2.354,8.943,30.376-2.234,56.459-7.369,17.194,1.584,16.855,17.864,16.855S268.121,282.506,260.753,265.312Z" transform="translate(-155.501 -73.417)" fill="#ffc8af"/>
        <path id="Path_1013" data-name="Path 1013" d="M247.442,202.07l-5.778.781-5.777-.781v6.745a26.354,26.354,0,0,0,5.776,1.467h0a26.353,26.353,0,0,0,5.776-1.467Z" transform="translate(-154.19 -73.891)" fill="#ffc8af"/>
        <ellipse id="Ellipse_30" data-name="Ellipse 30" cx="5.026" cy="2.883" rx="5.026" ry="2.883" transform="translate(82.585 126.013)" fill="#f4b49a"/>
        <path id="Path_1014" data-name="Path 1014" d="M237.679,261.289c-26.4-4.156-18.1,53.493-13.522,68.046s13.323-2.772,16.949-27.261S249.7,263.182,237.679,261.289Z" transform="translate(-155.812 -68.15)" fill="#ffc8af"/>
        <g id="Group_218" data-name="Group 218" transform="translate(59.698 251.02)">
          <path id="Path_1015" data-name="Path 1015" d="M230.985,314.267c-17.96-4.507-10.73,53.992-4.9,68.092s8.363-2.384,9.845-27.1S238.052,316.04,230.985,314.267Z" transform="translate(-215.474 -314.02)" fill="#ffc8af"/>
          <path id="Path_1016" data-name="Path 1016" d="M229.439,376.058c3.109-.057,5.833,6.481,4.776,9.855s-16.534,6.512-18.194,4.058S224.469,376.148,229.439,376.058Z" transform="translate(-215.839 -307.985)" fill="#ffc8af"/>
          <path id="Path_1017" data-name="Path 1017" d="M224.167,378.333c6.392,2.195,8.481-.126,8.5-.151.108.167.213.337.313.515l.032.053c1.192,2.163,1.793,5.06,1.2,6.957-1.058,3.374-16.534,6.512-18.194,4.058C214.848,388.028,219.553,381.845,224.167,378.333Z" transform="translate(-215.839 -307.778)" fill="#56548c"/>
        </g>
        <path id="Path_1018" data-name="Path 1018" d="M246.418,261.289c26.4-4.156,18.1,53.493,13.523,68.046s-13.324-2.772-16.949-27.261S234.4,263.182,246.418,261.289Z" transform="translate(-153.905 -68.15)" fill="#ffc8af"/>
        <g id="Group_219" data-name="Group 219" transform="translate(93.275 251.02)">
          <path id="Path_1019" data-name="Path 1019" d="M252.336,314.267c17.96-4.507,10.73,53.992,4.9,68.092s-8.364-2.384-9.845-27.1S245.269,316.04,252.336,314.267Z" transform="translate(-246.439 -314.02)" fill="#ffc8af"/>
          <path id="Path_1020" data-name="Path 1020" d="M254,376.058c-3.109-.057-5.833,6.481-4.776,9.855s16.534,6.512,18.194,4.058S258.969,376.148,254,376.058Z" transform="translate(-246.19 -307.985)" fill="#ffc8af"/>
          <path id="Path_1021" data-name="Path 1021" d="M259.27,378.333c-6.392,2.195-8.481-.126-8.5-.151-.108.167-.213.337-.313.515l-.032.053c-1.193,2.163-1.794,5.06-1.2,6.957,1.058,3.374,16.534,6.512,18.194,4.058C268.59,388.028,263.884,381.845,259.27,378.333Z" transform="translate(-246.191 -307.778)" fill="#56548c"/>
        </g>
        <g id="Group_221" data-name="Group 221" transform="translate(72.184 97.456)">
          <g id="Group_220" data-name="Group 220" transform="translate(3.195 18.159)">
            <path id="Path_1022" data-name="Path 1022" d="M250.423,190.828c.613-.193,2.06-.872,1.794,2.024-.458,5.006-2.633,4.692-2.633,4.692.129-.711.323-1.712.484-2.874-.114-1.3.166-1.1.194-1.679a1.189,1.189,0,0,0,.033-.356C250.359,192.056,250.392,191.475,250.423,190.828Z" transform="translate(-228.237 -190.62)" fill="#ffc8af"/>
            <path id="Path_1023" data-name="Path 1023" d="M250.242,192.513s.679-.889,1.193-.534.149,1.959-.257,2.913-.857,1.036-.936.771.824-.825.5-1.275-.648-.53-.619-.793S250.242,192.513,250.242,192.513Z" transform="translate(-228.184 -190.496)" fill="#e29b7f"/>
            <path id="Path_1024" data-name="Path 1024" d="M231.956,190.828c-.613-.193-2.06-.872-1.794,2.024.459,5.006,2.633,4.692,2.633,4.692-.129-.711-.323-1.712-.484-2.874.114-1.3-.166-1.1-.194-1.679a1.228,1.228,0,0,1-.032-.356C232.021,192.056,231.988,191.475,231.956,190.828Z" transform="translate(-230.13 -190.62)" fill="#ffc8af"/>
            <path id="Path_1025" data-name="Path 1025" d="M232.04,192.513s-.68-.889-1.194-.534-.148,1.959.258,2.913.856,1.036.936.771-.825-.825-.5-1.275.647-.53.618-.793S232.04,192.513,232.04,192.513Z" transform="translate(-230.085 -190.496)" fill="#e29b7f"/>
          </g>
          <path id="Path_1026" data-name="Path 1026" d="M257.747,199.789c-.689-3.5-1.739-9.338-1.739-12.47L244.845,188.9l-2.338,14.5-2.337-14.5-11.164-1.584c0,3.132-1.049,8.971-1.739,12.47a2.528,2.528,0,0,0,2.36,3.012l12.873.647h.013l12.874-.647A2.526,2.526,0,0,0,257.747,199.789Z" transform="translate(-227.218 -172.782)" fill="#56548c"/>
          <path id="Path_1027" data-name="Path 1027" d="M252.4,192.82c0,8-4.626,14.487-10.332,14.487s-10.332-6.486-10.332-14.487,4.626-14.487,10.332-14.487S252.4,184.819,252.4,192.82Z" transform="translate(-226.778 -173.656)" fill="#ffc8af"/>
          <path id="Path_1028" data-name="Path 1028" d="M253.644,195.02c.285-.249-.108-1.455-.151-1.78a4.515,4.515,0,0,0-1.058-2.219,26.073,26.073,0,0,0-2.155-2.122,22.065,22.065,0,0,1-5.095-7.793c-.049-.124-.447-.868-.362-1a33.1,33.1,0,0,1-9.853,9.317c-2.231,1.417-4.34,2.772-5.026,5.343.02-.983-.583-1.835-.729-2.779a21.97,21.97,0,0,1-.364-3.377c0-8.028,6.034-14.542,13.49-14.542a5.369,5.369,0,0,1,4.5,1.962A5.241,5.241,0,0,1,251,177.456a14.708,14.708,0,0,1,4.85,11.157C255.846,190.718,255.415,193.483,253.644,195.02Z" transform="translate(-227.059 -174.071)" fill="#56548c"/>
          <path id="Path_1029" data-name="Path 1029" d="M240.754,183.962c-3.484,2.926-8.067,9.95-7.959,13.827l.11,3.877-4.053-3.387,1.4-9.67,2.764-2.822Z" transform="translate(-227.059 -173.109)" fill="#56548c"/>
          <path id="Path_1030" data-name="Path 1030" d="M247.361,186.676c.044.044.088.089.131.136,2,2.161,3.162,7.507,2.725,10.5-.448,3.059.179,3.849.179,3.849l2.722-4.685-.338-9.538-4.365-2.069-1.01,1.85" transform="translate(-225.258 -173.02)" fill="#56548c"/>
        </g>
        <g id="Group_224" data-name="Group 224">
          <path id="Path_1031" data-name="Path 1031" d="M236.39,219.325c-5.271,12.923-36.666-12.689-42.428-21.433s5.106-4.4,20.372,3.562S238.462,214.24,236.39,219.325Z" transform="translate(-158.422 -74.766)" fill="#ffc8af"/>
          <g id="Group_223" data-name="Group 223">
            <path id="Path_1032" data-name="Path 1032" d="M196.476,202.678c-11.3,2.207-4.665-34.053-.533-42.655s5.1,1.77,5.1,17.241S200.921,201.81,196.476,202.678Z" transform="translate(-158.634 -78.284)" fill="#ffc8af"/>
            <path id="Path_1033" data-name="Path 1033" d="M197,162c-4.293-.116-3.255-7.5-2.807-10.005.729-4.08,4.668-8.3,6.292-8.038s-.587,9.45-.268,9.821,1.827-4,3.326-3.6.251,6.439-1.182,8.64S199.688,162.075,197,162Z" transform="translate(-158.29 -79.545)" fill="#ffc8af"/>
            <g id="Group_222" data-name="Group 222">
              <path id="Path_1034" data-name="Path 1034" d="M207.979,87.237,219.806,111.2a2.213,2.213,0,0,0,1.665,1.209l26.445,3.842a2.212,2.212,0,0,1,1.226,3.771L230,138.676a2.21,2.21,0,0,0-.635,1.956l4.518,26.338a2.211,2.211,0,0,1-3.207,2.331l-23.653-12.436a2.208,2.208,0,0,0-2.057,0L181.315,169.3a2.211,2.211,0,0,1-3.207-2.331l4.518-26.338a2.211,2.211,0,0,0-.636-1.956l-19.136-18.653a2.211,2.211,0,0,1,1.225-3.771l26.446-3.842a2.215,2.215,0,0,0,1.665-1.209l11.827-23.964A2.211,2.211,0,0,1,207.979,87.237Z" transform="translate(-161.361 -85.182)" fill="#fbd15b"/>
              <path id="Path_1035" data-name="Path 1035" d="M231.782,170.454a3.038,3.038,0,0,1-1.413-.351l-23.653-12.436a1.388,1.388,0,0,0-1.293,0L181.771,170.1a3.035,3.035,0,0,1-4.4-3.2l4.518-26.339a1.384,1.384,0,0,0-.4-1.228l-19.137-18.653a3.034,3.034,0,0,1,1.681-5.175l26.446-3.843a1.383,1.383,0,0,0,1.044-.758l11.828-23.964a3.034,3.034,0,0,1,5.441,0l11.827,23.963a1.384,1.384,0,0,0,1.044.759l26.446,3.843a3.034,3.034,0,0,1,1.681,5.175l-19.136,18.653a1.388,1.388,0,0,0-.4,1.228l4.519,26.338a3.04,3.04,0,0,1-2.989,3.55Zm-25.713-14.592a3.033,3.033,0,0,1,1.411.348l23.653,12.436a1.389,1.389,0,0,0,2.015-1.463l-4.518-26.338a3.03,3.03,0,0,1,.872-2.685l19.136-18.653a1.387,1.387,0,0,0-.769-2.367L221.425,113.3a3.031,3.031,0,0,1-2.285-1.659L207.314,87.675a1.388,1.388,0,0,0-2.489,0L193,111.637a3.029,3.029,0,0,1-2.285,1.659l-26.445,3.844a1.388,1.388,0,0,0-.769,2.367l19.137,18.653a3.033,3.033,0,0,1,.872,2.685l-4.518,26.338a1.388,1.388,0,0,0,2.014,1.463l23.653-12.436A3.039,3.039,0,0,1,206.069,155.862Z" transform="translate(-161.434 -85.255)" fill="url(#linear-gradient-2)"/>
            </g>
          </g>
        </g>
        <path id="Path_1036" data-name="Path 1036" d="M223.435,257.873s-5.266,18.522-5.082,29.978.74,32.889.184,37.693,49.056,3.973,48.5-.831.278-25.407.462-36.862-5.082-29.978-5.082-29.978Z" transform="translate(-155.897 -68.462)" fill="#303030"/>
        <path id="Path_1037" data-name="Path 1037" d="M262.207,226.836c-4.434,23.419,1.386,36.585,1.386,36.585-12.056,5.127-39.493,2.078-39.493.97s2.217-2.91,3.88-16.075a64.855,64.855,0,0,0-2.148-25.013c-6.305-1.8-19.539-11.225-19.539-11.225,1.455-6.236,8.523-11.224,8.523-11.224s12.611,7.206,14,7.275a54.372,54.372,0,0,0,5.613-.485s4.365,6.928,9.908,6.721,9.839-6.652,9.839-6.652,8.868.485,9.146,3.118a36.02,36.02,0,0,1,0,8.661C262.9,223.025,262.207,226.836,262.207,226.836Z" transform="translate(-157.069 -74.009)" fill="#fff"/>
      </g>
      <g id="Group_226" data-name="Group 226" transform="translate(63.326 184.079)">
        <path id="Path_1038" data-name="Path 1038" d="M223.27,253.033c-4.271-.444-4.207,7.011-4.091,9.553.189,4.14,3.542,8.839,5.186,8.793s.654-9.447,1.019-9.772,1.288,4.2,2.828,4,1.091-6.35-.042-8.72S225.947,253.313,223.27,253.033Z" transform="translate(-219.145 -253.014)" fill="#ffc8af"/>
      </g>
    </g>
    <g id="Group_242" data-name="Group 242" transform="translate(363.894 2.711)">
      <g id="Group_240" data-name="Group 240" transform="translate(0 52.375)">
        <g id="Group_230" data-name="Group 230" transform="translate(13.223 135.18)">
          <g id="Group_229" data-name="Group 229" transform="translate(0 61.273)">
            <path id="Path_1039" data-name="Path 1039" d="M384.809,376.114c3.11.036,5.641,6.65,4.485,9.992s-16.718,6.023-18.3,3.519S379.839,376.058,384.809,376.114Z" transform="translate(-370.826 -308.497)" fill="#ffc8af"/>
            <g id="Group_228" data-name="Group 228">
              <path id="Path_1040" data-name="Path 1040" d="M391.252,314.917c-17.526-5.978-15.161,52.919-10.52,67.453s8.532-1.684,12.055-26.189S398.147,317.268,391.252,314.917Z" transform="translate(-370.188 -314.492)" fill="#ffc8af"/>
              <path id="Path_1041" data-name="Path 1041" d="M379.467,378.235c6.325,2.382,8.481.123,8.505.1.1.17.2.343.3.524l.03.054c1.129,2.2,1.644,5.11.994,6.989-1.157,3.341-16.718,6.023-18.3,3.519C369.866,387.65,374.752,381.608,379.467,378.235Z" transform="translate(-370.826 -308.291)" fill="#56548c"/>
            </g>
          </g>
          <path id="Path_1042" data-name="Path 1042" d="M397.814,258.9c-26.35-4.473-18.743,53.271-14.337,67.879s13.356-2.613,17.275-27.056S409.812,260.934,397.814,258.9Z" transform="translate(-370.034 -258.652)" fill="#ffc8af"/>
        </g>
        <g id="Group_233" data-name="Group 233" transform="translate(50.852 135.457)">
          <g id="Group_232" data-name="Group 232" transform="translate(10.874 60.747)">
            <path id="Path_1043" data-name="Path 1043" d="M424.919,376.114c-3.11.036-5.641,6.65-4.485,9.992s16.718,6.023,18.3,3.519S429.888,376.058,424.919,376.114Z" transform="translate(-414.53 -308.249)" fill="#ffc8af"/>
            <g id="Group_231" data-name="Group 231">
              <path id="Path_1044" data-name="Path 1044" d="M420.074,314.624c17.693-5.467,13.619,53.337,8.557,67.73s-8.48-1.932-11.288-26.528S413.114,316.773,420.074,314.624Z" transform="translate(-415.029 -314.266)" fill="#ffc8af"/>
              <path id="Path_1045" data-name="Path 1045" d="M430.259,378.235c-6.323,2.382-8.48.123-8.5.1-.1.17-.2.343-.3.524l-.03.054c-1.129,2.2-1.644,5.11-.994,6.989,1.157,3.341,16.718,6.023,18.3,3.519C439.861,387.65,434.977,381.608,430.259,378.235Z" transform="translate(-414.53 -308.043)" fill="#56548c"/>
            </g>
          </g>
          <path id="Path_1046" data-name="Path 1046" d="M412.584,259.151c26.35-4.473,18.743,53.271,14.337,67.879s-13.356-2.613-17.275-27.057S400.586,261.186,412.584,259.151Z" transform="translate(-405.119 -258.905)" fill="#ffc8af"/>
        </g>
        <path id="Path_1047" data-name="Path 1047" d="M430.894,265.079c-1.626-17.851.549-56.9-8.994-59.249a64.866,64.866,0,0,0-31.262,0c-9.543,2.354-7.368,41.4-8.993,59.249-1.437,15.775,8.344,14.065,24.624,14.065S432.33,280.854,430.894,265.079Z" transform="translate(-356.564 -128.797)" fill="#ffc8af"/>
        <path id="Path_1048" data-name="Path 1048" d="M410.364,198.148l-5.778.78-5.778-.78v6.744a26.334,26.334,0,0,0,5.777,1.467h0a26.319,26.319,0,0,0,5.776-1.467Z" transform="translate(-354.88 -129.358)" fill="#ffc8af"/>
        <g id="Group_234" data-name="Group 234">
          <path id="Path_1049" data-name="Path 1049" d="M390.163,223.683c12.323-6.553-16.339-35.19-25.623-40.037s-3.864,5.526,5.608,19.906S385.315,226.26,390.163,223.683Z" transform="translate(-358.682 -130.886)" fill="#ffc8af"/>
          <path id="Path_1050" data-name="Path 1050" d="M362.2,189.788c-11.3-2.182,8.419-33.325,15.47-39.755s4.063,3.549-1.718,17.9S366.643,190.646,362.2,189.788Z" transform="translate(-358.775 -134.233)" fill="#ffc8af"/>
          <path id="Path_1051" data-name="Path 1051" d="M377.083,151.6c-4.034-1.47-.711-8.145.507-10.379,1.984-3.64,7.057-6.394,8.515-5.632s-3.551,8.778-3.364,9.231,3-3.214,4.293-2.357-1.8,6.186-3.857,7.82S379.612,152.518,377.083,151.6Z" transform="translate(-357.182 -135.457)" fill="#ffc8af"/>
        </g>
        <g id="Group_235" data-name="Group 235" transform="translate(65.131)">
          <path id="Path_1052" data-name="Path 1052" d="M421.159,223.683c-12.323-6.553,16.339-35.19,25.622-40.037s3.865,5.526-5.607,19.906S426.007,226.26,421.159,223.683Z" transform="translate(-418.131 -130.886)" fill="#ffc8af"/>
          <path id="Path_1053" data-name="Path 1053" d="M448.2,189.788c11.3-2.182-8.419-33.325-15.47-39.755s-4.063,3.549,1.718,17.9S443.753,190.646,448.2,189.788Z" transform="translate(-417.111 -134.233)" fill="#ffc8af"/>
          <path id="Path_1054" data-name="Path 1054" d="M432.353,151.6c4.035-1.47.712-8.145-.506-10.379-1.984-3.64-7.058-6.394-8.515-5.632s3.551,8.778,3.364,9.231-3-3.214-4.293-2.357,1.8,6.186,3.857,7.82S429.825,152.518,432.353,151.6Z" transform="translate(-417.745 -135.457)" fill="#ffc8af"/>
        </g>
        <path id="Path_1055" data-name="Path 1055" d="M409.568,202.355c0,1.593-2.251,2.884-5.027,2.884s-5.026-1.29-5.026-2.884,2.251-2.884,5.026-2.884S409.568,200.762,409.568,202.355Z" transform="translate(-354.811 -129.229)" fill="#f4b49a"/>
        <g id="Group_239" data-name="Group 239" transform="translate(36.29 42.781)">
          <path id="Path_1056" data-name="Path 1056" d="M404.936,174.445c-9.719,0-11.5,9.137-11.43,16.143,0,.646.033,1.228.065,1.808,0,0,.005.075.014.185.128,6.938,4.426,14.073,11.361,14.073,7.092,0,11.953-7.542,11.663-14.548-.007-.138-.015-.264-.022-.4.027-.36.049-.727.069-1.121C416.946,183.582,415.364,174.445,404.936,174.445Z" transform="translate(-391.687 -174.445)" fill="#ffc8af"/>
          <g id="Group_238" data-name="Group 238" transform="translate(0 14.205)">
            <g id="Group_236" data-name="Group 236" transform="translate(23.988)">
              <path id="Path_1057" data-name="Path 1057" d="M414.755,189.177c.613-.194,2.06-.873,1.794,2.023-.459,5.006-2.634,4.692-2.634,4.692.129-.71.324-1.712.485-2.874-.59-.477.165-1.1.193-1.679a1.189,1.189,0,0,0,.033-.356C414.691,190.4,414.724,189.822,414.755,189.177Z" transform="translate(-413.689 -187.238)" fill="#ffc8af"/>
              <path id="Path_1058" data-name="Path 1058" d="M414.574,190.86s.679-.889,1.193-.534.149,1.959-.257,2.913-.857,1.036-.936.771.825-.825.5-1.275-.648-.53-.619-.792S414.574,190.86,414.574,190.86Z" transform="translate(-413.636 -187.114)" fill="#e29b7f"/>
              <path id="Path_1059" data-name="Path 1059" d="M414.347,187.391a57.122,57.122,0,0,1-.638,7.8l.311.4.991-6.874Z" transform="translate(-413.709 -187.391)" fill="#56548c"/>
            </g>
            <g id="Group_237" data-name="Group 237">
              <path id="Path_1060" data-name="Path 1060" d="M393.673,189.177c-.613-.194-2.059-.873-1.793,2.023.458,5.006,2.632,4.692,2.632,4.692-.128-.71-.323-1.712-.484-2.874.59-.477-.166-1.1-.194-1.679a1.229,1.229,0,0,1-.032-.356C393.738,190.4,393.706,189.822,393.673,189.177Z" transform="translate(-391.848 -187.238)" fill="#ffc8af"/>
              <path id="Path_1061" data-name="Path 1061" d="M393.757,190.86s-.679-.889-1.194-.534-.148,1.959.258,2.913.857,1.036.936.771-.825-.825-.5-1.275.648-.53.619-.792S393.757,190.86,393.757,190.86Z" transform="translate(-391.803 -187.114)" fill="#e29b7f"/>
              <path id="Path_1062" data-name="Path 1062" d="M393.962,187.391a57.118,57.118,0,0,0,.638,7.8l-.312.4-.99-6.874Z" transform="translate(-391.707 -187.391)" fill="#56548c"/>
            </g>
          </g>
        </g>
      </g>
      <g id="Group_241" data-name="Group 241" transform="translate(5.901)">
        <path id="Path_1063" data-name="Path 1063" d="M410.7,89.708l11.827,23.964a2.215,2.215,0,0,0,1.665,1.209l26.445,3.843a2.21,2.21,0,0,1,1.226,3.77l-19.136,18.653a2.211,2.211,0,0,0-.636,1.956l4.518,26.338a2.211,2.211,0,0,1-3.207,2.331l-23.653-12.436a2.214,2.214,0,0,0-2.057,0l-23.653,12.436a2.211,2.211,0,0,1-3.207-2.331l4.518-26.338a2.213,2.213,0,0,0-.635-1.956l-19.137-18.653a2.211,2.211,0,0,1,1.226-3.77l26.445-3.843a2.213,2.213,0,0,0,1.665-1.209l11.827-23.964A2.211,2.211,0,0,1,410.7,89.708Z" transform="translate(-364.08 -87.653)" fill="#fbd15b"/>
        <path id="Path_1064" data-name="Path 1064" d="M383.076,172.925a3.038,3.038,0,0,1-2.987-3.55l4.518-26.338a1.388,1.388,0,0,0-.4-1.228l-19.137-18.653a3.033,3.033,0,0,1,1.681-5.174l26.446-3.844a1.383,1.383,0,0,0,1.044-.758l11.828-23.964a3.013,3.013,0,0,1,2.719-1.691h0a3.014,3.014,0,0,1,2.72,1.691l11.827,23.963a1.383,1.383,0,0,0,1.044.759l26.446,3.844a3.033,3.033,0,0,1,1.682,5.174l-19.137,18.653a1.391,1.391,0,0,0-.4,1.229l4.518,26.337a3.033,3.033,0,0,1-4.4,3.2l-23.653-12.436a1.388,1.388,0,0,0-1.293,0l-23.654,12.436A3.035,3.035,0,0,1,383.076,172.925Zm25.714-83.553h0a1.361,1.361,0,0,0-1.243.774l-11.827,23.964a3.034,3.034,0,0,1-2.285,1.659l-26.446,3.843a1.388,1.388,0,0,0-.768,2.367l19.137,18.653a3.035,3.035,0,0,1,.872,2.685l-4.519,26.338a1.387,1.387,0,0,0,2.014,1.463l23.654-12.436a3.037,3.037,0,0,1,2.822,0l23.653,12.436a1.387,1.387,0,0,0,2.014-1.463l-4.518-26.338a3.034,3.034,0,0,1,.873-2.685l19.136-18.653a1.389,1.389,0,0,0-.769-2.367l-26.446-3.843a3.034,3.034,0,0,1-2.284-1.659L410.034,90.146A1.363,1.363,0,0,0,408.789,89.372Z" transform="translate(-364.153 -87.726)" fill="url(#linear-gradient-2)"/>
      </g>
      <path id="Path_1065" data-name="Path 1065" d="M381.127,261.469s-3.51,27.715-3.51,45.637.115,79.4.115,79.4l12.264.416s14.412-106.612,16.814-106.612,16.814,106.612,16.814,106.612l12.264-.416s.115-61.482.115-79.4-3.51-45.637-3.51-45.637Z" transform="translate(-356.942 -70.823)" fill="#112b46"/>
      <path id="Path_1066" data-name="Path 1066" d="M407.3,269.845c13.339-.211,26.186-1.96,26.973-2.8,1.386-1.478-2.587-41.111-2.033-42.5S446.1,206.256,446.1,206.256l-.168-.343a17.781,17.781,0,0,0-11.287-9.357h0s-8.5,8.845-9.054,9.192-10.209-1.048-10.209-1.048a10.974,10.974,0,0,1-15.89,0s-9.654,1.395-10.208,1.048-9.054-9.192-9.054-9.192h0a17.78,17.78,0,0,0-11.288,9.357l-.168.343s13.3,16.907,13.858,18.292-3.419,41.019-2.033,42.5c.788.841,13.635,2.59,26.973,2.8" transform="translate(-357.802 -77.138)" fill="#02afbe"/>
      <path id="Path_1067" data-name="Path 1067" d="M403.922,177.992c2.66,0,5.589-.553,6.695,0s2.929,4.255,2.929,5.746v3.869c0,1.1,2.182,3.1,2.182,3.1l.235-.614s-.07-3.755,0-6.574-2.1-10.279-12.04-10.279" transform="translate(-354.383 -79.407)" fill="#56548c"/>
      <path id="Path_1068" data-name="Path 1068" d="M404.99,177.992c-2.661,0-5.59-.553-6.7,0s-2.929,4.255-2.929,5.746v3.869c0,1.1-2.183,3.1-2.183,3.1l-.234-.614s.069-3.755,0-6.574,2.1-10.279,12.04-10.279" transform="translate(-355.45 -79.407)" fill="#56548c"/>
    </g>
    <g id="Group_256" data-name="Group 256" transform="translate(28.149 9.248)">
      <g id="Group_254" data-name="Group 254" transform="translate(30.905 67.35)">
        <g id="Group_245" data-name="Group 245" transform="translate(57.16 112.259)">
          <g id="Group_244" data-name="Group 244" transform="translate(0 61.13)">
            <path id="Path_1069" data-name="Path 1069" d="M147.039,374.641c3.109.036,5.64,6.65,4.483,9.992s-16.718,6.023-18.3,3.52S142.068,374.585,147.039,374.641Z" transform="translate(-133.055 -307.089)" fill="#ffc8af"/>
            <g id="Group_243" data-name="Group 243">
              <path id="Path_1070" data-name="Path 1070" d="M152.754,313.491c-17.555-5.89-14.9,52.993-10.182,67.5s8.524-1.727,11.923-26.249S159.661,315.808,152.754,313.491Z" transform="translate(-132.471 -313.078)" fill="#ffc8af"/>
              <path id="Path_1071" data-name="Path 1071" d="M141.7,376.762c6.324,2.382,8.48.123,8.5.1.1.17.2.343.3.525l.03.054c1.129,2.2,1.645,5.11.994,6.989-1.155,3.341-16.718,6.023-18.3,3.52C132.1,386.177,136.981,380.135,141.7,376.762Z" transform="translate(-133.055 -306.882)" fill="#112b46"/>
            </g>
          </g>
          <path id="Path_1072" data-name="Path 1072" d="M158.781,257.614c-26.351-4.471-18.744,53.272-14.338,67.879s13.357-2.612,17.275-27.056S170.779,259.65,158.781,257.614Z" transform="translate(-132.386 -257.368)" fill="#ffc8af"/>
        </g>
        <g id="Group_248" data-name="Group 248" transform="translate(93.819 112.12)">
          <g id="Group_247" data-name="Group 247" transform="translate(9.978 60.729)">
            <path id="Path_1073" data-name="Path 1073" d="M186.39,374.578c-3.109.035-5.64,6.65-4.485,9.992s16.719,6.023,18.306,3.519S191.359,374.522,186.39,374.578Z" transform="translate(-174.967 -306.556)" fill="#ffc8af"/>
            <g id="Group_246" data-name="Group 246">
              <path id="Path_1074" data-name="Path 1074" d="M180.122,313.034c17.47-6.139,15.649,52.777,11.142,67.354s-8.548-1.606-12.3-26.077S173.249,315.449,180.122,313.034Z" transform="translate(-175.557 -312.587)" fill="#ffc8af"/>
              <path id="Path_1075" data-name="Path 1075" d="M191.731,376.7c-6.324,2.382-8.481.124-8.505.1-.1.17-.2.343-.3.525l-.031.054c-1.128,2.2-1.644,5.11-.994,6.989,1.157,3.341,16.719,6.023,18.306,3.519C201.333,386.114,196.448,380.072,191.731,376.7Z" transform="translate(-174.967 -306.35)" fill="#112b46"/>
            </g>
          </g>
          <path id="Path_1076" data-name="Path 1076" d="M173.929,257.488c26.35-4.473,18.743,53.272,14.337,67.879s-13.356-2.612-17.275-27.056S161.931,259.524,173.929,257.488Z" transform="translate(-166.464 -257.242)" fill="#ffc8af"/>
        </g>
        <path id="Path_1077" data-name="Path 1077" d="M192.365,263.543c-1.625-17.851.55-56.9-8.994-59.249a64.861,64.861,0,0,0-31.261,0c-9.543,2.354-7.369,41.4-8.994,59.249-1.436,15.775,8.345,14.065,24.625,14.065S193.8,279.318,192.365,263.543Z" transform="translate(-74.93 -150.458)" fill="#ffc8af"/>
        <path id="Path_1078" data-name="Path 1078" d="M174.538,206.211c9-10.67,30.97,23.371,33.756,33.465s-6.214,2.616-18.282-9.667S171,210.409,174.538,206.211Z" transform="translate(-71.949 -150.285)" fill="#ffc8af"/>
        <path id="Path_1079" data-name="Path 1079" d="M171.835,196.611l-5.777.781-5.778-.781v6.745a26.322,26.322,0,0,0,5.776,1.467h0a26.323,26.323,0,0,0,5.776-1.467Z" transform="translate(-73.246 -151.02)" fill="#ffc8af"/>
        <path id="Path_1080" data-name="Path 1080" d="M157.592,214.688c6.882-12.141-32.671-20.926-43.1-20.034s-.3,6.736,15.414,13.787S154.885,219.465,157.592,214.688Z" transform="translate(-78.115 -151.216)" fill="#ffc8af"/>
        <path id="Path_1081" data-name="Path 1081" d="M118.39,201.486c-8,8.278-23.325-25.245-24.864-34.662s5.191-1.467,14.058,11.21S121.537,198.229,118.39,201.486Z" transform="translate(-79.762 -154.319)" fill="#ffc8af"/>
        <path id="Path_1082" data-name="Path 1082" d="M97.4,165c-1.319,4.086-8.112,1.013-10.39-.121-3.711-1.848-6.652-6.814-5.944-8.3s8.9,3.222,9.349,3.019-3.321-2.877-2.514-4.2,6.249,1.569,7.958,3.564S98.23,162.44,97.4,165Z" transform="translate(-80.963 -155.062)" fill="#ffc8af"/>
        <g id="Group_249" data-name="Group 249" transform="translate(127.969 86.416)">
          <path id="Path_1083" data-name="Path 1083" d="M200.2,234.151c10.708-4.219,10.769,32.642,8.268,41.85s-5.333-.816-8.151-16.028S195.985,235.811,200.2,234.151Z" transform="translate(-197.586 -233.816)" fill="#ffc8af"/>
          <path id="Path_1084" data-name="Path 1084" d="M205.059,272.388c4.058-1.4,5.686,5.875,6.149,8.377.755,4.076-1.447,9.413-3.059,9.739s-2.777-9.053-3.207-9.286-.3,4.385-1.847,4.536-2.5-5.939-1.936-8.5S202.515,273.267,205.059,272.388Z" transform="translate(-197.254 -230.081)" fill="#ffc8af"/>
        </g>
        <g id="Group_253" data-name="Group 253" transform="translate(78.322 15.95)">
          <path id="Path_1085" data-name="Path 1085" d="M166.406,172.909c-9.719,0-11.494,9.137-11.429,16.143,0,.646.032,1.228.064,1.808,0,0,.005.075.014.185.128,6.938,4.426,14.073,11.361,14.073,7.092,0,11.953-7.542,11.664-14.548-.008-.138-.015-.264-.023-.4.027-.36.05-.728.07-1.121C178.417,182.046,176.836,172.909,166.406,172.909Z" transform="translate(-152.084 -169.276)" fill="#ffc8af"/>
          <g id="Group_252" data-name="Group 252" transform="translate(1.073 17.839)">
            <g id="Group_250" data-name="Group 250" transform="translate(23.988)">
              <path id="Path_1086" data-name="Path 1086" d="M176.227,187.639c.613-.193,2.06-.872,1.794,2.024-.459,5.006-2.633,4.692-2.633,4.692.129-.71.323-1.712.484-2.874-.59-.477.166-1.1.194-1.679a1.228,1.228,0,0,0,.032-.356C176.163,188.867,176.195,188.286,176.227,187.639Z" transform="translate(-175.16 -185.702)" fill="#ffc8af"/>
              <path id="Path_1087" data-name="Path 1087" d="M176.045,189.324s.679-.889,1.194-.534.148,1.959-.258,2.913-.857,1.036-.936.771.825-.825.5-1.275-.648-.53-.618-.792S176.045,189.324,176.045,189.324Z" transform="translate(-175.107 -185.578)" fill="#e29b7f"/>
              <path id="Path_1088" data-name="Path 1088" d="M175.818,185.855a57.1,57.1,0,0,1-.638,7.8l.312.4.99-6.874Z" transform="translate(-175.18 -185.855)" fill="#112b46"/>
            </g>
            <g id="Group_251" data-name="Group 251">
              <path id="Path_1089" data-name="Path 1089" d="M155.145,187.639c-.613-.193-2.06-.872-1.794,2.024.459,5.006,2.633,4.692,2.633,4.692-.129-.71-.323-1.712-.484-2.874.59-.477-.166-1.1-.194-1.679a1.228,1.228,0,0,1-.032-.356C155.21,188.867,155.177,188.286,155.145,187.639Z" transform="translate(-153.319 -185.702)" fill="#ffc8af"/>
              <path id="Path_1090" data-name="Path 1090" d="M155.229,189.324s-.68-.889-1.194-.534-.148,1.959.258,2.913.856,1.036.936.771-.825-.825-.5-1.275.647-.53.618-.792S155.229,189.324,155.229,189.324Z" transform="translate(-153.273 -185.578)" fill="#e29b7f"/>
              <path id="Path_1091" data-name="Path 1091" d="M155.433,185.855a57.062,57.062,0,0,0,.639,7.8l-.312.4-.99-6.874Z" transform="translate(-153.177 -185.855)" fill="#112b46"/>
            </g>
          </g>
          <path id="Path_1092" data-name="Path 1092" d="M166.477,179.975a1.161,1.161,0,0,1-1.377.309,1.134,1.134,0,0,1-.534-.759,1.967,1.967,0,0,1-1.4.506,2.007,2.007,0,0,1-1.462-.814,3.949,3.949,0,0,1-1.518,2.388,3.818,3.818,0,0,1-1.826.689,1.32,1.32,0,0,1-.169,1.623,1.3,1.3,0,0,1-1.349.273,2.565,2.565,0,0,1-.948,3.14l-.948,2.044h0l-.591.338a2.3,2.3,0,0,1-1.053-4.088,2.877,2.877,0,0,1-.956-1.967,2.912,2.912,0,0,1,1.631-2.642,1.377,1.377,0,0,1-.506-1.741,1.338,1.338,0,0,1,1.237-.675,3.643,3.643,0,0,1-.113-3.709,3.756,3.756,0,0,1,4.609-1.406,1.533,1.533,0,0,1,.377-1.171,1.666,1.666,0,0,1,2.1-.066A3,3,0,0,1,162.908,170a3.043,3.043,0,0,1,3.755.618,3.043,3.043,0,0,1,3.755-.618,3,3,0,0,1,1.237,2.247,1.665,1.665,0,0,1,2.095.066,1.536,1.536,0,0,1,.379,1.171,3.755,3.755,0,0,1,4.607,1.406,3.641,3.641,0,0,1-.112,3.709,1.339,1.339,0,0,1,1.237.675,1.38,1.38,0,0,1-.506,1.741,2.911,2.911,0,0,1,1.629,2.642,2.872,2.872,0,0,1-.956,1.967,2.3,2.3,0,0,1-1.053,4.088l-.59-.338h0l-.948-2.044a2.565,2.565,0,0,1-.948-3.14,1.305,1.305,0,0,1-1.35-.273,1.322,1.322,0,0,1-.168-1.623,3.821,3.821,0,0,1-1.827-.689,3.96,3.96,0,0,1-1.518-2.388,2,2,0,0,1-1.46.814,1.969,1.969,0,0,1-1.406-.506,1.131,1.131,0,0,1-.533.759,1.161,1.161,0,0,1-1.377-.309" transform="translate(-152.34 -169.598)" fill="#112b46"/>
        </g>
        <path id="Path_1093" data-name="Path 1093" d="M166.043,202.775a8.438,8.438,0,0,1-5.632-2.255,6.4,6.4,0,0,0,11.266,0A8.438,8.438,0,0,1,166.043,202.775Z" transform="translate(-73.234 -150.639)" fill="#f4b49a"/>
      </g>
      <g id="Group_255" data-name="Group 255">
        <path id="Path_1094" data-name="Path 1094" d="M99.342,95.665l11.827,23.964a2.215,2.215,0,0,0,1.665,1.209l26.446,3.843a2.21,2.21,0,0,1,1.225,3.77L121.368,147.1a2.211,2.211,0,0,0-.636,1.956l4.518,26.338a2.21,2.21,0,0,1-3.207,2.331L98.389,165.293a2.214,2.214,0,0,0-2.057,0L72.678,177.729a2.211,2.211,0,0,1-3.207-2.331l4.518-26.338a2.21,2.21,0,0,0-.635-1.956L54.217,128.451a2.21,2.21,0,0,1,1.225-3.77l26.446-3.843a2.212,2.212,0,0,0,1.663-1.209L95.378,95.665A2.211,2.211,0,0,1,99.342,95.665Z" transform="translate(-52.724 -93.61)" fill="#fbd15b"/>
        <path id="Path_1095" data-name="Path 1095" d="M71.72,178.882a3.04,3.04,0,0,1-2.987-3.55l4.518-26.338a1.389,1.389,0,0,0-.4-1.228L53.715,129.113A3.034,3.034,0,0,1,55.4,123.94L81.842,120.1a1.386,1.386,0,0,0,1.045-.758L94.713,95.374a3.033,3.033,0,0,1,5.44,0l11.825,23.964a1.388,1.388,0,0,0,1.046.758l26.446,3.844a3.033,3.033,0,0,1,1.68,5.174l-19.136,18.653a1.39,1.39,0,0,0-.4,1.229l4.518,26.337a3.034,3.034,0,0,1-4.4,3.2L98.079,166.1a1.387,1.387,0,0,0-1.29,0L73.134,178.531A3.042,3.042,0,0,1,71.72,178.882ZM97.433,95.329a1.361,1.361,0,0,0-1.244.774L84.361,120.066a3.032,3.032,0,0,1-2.283,1.659l-26.445,3.843a1.388,1.388,0,0,0-.769,2.367L74,146.587a3.033,3.033,0,0,1,.872,2.685l-4.516,26.338a1.387,1.387,0,0,0,2.012,1.463l23.653-12.436a3.036,3.036,0,0,1,2.823,0L122.5,177.073a1.387,1.387,0,0,0,2.014-1.463l-4.518-26.338a3.037,3.037,0,0,1,.872-2.685L140,127.935a1.388,1.388,0,0,0-.768-2.367l-26.446-3.843a3.034,3.034,0,0,1-2.283-1.659L98.678,96.1A1.361,1.361,0,0,0,97.433,95.329Z" transform="translate(-52.797 -93.683)" fill="url(#linear-gradient-2)"/>
      </g>
      <path id="Path_1096" data-name="Path 1096" d="M142.851,259.023s-3.51,29.747-3.51,47.67.115,79.4.115,79.4l12.264.416S166.132,279.9,168.534,279.9s16.814,106.612,16.814,106.612l12.264-.416s.115-61.482.115-79.4-3.972-47.856-3.972-47.856Z" transform="translate(-44.378 -77.616)" fill="#56548c"/>
      <path id="Path_1097" data-name="Path 1097" d="M135.625,196.7s-6.652,8.592-6.513,15.1c0,0,14,6.375,14.551,6.929s-3.742,57.268-2.633,58.654,10.393,4.988,28.547,4.573,25.821-2.91,26.931-4.851l-2.818-45.073,2.771,3.187s9.285-2.632,10.255-9.7c0,0-9.839-16.722-16.537-19.678a36.5,36.5,0,0,0-13.9-2.68,12.916,12.916,0,0,1-7.252,3.1c-4.48.416-8.084-3.1-8.084-3.1s-7.714.6-8.5.37S141.029,197.858,135.625,196.7Z" transform="translate(-45.373 -83.661)" fill="#02afbe"/>
    </g>
    <g id="Group_267" data-name="Group 267" transform="translate(0 102.374)">
      <g id="Group_264" data-name="Group 264">
        <path id="Path_1098" data-name="Path 1098" d="M92.791,192.68c.161,2.728,3.256,7.591,3.809,9.47s-1.437,3.538-1.106,5.416,2.874,2.48,3.538,4.223-1.651,3.125-1.5,6.135a8.8,8.8,0,0,1-2.144,5.557l-30.837-1.326L58.731,220.5s.55-.269,1.525-4.058-.351-5.729-.241-7.578S62.557,205.8,63,204.139s-.221-2.245-.221-4.493.966-1.9,1.989-4.432.557-2.607,1.26-5.225S79.3,182.814,79.3,182.814l9.845,1.873Z" transform="translate(-24.071 -178.138)" fill="#56548c"/>
        <path id="Path_1099" data-name="Path 1099" d="M97.07,269.793c-11.177-26.081,7.309-54.1-2.234-56.458a64.865,64.865,0,0,0-31.262,0c-9.543,2.354,8.944,30.376-2.234,56.458-7.368,17.2,1.584,16.856,17.865,16.856S104.439,286.988,97.07,269.793Z" transform="translate(-24.071 -175.355)" fill="#ffc8af"/>
        <path id="Path_1100" data-name="Path 1100" d="M83.76,206.552l-5.778.781-5.778-.781V213.3a26.332,26.332,0,0,0,5.777,1.467h0A26.332,26.332,0,0,0,83.76,213.3Z" transform="translate(-22.76 -175.829)" fill="#ffc8af"/>
        <g id="Group_257" data-name="Group 257" transform="translate(0 39.125)">
          <path id="Path_1101" data-name="Path 1101" d="M70.434,217.63c-5.625-12.773-36.3,13.693-41.821,22.592s5.225,4.262,20.266-4.12S72.647,222.656,70.434,217.63Z" transform="translate(-27.144 -214.209)" fill="#ffc8af"/>
        </g>
        <path id="Path_1102" data-name="Path 1102" d="M68.585,265.673c-26.723.452-8.62,55.81-1.6,69.358s12.647-5.026,12-29.774S80.753,265.466,68.585,265.673Z" transform="translate(-24.487 -170.078)" fill="#ffc8af"/>
        <g id="Group_258" data-name="Group 258" transform="translate(37.388 151.877)">
          <path id="Path_1103" data-name="Path 1103" d="M70.738,317.069c-18.292-2.879-5.852,54.737,1.217,68.258s8.117-3.124,7.379-27.869S77.935,318.2,70.738,317.069Z" transform="translate(-61.217 -316.965)" fill="#ffc8af"/>
          <path id="Path_1104" data-name="Path 1104" d="M74.791,378.782c3.091-.335,6.391,5.931,5.64,9.387s-15.884,7.966-17.757,5.671S69.85,379.317,74.791,378.782Z" transform="translate(-61.099 -310.952)" fill="#ffc8af"/>
          <path id="Path_1105" data-name="Path 1105" d="M69.764,381.545c6.562,1.614,8.435-.884,8.456-.913.122.157.243.317.358.486l.036.049c1.381,2.046,2.24,4.877,1.817,6.821-.751,3.455-15.884,7.966-17.757,5.671C61.35,392.035,65.482,385.456,69.764,381.545Z" transform="translate(-61.099 -310.771)" fill="#878cf0"/>
        </g>
        <path id="Path_1106" data-name="Path 1106" d="M78.68,264.889c23.147-13.363,36.109,43.42,37.062,58.648s-13.43,2.2-25.611-19.354S68.139,270.973,78.68,264.889Z" transform="translate(-22.566 -170.35)" fill="#ffc8af"/>
        <g id="Group_259" data-name="Group 259" transform="translate(76.102 145.869)">
          <path id="Path_1107" data-name="Path 1107" d="M106.987,311.582c18.317-2.715,5.356,54.787-1.835,68.243s-8.088-3.2-7.126-27.935S99.78,312.651,106.987,311.582Z" transform="translate(-96.381 -311.489)" fill="#ffc8af"/>
          <path id="Path_1108" data-name="Path 1108" d="M102.322,373.258c-3.089-.362-6.444,5.875-5.726,9.337s15.812,8.11,17.706,5.831S107.258,373.838,102.322,373.258Z" transform="translate(-96.498 -305.481)" fill="#ffc8af"/>
          <path id="Path_1109" data-name="Path 1109" d="M107.323,376.071c-6.577,1.554-8.427-.962-8.448-.99-.123.155-.245.314-.362.482l-.036.049c-1.4,2.034-2.283,4.858-1.88,6.8.72,3.462,15.812,8.11,17.706,5.831C115.641,386.635,111.568,380.019,107.323,376.071Z" transform="translate(-96.498 -305.303)" fill="#878cf0"/>
        </g>
        <g id="Group_261" data-name="Group 261" transform="translate(39.932)">
          <g id="Group_260" data-name="Group 260" transform="translate(3.195 18.159)">
            <path id="Path_1110" data-name="Path 1110" d="M86.741,195.311c.613-.194,2.06-.872,1.794,2.024-.459,5.006-2.633,4.692-2.633,4.692.129-.711.323-1.712.484-2.874-.114-1.3.166-1.1.194-1.679a1.228,1.228,0,0,0,.032-.356C86.677,196.537,86.709,195.957,86.741,195.311Z" transform="translate(-64.555 -195.102)" fill="#ffc8af"/>
            <path id="Path_1111" data-name="Path 1111" d="M86.559,196.995s.68-.889,1.194-.534.148,1.959-.258,2.913-.857,1.035-.936.771.825-.825.5-1.276-.647-.529-.618-.792S86.559,196.995,86.559,196.995Z" transform="translate(-64.502 -194.978)" fill="#e29b7f"/>
            <path id="Path_1112" data-name="Path 1112" d="M68.274,195.311c-.613-.194-2.06-.872-1.794,2.024.458,5.006,2.633,4.692,2.633,4.692-.129-.711-.323-1.712-.485-2.874.115-1.3-.166-1.1-.193-1.679a1.189,1.189,0,0,1-.033-.356C68.339,196.537,68.306,195.957,68.274,195.311Z" transform="translate(-66.448 -195.102)" fill="#ffc8af"/>
            <path id="Path_1113" data-name="Path 1113" d="M68.357,196.995s-.679-.889-1.194-.534-.148,1.959.258,2.913.857,1.035.936.771-.825-.825-.5-1.276.649-.529.619-.792S68.357,196.995,68.357,196.995Z" transform="translate(-66.403 -194.978)" fill="#e29b7f"/>
          </g>
          <path id="Path_1114" data-name="Path 1114" d="M94.065,204.271c-.689-3.5-1.739-9.338-1.739-12.47l-11.163,1.584-2.338,14.5-2.338-14.5L65.323,191.8c0,3.132-1.05,8.971-1.739,12.47a2.526,2.526,0,0,0,2.359,3.011l12.874.648h.013l12.874-.648A2.526,2.526,0,0,0,94.065,204.271Z" transform="translate(-63.536 -177.264)" fill="#56548c"/>
          <path id="Path_1115" data-name="Path 1115" d="M88.72,197.3c0,8-4.625,14.486-10.332,14.486S68.057,205.3,68.057,197.3s4.625-14.489,10.331-14.489S88.72,189.3,88.72,197.3Z" transform="translate(-63.096 -178.138)" fill="#ffc8af"/>
          <path id="Path_1116" data-name="Path 1116" d="M78.008,209.464a8.491,8.491,0,0,1-6.041-2.751c1.563,2.534,3.691,4.1,6.041,4.1s4.479-1.567,6.042-4.1A8.491,8.491,0,0,1,78.008,209.464Z" transform="translate(-62.716 -175.813)" fill="#f4b49a"/>
          <path id="Path_1117" data-name="Path 1117" d="M89.962,199.5c.285-.25-.108-1.455-.151-1.78a4.534,4.534,0,0,0-1.058-2.219,25.916,25.916,0,0,0-2.156-2.122,22.077,22.077,0,0,1-5.094-7.793c-.049-.124-.448-.869-.363-1a33.075,33.075,0,0,1-9.853,9.317c-2.231,1.417-4.339,2.772-5.024,5.343.02-.983-.584-1.835-.729-2.779a21.852,21.852,0,0,1-.365-3.379c0-8.027,6.035-14.541,13.491-14.541a5.365,5.365,0,0,1,4.5,1.962,5.243,5.243,0,0,1,4.153,1.423,14.711,14.711,0,0,1,4.85,11.156C92.164,195.2,91.732,197.965,89.962,199.5Z" transform="translate(-63.377 -178.553)" fill="#56548c"/>
          <path id="Path_1118" data-name="Path 1118" d="M77.072,188.444c-3.484,2.925-8.068,9.949-7.959,13.827l.11,3.877-4.054-3.387,1.4-9.67,2.765-2.822Z" transform="translate(-63.377 -177.591)" fill="#56548c"/>
          <path id="Path_1119" data-name="Path 1119" d="M83.678,191.158c.045.044.088.089.132.136,2,2.161,3.161,7.507,2.723,10.5-.447,3.059.18,3.849.18,3.849l2.722-4.685-.339-9.538-4.365-2.069-1.008,1.85" transform="translate(-61.576 -177.502)" fill="#56548c"/>
        </g>
        <g id="Group_263" data-name="Group 263" transform="translate(67.601 39.282)">
          <path id="Path_1120" data-name="Path 1120" d="M90.367,215.528c11.208-8.318,24.774,29.858,25.168,40.323s-6.648,1.119-15.574-13.607S85.958,218.8,90.367,215.528Z" transform="translate(-88.751 -214.352)" fill="#ffc8af"/>
          <g id="Group_262" data-name="Group 262" transform="translate(13.676 36.391)">
            <path id="Path_1121" data-name="Path 1121" d="M108.99,247.614c11.3-2.206,4.666,34.054.534,42.656s-5.1-1.771-5.106-17.241S104.546,248.482,108.99,247.614Z" transform="translate(-100.904 -247.517)" fill="#ffc8af"/>
            <path id="Path_1122" data-name="Path 1122" d="M108.438,285.824c4.293.117,3.255,7.5,2.807,10.005-.729,4.081-4.669,8.3-6.292,8.039s.587-9.45.267-9.821-1.826,4-3.326,3.595-.25-6.438,1.183-8.639S105.748,285.751,108.438,285.824Z" transform="translate(-101.215 -243.791)" fill="#ffc8af"/>
          </g>
        </g>
      </g>
      <path id="Path_1123" data-name="Path 1123" d="M59.47,269a41.388,41.388,0,0,0-6,23.281c.831,13.026,10.9,75.939,15.89,94.786l11.918-1.386,1.294-90.444S101.5,323.324,101.5,325.818s-1.108,57.093-1.108,57.093l11.363,1.109s13.672-48.687,10.808-63.192c-4.128-20.91-12.287-32.981-21.71-51.827C88.643,244.572,59.47,269,59.47,269Z" transform="translate(-24.59 -170.81)" fill="#005861"/>
      <path id="Path_1124" data-name="Path 1124" d="M80.488,218.862s8.661,1.178,10.808-7.275c0,0,11.433.162,18.292,13.812A89.444,89.444,0,0,1,98.5,235.376s-1.455-2.864-1.662-2.517-4.25,20.717,4.342,40.672a109.356,109.356,0,0,1-20.325,1.848h-.738a109.356,109.356,0,0,1-20.325-1.848c8.592-19.955,2.818-43.79,2.61-44.137s-4.5,2.5-4.5,2.5C52.7,228.216,50.07,218.1,50.07,218.1a69.825,69.825,0,0,1,19.608-6.513c2.147,8.453,10.809,7.275,10.809,7.275" transform="translate(-24.913 -175.339)" fill="#fff"/>
      <g id="Group_265" data-name="Group 265" transform="translate(5.822 40.682)">
        <path id="Path_1125" data-name="Path 1125" d="M115.876,258.655,92.187,246.289a2.21,2.21,0,0,1-1.172-1.691l-3.242-26.525a2.21,2.21,0,0,0-3.742-1.31L64.949,235.472a2.214,2.214,0,0,1-1.971.591L36.75,230.951a2.211,2.211,0,0,0-2.4,3.154l11.9,23.929a2.206,2.206,0,0,1-.046,2.056L33.23,283.456a2.211,2.211,0,0,0,2.257,3.259l26.434-3.921a2.213,2.213,0,0,1,1.942.68l18.215,19.553a2.211,2.211,0,0,0,3.8-1.139l4.44-26.351a2.211,2.211,0,0,1,1.247-1.637l24.225-11.281A2.21,2.21,0,0,0,115.876,258.655Z" transform="translate(-32.401 -215.579)" fill="#fbd15b"/>
        <path id="Path_1126" data-name="Path 1126" d="M83.736,304.331a2.744,2.744,0,0,1-2.011-.881L63.51,283.9a1.642,1.642,0,0,0-1.46-.511l-26.434,3.919a2.758,2.758,0,0,1-2.816-4.068l12.967-23.366a1.664,1.664,0,0,0,.035-1.546L33.905,234.4a2.759,2.759,0,0,1,3-3.937l26.229,5.112a1.676,1.676,0,0,0,1.481-.444L83.694,216.42a2.759,2.759,0,0,1,4.671,1.635l3.242,26.526a1.664,1.664,0,0,0,.881,1.271l23.689,12.365a2.759,2.759,0,0,1-.112,4.948L91.842,274.446a1.663,1.663,0,0,0-.937,1.231l-4.44,26.351a2.774,2.774,0,0,1-2.729,2.3ZM62.293,282.271a2.761,2.761,0,0,1,2.02.879L82.528,302.7a1.661,1.661,0,0,0,2.854-.856l4.441-26.352a2.761,2.761,0,0,1,1.556-2.042L115.6,262.17a1.662,1.662,0,0,0,.067-2.98L91.982,246.825a2.761,2.761,0,0,1-1.463-2.111l-3.244-26.526a1.661,1.661,0,0,0-2.812-.984L65.382,235.912a2.761,2.761,0,0,1-2.459.738l-26.229-5.113a1.662,1.662,0,0,0-1.806,2.372l11.9,23.928a2.761,2.761,0,0,1-.058,2.567L33.759,283.769a1.663,1.663,0,0,0,1.7,2.452L61.889,282.3A2.645,2.645,0,0,1,62.293,282.271Z" transform="translate(-32.45 -215.628)" fill="url(#linear-gradient-5)"/>
      </g>
      <g id="Group_266" data-name="Group 266" transform="translate(0.006 65.4)">
        <path id="Path_1127" data-name="Path 1127" d="M29.074,238.662c-9.713,6.174,20.055,27.914,28.972,31.311s2.479-4.792-8.163-16.021S32.894,236.233,29.074,238.662Z" transform="translate(-27.149 -238.155)" fill="#ffc8af"/>
        <path id="Path_1128" data-name="Path 1128" d="M57.223,264.661c-3.4,2.621,1.785,7.978,3.622,9.74,2.992,2.868,8.66,3.959,9.819,2.793s-6.039-7.293-6-7.781,3.83,2.156,4.8.948-3.587-5.353-6.042-6.287S59.354,263.017,57.223,264.661Z" transform="translate(-24.334 -235.7)" fill="#ffc8af"/>
      </g>
    </g>
  </g>
</svg>
