<svg xmlns="http://www.w3.org/2000/svg" width="510.57" height="398.092" viewBox="0 0 510.57 398.092">
  <g id="Group_149" data-name="Group 149" transform="translate(-478.371 -3086.121)">
    <g id="Group_88" data-name="Group 88" transform="translate(897.544 3267.609)">
      <path id="Path_664" data-name="Path 664" d="M409.821,439.81a1.435,1.435,0,0,1-1.429-1.3l-19.45-203.5a1.437,1.437,0,0,1,2.861-.274l19.45,203.5a1.437,1.437,0,0,1-1.294,1.566A1.3,1.3,0,0,1,409.821,439.81Z" transform="translate(-388.936 -233.437)" fill="#303030"/>
    </g>
    <g id="Group_89" data-name="Group 89" transform="translate(839.452 3267.609)">
      <path id="Path_665" data-name="Path 665" d="M342.938,439.81a1.289,1.289,0,0,1-.137-.006,1.436,1.436,0,0,1-1.294-1.566l19.45-203.5a1.437,1.437,0,0,1,2.861.274l-19.45,203.5A1.436,1.436,0,0,1,342.938,439.81Z" transform="translate(-341.5 -233.437)" fill="#303030"/>
    </g>
    <g id="Group_90" data-name="Group 90" transform="translate(858.788 3283.834)">
      <rect id="Rectangle_84" data-name="Rectangle 84" width="41.743" height="2.874" fill="#f2b9a7"/>
    </g>
    <g id="Group_91" data-name="Group 91" transform="translate(856.454 3308.259)">
      <rect id="Rectangle_85" data-name="Rectangle 85" width="46.411" height="2.874" fill="#f2b9a7"/>
    </g>
    <g id="Group_92" data-name="Group 92" transform="translate(854.12 3332.682)">
      <rect id="Rectangle_86" data-name="Rectangle 86" width="51.079" height="2.874" fill="#f2b9a7"/>
    </g>
    <g id="Group_93" data-name="Group 93" transform="translate(851.785 3357.106)">
      <rect id="Rectangle_87" data-name="Rectangle 87" width="55.749" height="2.874" fill="#303030"/>
    </g>
    <g id="Group_94" data-name="Group 94" transform="translate(849.535 3381.53)">
      <rect id="Rectangle_88" data-name="Rectangle 88" width="60.333" height="2.874" fill="#303030"/>
    </g>
    <g id="Group_95" data-name="Group 95" transform="translate(847.186 3405.954)">
      <rect id="Rectangle_89" data-name="Rectangle 89" width="65.017" height="2.874" fill="#303030"/>
    </g>
    <g id="Group_96" data-name="Group 96" transform="translate(844.8 3430.378)">
      <rect id="Rectangle_90" data-name="Rectangle 90" width="69.737" height="2.874" fill="#303030"/>
    </g>
    <g id="Group_97" data-name="Group 97" transform="translate(843.227 3454.802)">
      <rect id="Rectangle_91" data-name="Rectangle 91" width="73.644" height="2.874" fill="#303030"/>
    </g>
    <path id="Path_666" data-name="Path 666" d="M356.955,236.537H400.65a2.526,2.526,0,0,0,2.525-2.526h0a2.525,2.525,0,0,0-2.525-2.525H356.955a2.525,2.525,0,0,0-2.525,2.525h0A2.526,2.526,0,0,0,356.955,236.537Z" transform="translate(500.857 3033.734)" fill="#303030"/>
    <path id="Path_667" data-name="Path 667" d="M358.474,147.192s4.094,1.329,9.906,10.216,17.98,41.608,17.98,41.608l-40.466,5.666s-15.864-38.85-16.981-40.469a13.218,13.218,0,0,1-2.115-5.263l4.392-5.154Z" transform="translate(494.65 3014.798)" fill="#02afbe"/>
    <path id="Path_668" data-name="Path 668" d="M352.459,170.352q.4-.854.8-1.708c1.009-2.148-.544-7.719,1.646-8.111,1.984-.354,15.347,22.7,14.629,23.391-.3.288-5.557-5.559-5.947-5.41-2.067.789-4.644-3.733-6.845-3.967-1.4-.151-2.948-.639-3.576-1.9" transform="translate(500.414 3017.794)" fill="#f9d8cd" opacity="0.61" style="mix-blend-mode: multiply;isolation: isolate"/>
    <path id="Path_669" data-name="Path 669" d="M381.4,195.03s.609,13.58.5,18.616c-.076,3.592-.1,11.35-.535,15.149a4.726,4.726,0,0,0,.481,2.682h0a46.415,46.415,0,0,1,4.493,13.971l2.149,13.985-17.2,2.255-12.741-41.564s4.253-16.784,5.593-16.879S381.4,195.03,381.4,195.03Z" transform="translate(501.784 3025.544)" fill="#02afbe"/>
    <path id="Path_670" data-name="Path 670" d="M457.972,335.15a141.793,141.793,0,0,0,.643-70.439l-25.821,2.871a133.5,133.5,0,0,0-15.047-37.013l20.513-16.4a142.571,142.571,0,0,0-33.227-38.888c-.97-.813-1.966-1.586-2.962-2.36a139.188,139.188,0,0,0-13.172-9l-16.371,20.5c-1.3-.8-2.609-1.586-3.932-2.346q-2.221-1.3-4.521-2.491a133.345,133.345,0,0,0-28.207-10.943l2.91-26.044a141.989,141.989,0,0,0-70.437-.629l2.9,25.927a133.138,133.138,0,0,0-37.081,14.863L217.825,162.32a141.439,141.439,0,0,0-50.253,49.334L187.9,227.908a133.5,133.5,0,0,0-15.794,36.765l-25.873-2.9a141.788,141.788,0,0,0-.643,70.437l25.743-2.871a133.247,133.247,0,0,0,14.954,37.132l-20.341,16.253a142,142,0,0,0,49.361,50.265l16.174-20.224a133.9,133.9,0,0,0,36.8,15.859l-2.857,25.69a141.719,141.719,0,0,0,70.425.642L333.009,429.4a133.652,133.652,0,0,0,37.237-14.982l16.135,20.186a141.634,141.634,0,0,0,50.253-49.349l-20.172-16.121a133.827,133.827,0,0,0,15.729-36.87Zm-73.361-33.8A82.553,82.553,0,1,1,299.4,216.138,82.841,82.841,0,0,1,384.612,301.347Z" transform="translate(453.017 3012.697)" fill="#81ccd2"/>
    <path id="Path_671" data-name="Path 671" d="M291.4,390.331A102.531,102.531,0,0,1,188.969,284.458a102.655,102.655,0,0,1,99.126-99.126A102.533,102.533,0,0,1,393.914,291.168l-.906-.028.906.028a102.64,102.64,0,0,1-99.108,99.11Q293.1,390.331,291.4,390.331Zm.1-203.239q-1.67,0-3.347.053a100.837,100.837,0,0,0-97.368,97.37A100.718,100.718,0,0,0,294.748,388.464a100.711,100.711,0,0,0,67.9-171.875A99.733,99.733,0,0,0,291.5,187.092Z" transform="translate(463.676 3023.354)" fill="#005861"/>
    <path id="Path_672" data-name="Path 672" d="M180.7,375.737a60.065,60.065,0,0,0,.271-29.832l-10.937,1.22a56.59,56.59,0,0,0-6.363-15.68l8.68-6.938a60.084,60.084,0,0,0-20.9-21.285l-6.934,8.674a56.613,56.613,0,0,0-15.523-6.675l1.231-11.034a60.064,60.064,0,0,0-29.832-.271l1.225,10.984a56.513,56.513,0,0,0-15.7,6.295l-6.92-8.658a60.083,60.083,0,0,0-21.285,20.9l8.609,6.882a56.545,56.545,0,0,0-6.683,15.566l-10.962-1.222A60.065,60.065,0,0,0,48.4,374.5l10.9-1.216a56.511,56.511,0,0,0,6.335,15.728L57.021,395.9a60.083,60.083,0,0,0,20.9,21.285l6.851-8.569a56.634,56.634,0,0,0,15.59,6.722l-1.214,10.882a60.063,60.063,0,0,0,29.832.271l-1.207-10.829a56.554,56.554,0,0,0,15.772-6.341l6.833,8.55a60.084,60.084,0,0,0,21.285-20.9l-8.543-6.83a56.539,56.539,0,0,0,6.658-15.615Zm-31.07-14.31a34.964,34.964,0,1,1-36.086-36.092A35.087,35.087,0,0,1,149.632,361.427Z" transform="translate(431.719 3047.365)" fill="#a2dde2"/>
    <path id="Path_673" data-name="Path 673" d="M110.153,399.112A43.425,43.425,0,0,1,66.771,354.27a43.479,43.479,0,0,1,41.984-41.984,43.427,43.427,0,0,1,44.818,44.825l-.385-.011.385.011A43.472,43.472,0,0,1,111.6,399.088Q110.873,399.111,110.153,399.112Zm.044-86.08q-.707,0-1.418.022a42.708,42.708,0,0,0-41.24,41.24,42.659,42.659,0,0,0,44.034,44.027,42.655,42.655,0,0,0,28.759-72.8A42.242,42.242,0,0,0,110.2,313.032Z" transform="translate(436.234 3051.879)" fill="#005861"/>
    <path id="Path_674" data-name="Path 674" d="M160.937,408.129c0,1.9-17.5,3.444-39.094,3.444S82.75,410.03,82.75,408.129s17.5-3.446,39.093-3.446S160.937,406.226,160.937,408.129Z" transform="translate(439.828 3072.64)" fill="#fcf2eb"/>
    <g id="Group_110" data-name="Group 110" transform="translate(564.182 3297.908)">
      <g id="Group_109" data-name="Group 109" transform="translate(42.418 7.44)">
        <g id="Group_108" data-name="Group 108">
          <g id="Group_107" data-name="Group 107">
            <path id="Path_675" data-name="Path 675" d="M151.36,275.136c.849-.629,2.667-2.125,2.959-3.124.135-.463.965-1.926,1.674-3.293a26.381,26.381,0,0,1,1.8-2.769c.485-.6,1.135-2.034,1.64-1.624.627.511-.156,1.992-.59,2.9a3.561,3.561,0,0,0-.382,1.032,1.045,1.045,0,0,0,.228.912c.129.154.918.164,1.179.13,1.97-.258,2.84-.217,4.268-.894a16.738,16.738,0,0,0,2.8-1.571,2.538,2.538,0,0,1,1.063-.611c.267-.049.66.036.653.306A7.582,7.582,0,0,1,167.4,268c-.865.734.039.107-.825.841a.717.717,0,0,0-.3.421,2.086,2.086,0,0,0,.075.435,1.051,1.051,0,0,1-.3.714,12.156,12.156,0,0,1-.917,1.042c-.453.462-.022.785-.524,1.2-.552.457-2.041,1-2.612,1.435a9.215,9.215,0,0,1-1.425.954,11.628,11.628,0,0,1-1.941.676c-1.8.538-2.619,2.016-4.077,3.249" transform="translate(-151.36 -264.254)" fill="#feaf84"/>
          </g>
          <path id="Path_676" data-name="Path 676" d="M158.19,274.357a16.39,16.39,0,0,0,4.041-1.5c1.761-1.013,4.009-2.007,5.119-3.4a.738.738,0,0,0,.118-.534,1.5,1.5,0,0,0-1.294.088c-.534.289-3.145,1.6-3.145,1.6" transform="translate(-149.826 -263.228)" fill="#feaf84"/>
          <path id="Path_677" data-name="Path 677" d="M157.762,273.9a27.388,27.388,0,0,0,4.629-1.875c1.761-1.013,4.761-2.376,5.786-3.861a.616.616,0,0,0,.036-.47,1.491,1.491,0,0,0-1.293.088c-.535.289-3.731,2-3.731,2" transform="translate(-149.922 -263.505)" fill="#feaf84"/>
          <path id="Path_678" data-name="Path 678" d="M158.4,272.387a27.278,27.278,0,0,0,4.629-1.875c1.761-1.013,4.087-2.181,5.195-3.416a.453.453,0,0,0,.042-.516,1.5,1.5,0,0,0-1.294.088c-.534.289-3.145,1.6-3.145,1.6" transform="translate(-149.779 -263.754)" fill="#feaf84"/>
        </g>
      </g>
      <path id="Path_679" data-name="Path 679" d="M165.356,278.951a9.564,9.564,0,0,0-.649-1.341,8.37,8.37,0,0,0-3.657-3.6s-8.55,6.4-12.124,8.413c-.314.168-.66.356-1.005.535,0,0-.083.053-.241.136-2.871,1.446-6.727,3.017-9.912,5.207-2.493-8.047-6.329-24.634-11.872-29.024l-.01-.011a4.02,4.02,0,0,0-4.5-.67s-8.288,5.637-2.776,19.668a46.924,46.924,0,0,0,7.072,12.132,48.135,48.135,0,0,0,7.506,7.524h0s2.611,2.618,5.1,2.421A10.375,10.375,0,0,0,143.245,298h0C150.129,293.373,165.356,278.951,165.356,278.951Z" transform="translate(-116.722 -258.178)" fill="#02afbe"/>
      <path id="Path_680" data-name="Path 680" d="M163.709,276.027a9.861,9.861,0,0,0-.645-1.341c-2.775,2.787-14.208,13.025-20.058,17.365-6.4,4.744-8.353,3.5-8.353,3.5a6.373,6.373,0,0,1-1.106-.653,8.181,8.181,0,0,1-3.264-6.769,132.886,132.886,0,0,0-1.012-16.945s-3.322,10.2-5.229,16.293A48.139,48.139,0,0,0,131.548,295h0s2.611,2.618,5.1,2.421a10.375,10.375,0,0,0,4.957-2.337l-.01,0C148.473,290.462,163.709,276.027,163.709,276.027Z" transform="translate(-115.078 -255.258)" opacity="0.08"/>
    </g>
    <path id="Path_681" data-name="Path 681" d="M123.747,234.338s2.539,4.257-.3,7.53-5.6-5.108-5.6-5.108Z" transform="translate(447.713 3034.375)" fill="#301b2c"/>
    <path id="Path_682" data-name="Path 682" d="M97.543,267.1a45.3,45.3,0,0,0,.835,7.078c1.281,7.242,4.35,15.931,6.431,21.328a17.25,17.25,0,0,1,.776,9.959c-1.47,6.607.2,7.043.2,7.043s8.947,5.679,16.389,7.994c4.739,1.482,8.866,1.423,9.618-2.763a6.03,6.03,0,0,0,.094-.682c.882-.176.823-1.081.752-1.446-.023-.118-.059-.411-.094-.741-.07-.517-.129-1.14-.129-1.34-.258-13.227,1.975-12.545,2.657-27.36.705-15.2-.267-22.021-4.237-25.758a15.455,15.455,0,0,0-9.16-4.556c-3.994-.686-8.751.394-13.857,1.6C100.035,259.29,97.484,261.347,97.543,267.1Z" transform="translate(443.151 3039.159)" fill="#02afbe"/>
    <path id="Path_683" data-name="Path 683" d="M97.543,265.2a45.3,45.3,0,0,0,.835,7.078c1.281,7.242,4.35,15.931,6.431,21.328a17.25,17.25,0,0,1,.776,9.959c-1.47,6.607.2,7.043.2,7.043s8.947,5.679,16.389,7.994l6.949-.659,2.67-2.1a6.033,6.033,0,0,0,.094-.682c-6.062.287-18.307-4.079-20.787-5.02a4.022,4.022,0,0,1-2.529-4.469,58.969,58.969,0,0,0,.965-9.218c-.023-2.916-1.376-7.841-2.481-11.393a23.153,23.153,0,0,1-.929-8.418,73.983,73.983,0,0,0,0-9.594l-5.513-2.987Z" transform="translate(443.151 3041.052)" opacity="0.08"/>
    <path id="Path_684" data-name="Path 684" d="M103.8,312.006c-.637.1-2.266-2.753-2.266-2.753l.683-.906a3.052,3.052,0,0,1,1.538-1.078l.11-.034a1.311,1.311,0,0,1,1.473.506c.468.693,1.189,1.483,2.028,1.454h.015a.191.191,0,0,0,.089.015C108.21,309.224,104.435,311.9,103.8,312.006Z" transform="translate(444.047 3050.737)" fill="#f4d5b5"/>
    <g id="Group_111" data-name="Group 111" transform="translate(550.932 3264.738)">
      <path id="Path_685" data-name="Path 685" d="M124.984,258.955a18.317,18.317,0,0,1-4.878.088c-.012.164.038.91.1,1.642.012.089.012.178.024.266.051.72.114,1.364.114,1.364l-.543,4.057-3.438-1.542-5.105-1.478s-.164-3.69-.34-5.384a5.983,5.983,0,0,0-.114-.746c-.14-.506-2.048-4.094-3.438-7.594a20.219,20.219,0,0,1-1.428-4.89,4.218,4.218,0,0,1-.038-.544c0-.96.013-1.934.064-2.868.152-2.717.656-5.219,2.35-6.622,2.274-1.908,17.831-8.429,18.273,2.83v.05s.114.885.252,2.3c.1.986.214,2.224.3,3.589C127.574,249.579,127.7,258.335,124.984,258.955Z" transform="translate(-105.903 -231.093)" fill="#feaf84"/>
    </g>
    <path id="Path_686" data-name="Path 686" d="M118.641,255.984a19.547,19.547,0,0,1-5.679-2.8,24.688,24.688,0,0,0,5.554.892c-.011.168.042.911.1,1.645C118.631,255.805,118.631,255.9,118.641,255.984Z" transform="translate(446.615 3038.608)" fill="#f29d77"/>
    <path id="Path_687" data-name="Path 687" d="M117.03,262.214s1.809,28.256.268,38.293c0,0,2.013,5.412,3.316,5.871s2.256-2.737,3.533-6.205-4.684-38.2-4.684-38.2Z" transform="translate(447.529 3040.582)" fill="#303030"/>
    <path id="Path_688" data-name="Path 688" d="M115.8,261.157l1.505,1.779,2.433-.244a25.754,25.754,0,0,0,.175-3.087,5.425,5.425,0,0,0-2.34-.852Z" transform="translate(447.252 3039.859)" fill="#303030"/>
    <path id="Path_689" data-name="Path 689" d="M110.532,254.828a6.6,6.6,0,0,0-2.177,2.15,27.38,27.38,0,0,1,2.676,1.4c1.138.694,6.608,4.558,6.608,4.558l1.608-3.3S113.626,255.694,110.532,254.828Z" transform="translate(445.58 3038.977)" fill="#02afbe" stroke="#000" stroke-width="0.1"/>
    <path id="Path_690" data-name="Path 690" d="M117.249,259.567a4.573,4.573,0,0,1,2.5,2.083s.978-1.875-.272-5.213a8.657,8.657,0,0,0-1.837-1.308Z" transform="translate(447.578 3039.045)" fill="#02afbe" stroke="#000" stroke-width="0.1"/>
    <path id="Path_691" data-name="Path 691" d="M104.827,307.321a11.42,11.42,0,0,0,1.319,1.444c.3.165.353-.187.239-.436S104.872,306.984,104.827,307.321Z" transform="translate(444.787 3050.755)" fill="#e5bb98"/>
    <path id="Path_692" data-name="Path 692" d="M100.939,395.482s.41,7.356.414,8.327c0,.547,3.609,1.149,5.277,0,.16-2.706,1.012-8.315,1.067-9.922" transform="translate(443.914 3070.215)" fill="#ffbe9d"/>
    <path id="Path_693" data-name="Path 693" d="M102,334.816s-10.19-17.387,3.6-32.742c0,0,9.486,4.247,17.081,4.76a37.582,37.582,0,0,0,9.019-.217,152.472,152.472,0,0,1,2.045,29.824Z" transform="translate(443.338 3049.59)" fill="#3e2739"/>
    <path id="Path_694" data-name="Path 694" d="M118.953,393.148l.9,10.869,2.771,1.2,2.49-1.242.409-9.652" transform="translate(447.961 3070.049)" fill="#ffbe9d"/>
    <path id="Path_695" data-name="Path 695" d="M130.878,371.139c-.409,9.387-3.066,27.243-3.052,46.427-2.627,1.57-5.946,1.21-7.227.249-1.986-16.557-7.372-33.594-1.635-47.8-2.263-8.512-5.884-26.572-7.315-34.923a4.5,4.5,0,0,0-.073-.468l1.314-3.869c-.365-10.57,6.526-18.323,13.651-15.636,1.563.584,3.908,5.09,4.14,8.331.19,2.569.05,42.169.108,43.1a22.468,22.468,0,0,1,.044,2.949A14.707,14.707,0,0,1,130.878,371.139Z" transform="translate(446.304 3052.4)" fill="#3e2739"/>
    <path id="Path_696" data-name="Path 696" d="M119.375,401.638c1.327,13.987,1.211,15.243,1.211,15.243-1.88-15.667-6.727-30.622-2.46-45.395a9.8,9.8,0,0,0,.146-5.075c-2.252-9.188-5.341-24.7-6.635-32.253l1.9-1.533s3.08-13.4,3.81-13.856-.131,4.556-.583,10.761c-.468,6.2-1.461,10,.087,17.431s4.393,17.586,4.977,21.762C119.613,375.2,118.032,387.637,119.375,401.638Z" transform="translate(446.317 3053.334)" fill="#301b2c"/>
    <g id="Group_113" data-name="Group 113" transform="translate(542.198 3367.396)">
      <g id="Group_112" data-name="Group 112">
        <path id="Path_697" data-name="Path 697" d="M113.926,361.329c-1.7,9.312-5.283,36.383-5.888,47.129-.288,1.794-6.211,1.472-7.277.65-.036-.115-.05-3.167-.058-3.313-.247-12.577-3.893-35.435,1.514-47.026C105.509,351.711,115.768,351.324,113.926,361.329Z" transform="translate(-98.659 -306.226)" fill="#3e2739"/>
        <path id="Path_698" data-name="Path 698" d="M117.483,332.692c-.355-12.325-6.084-21.283-12.93-16.428-2.88,2.043-6.291,3.673-5.719,6.864,1,5.565,3.476,38.664,3.36,44.758-.261,13.735,10.782,8.6,11.476,4.722C115.424,362.821,117.677,339.409,117.483,332.692Z" transform="translate(-98.771 -314.921)" fill="#3e2739"/>
      </g>
    </g>
    <path id="Path_699" data-name="Path 699" d="M119.034,408.435a.44.44,0,0,0,.425.293h16.218c.971.053,1.56-.315,1.62-.758.094-.708-.572-.978-.927-1.109,0,0-8.6-3.646-9.039-3.848L125.2,401.99a11.717,11.717,0,0,1-2.742.375,16.582,16.582,0,0,1-2.519-.334A6.649,6.649,0,0,0,119.034,408.435Z" transform="translate(447.878 3072.035)" fill="#001118"/>
    <path id="Path_700" data-name="Path 700" d="M100.637,408.435a.439.439,0,0,0,.425.293h16.218c.971.053,1.56-.315,1.619-.758.094-.708-.572-.978-.926-1.109,0,0-8.6-3.646-9.039-3.848L106.8,401.99a11.717,11.717,0,0,1-2.742.375,16.61,16.61,0,0,1-2.52-.334A6.65,6.65,0,0,0,100.637,408.435Z" transform="translate(443.745 3072.035)" fill="#001118"/>
    <path id="Path_701" data-name="Path 701" d="M126.986,237.929a6.1,6.1,0,0,1-2.174,1.516H124.8c-2.048.922-5.371,1.592-10.551,1.756,0,0-1.037.342-.772,2.477.038.252.088.53.152.822.67,2.88,1.6,5.546.278,5.37-1.568-.19-2.236-6.2-4.6-4.182-.834.72-.656,2.008-.43,3.082a15.364,15.364,0,0,0,.96,2.932c1.125,2.49,1.909,4.512,1.846,6.091-.026.392-.19.53-.366.568a.891.891,0,0,1-.494-.038c-.366-.114-.77-1.428-1.516-2.768a51.711,51.711,0,0,1-3.716-8.176c-.24-.67-.467-1.34-.656-2q-.246-.8-.418-1.592v-.013c-.96-4.246-.366-8.252,4.79-12,6.584-4.8,15.467-1.012,15.467-1.012S129.589,234.859,126.986,237.929Z" transform="translate(444.632 3033.252)" fill="#301b2c"/>
    <path id="Path_702" data-name="Path 702" d="M102.8,335.009l-15.4-22.63,29.791-23.2,15.4,22.63Z" transform="translate(440.873 3046.693)" fill="#c98455"/>
    <path id="Path_703" data-name="Path 703" d="M132.934,311.725,114.482,326.1l-.419.325-10.918,8.508-17.289-22.2,11.421-8.9,2.525-1.959,15.843-12.343Z" transform="translate(440.526 3046.773)" fill="#e59a67"/>
    <path id="Path_704" data-name="Path 704" d="M112.388,323.836l-.42.326a24.031,24.031,0,0,1-1.445-2.127,6.26,6.26,0,0,1-.6-2.023l-.754-.764h-.566s-1.143-.745-5.333-5.942a126.371,126.371,0,0,1-8.09-11.734l2.525-1.959,9.284,9.43Z" transform="translate(442.621 3049.037)" fill="#d38e5f"/>
    <path id="Path_705" data-name="Path 705" d="M106.6,314.944a10.734,10.734,0,0,1,1.972,3.352c.251.949,3.03-2.956,3.03-2.956l-2.054-3.111" transform="translate(445.187 3051.872)" fill="#feaf84"/>
    <path id="Path_706" data-name="Path 706" d="M102.529,259.27s-7.987,1.624-12.212,38.952l8.848,4.221s9.753-29.6,8.771-35.268S106.752,258.531,102.529,259.27Z" transform="translate(441.528 3039.95)" fill="#02afbe"/>
    <path id="Path_707" data-name="Path 707" d="M90.317,292.323s8.77,18.705,19.947,29.364l3.68-2.548s-6.919-18.928-15.255-29.764S90.317,292.323,90.317,292.323Z" transform="translate(441.528 3045.804)" fill="#02afbe"/>
    <path id="Path_708" data-name="Path 708" d="M114.65,316.549l-.53.414a13.753,13.753,0,0,0-3.092-1.888,1.019,1.019,0,0,0-.32-.294c.615-.273,1.451-.7.758-.709-1.024-.018-1.294-.549-1.294-.549l-.955.48.688.724a5.1,5.1,0,0,0-1.875,1.6l-.3-.387a6.05,6.05,0,0,0,.191,2.062,14.442,14.442,0,0,0,1.293,2.717l0-.013c.124.247.824,1.037,1.3,1.037a.99.99,0,0,0,.783-.468c.2-.185.364-.054.692-.262s.306-.5.627-.77c.159-.135.615-.089.938-.24s.42-.6.615-.747c.388-.3.76-.2,1.029-.734S114.65,316.549,114.65,316.549Z" transform="translate(445.435 3052.162)" fill="#feaf84"/>
    <path id="Path_709" data-name="Path 709" d="M109.228,313.66a1.142,1.142,0,0,1,.927.067,10.085,10.085,0,0,1,2.165.745,24.506,24.506,0,0,1,3.082,2.2c.174.307-.175.745-1.157.723s-4.693-1.986-4.693-1.986" transform="translate(445.776 3052.178)" fill="#feaf84"/>
    <path id="Path_710" data-name="Path 710" d="M127.472,242.449a26.74,26.74,0,0,1-13.167-.418c-.278.076-.582.152-.9.228-2.224.544-5.256,1.112-7.14,1.454-.606.113-1.1.2-1.4.252q-.246-.8-.418-1.592v-.013c.178-.442.367-.884.38-.972a11.952,11.952,0,0,1,1.466-1.086c.77-.531,1.6-1.087,1.832-1.252.43-.342,9.439-3.386,9.591-3.386.1,0,4.106,1.376,7.013,2.362h.012c1.024.354,1.9.67,2.426.834C127.27,239.845,127.383,241.083,127.472,242.449Z" transform="translate(444.702 3034.672)" fill="#feaf84" opacity="0.43" style="mix-blend-mode: multiply;isolation: isolate"/>
    <g id="Group_114" data-name="Group 114" transform="translate(547.96 3259.746)">
      <path id="Path_711" data-name="Path 711" d="M128.735,237.4h0c-.573-2.9-3-10.9-12.229-10.111-13.7,1.173-14.007,10.157-12.314,16.819h0a.972.972,0,0,0-.423,1.031.807.807,0,0,0,.839.445,23.566,23.566,0,0,0,3.434-.654c5.118-1.041,14.734-3.266,20.357-6.237a.617.617,0,0,0,.5-.263C129.555,237.668,128.735,237.4,128.735,237.4Z" transform="translate(-103.476 -226.967)" fill="#02afbe"/>
      <path id="Path_712" data-name="Path 712" d="M108.159,229.179s10.362-2.577,14,11.771a24.146,24.146,0,0,0,4.112-1.608s-2.2-11.109-10.816-12C115.454,227.338,111.041,225.877,108.159,229.179Z" transform="translate(-102.424 -227.016)" fill="#58dce8"/>
      <path id="Path_713" data-name="Path 713" d="M111.7,241.109a27.679,27.679,0,0,0,15.286-.026s5.811-1.734.059-4.709Z" transform="translate(-101.627 -224.914)" fill="#02afbe"/>
    </g>
    <path id="Path_714" data-name="Path 714" d="M240.047,408.129c0,1.9-17.5,3.444-39.094,3.444s-39.093-1.543-39.093-3.444,17.5-3.446,39.093-3.446S240.047,406.226,240.047,408.129Z" transform="translate(457.599 3072.64)" fill="#fcf2eb"/>
    <path id="Path_715" data-name="Path 715" d="M162.882,291.972c-3.356-.4-5.315-1.88-7.274-2.585s-2.05.851-3.382.7-8.076.841-6.295,1.65,5.84-.07,6.022.7.273.759-.256,2.617,2.226,2.152,3.964,2.661,3.684-1.468,4.7-1.345,3.976.086,3.976.086,20.886,2.4,24.065,1.673,5.05-19.749,5.05-19.749l-9.021-.735s-1.876,12.348-2.3,12.821C177.87,290.387,162.882,291.972,162.882,291.972Z" transform="translate(453.954 3044.102)" fill="#ffccb0"/>
    <path id="Path_716" data-name="Path 716" d="M184.066,259.126s-3.642,1.843-5.419,12.128l-1.974,12.709s1.026,1.645,9,1.73" transform="translate(460.926 3039.943)" fill="#303030"/>
    <g id="Group_122" data-name="Group 122" transform="translate(634.295 3295.555)">
      <g id="Group_121" data-name="Group 121" transform="translate(8.429)">
        <g id="Group_117" data-name="Group 117" transform="translate(45.07 174.661)" opacity="0.8" style="mix-blend-mode: multiply;isolation: isolate">
          <path id="Path_717" data-name="Path 717" d="M217.673,398.88l-.013.015h.013Z" transform="translate(-217.66 -398.88)" fill="#65b0c4"/>
        </g>
        <g id="Group_120" data-name="Group 120">
          <path id="Path_718" data-name="Path 718" d="M219.448,267.5a45.467,45.467,0,0,1-.835,7.078c-1.281,7.242-4.35,15.931-6.432,21.328a17.256,17.256,0,0,0-.775,9.958c1.47,6.608-.2,7.043-.2,7.043s-8.947,5.679-16.389,8c-4.738,1.481-8.865,1.422-9.617-2.763a5.759,5.759,0,0,1-.094-.682c-.882-.176-.823-1.083-.753-1.446.024-.118.059-.411.094-.741.071-.517.13-1.14.13-1.34.258-13.227-1.975-12.545-2.657-27.36-.705-15.2,1.519-22.606,1.874-27.029a58.053,58.053,0,0,1,11.033-2.937,26.143,26.143,0,0,1,9.11.1c1.632.316,3.509.745,5.238,1.152C216.955,259.7,219.507,261.753,219.448,267.5Z" transform="translate(-180.65 -256.257)" fill="#303030"/>
          <path id="Path_719" data-name="Path 719" d="M207.39,312.452c.637.1,2.264-2.754,2.264-2.754l-.683-.906a3.047,3.047,0,0,0-1.537-1.076l-.111-.034a1.312,1.312,0,0,0-1.473.506c-.467.692-1.189,1.483-2.027,1.452h-.015a.194.194,0,0,1-.089.015C202.979,309.67,206.753,312.348,207.39,312.452Z" transform="translate(-175.744 -244.719)" fill="#f4d5b5"/>
          <path id="Path_724" data-name="Path 724" d="M205.55,307.767a11.492,11.492,0,0,1-1.318,1.443c-.3.167-.354-.186-.239-.436S205.506,307.429,205.55,307.767Z" transform="translate(-175.673 -244.701)" fill="#e5bb98"/>
          <path id="Path_725" data-name="Path 725" d="M215.082,395.84s-.411,7.355-.415,8.326c0,.547-3.609,1.149-5.276,0-.162-2.706-1.013-8.315-1.068-9.922" transform="translate(-174.688 -225.26)" fill="#ffbe9d"/>
          <path id="Path_726" data-name="Path 726" d="M213.552,335.262s10.189-17.389-3.6-32.742c0,0-9.486,4.247-17.082,4.759a37.562,37.562,0,0,1-9.019-.216,152.515,152.515,0,0,0-2.044,29.822Z" transform="translate(-180.657 -245.865)" fill="#02a1af"/>
          <path id="Path_727" data-name="Path 727" d="M190.1,393.5l-.9,10.869-2.771,1.2-2.49-1.242-.409-9.652" transform="translate(-180.257 -225.427)" fill="#ffbe9d"/>
          <path id="Path_728" data-name="Path 728" d="M221.591,427.515c-.394-12.573.626-38.275-5.365-49.576l-.011-.02c-.023-.227-.042-.445-.072-.68-.8-6.042.329-35.059.7-40.7.129-1.975-1.6-3.719-3.676-5.168,2.594-1.315,4.213-2.219,4.213-2.219-1.065-8.754-2.889-12.43-3.761-19.638s3.474-21.746,4.014-29.781c-.961,1.822-5.03,4.254-6.9-2.264s1.118-19.282,1.118-19.282a16.94,16.94,0,0,0-3.449-.882c-2.165,5-3.957,14.3-3.957,14.3-12.614-1.572-18.967-.334-19.064-.317a83.089,83.089,0,0,1,.272-12.621,8.209,8.209,0,0,0-2.715.813,129.36,129.36,0,0,0-1.076,12.914c-.642,6.188.121,24.158.121,32.8,0,5.532-.533,22.216-.822,30.835-.047.283-.085.563-.1.833-.036.478-.06,2.109-.075,4.45h0c-.069,10.253.015,34.16-.032,34.92a22.462,22.462,0,0,0-.044,2.949,14.676,14.676,0,0,0-.044,1.635c.409,9.388,2.633,30.866,2.618,50.05,2.626,1.57,5.946,1.21,7.228.249,1.985-16.557,7.8-37.217,2.067-51.422,1.842-6.927,4.583-17.7,6.311-25.979,1.267,8.121,3.548,19.813,5.561,27.3.006.024.01.048.015.072,2.176,9.213,8.586,38.755,9.74,49.456.378,1.778,6.277,1.152,7.3.278C221.732,430.708,221.591,427.66,221.591,427.515ZM198.359,338.7c-.05-.229-.115-.448-.174-.672l.3-.11Q198.416,338.3,198.359,338.7Z" transform="translate(-180.857 -256.022)" fill="#02afbe"/>
          <path id="Path_729" data-name="Path 729" d="M190.695,402.084c-1.329,13.987-1.645,15.133-1.645,15.133,1.879-15.667,7.159-34.243,2.893-49.016a9.8,9.8,0,0,1-.146-5.075c2.252-9.188,5.341-20.966,6.635-28.523l-1.9-1.532s-3.08-13.4-3.81-13.856c-.73-.468.131,4.554.583,10.76.468,6.205,1.461,10-.087,17.433s-4.393,13.854-4.977,18.029C190.456,371.915,192.037,388.083,190.695,402.084Z" transform="translate(-179.198 -242.121)" fill="#02a1af"/>
        </g>
      </g>
      <path id="Path_730" data-name="Path 730" d="M192.247,408.791a.437.437,0,0,1-.425.293H175.6c-.971.053-1.56-.315-1.62-.758-.094-.708.573-.978.927-1.109,0,0,8.6-3.646,9.039-3.848l2.135-1.023a11.717,11.717,0,0,0,2.742.375,16.589,16.589,0,0,0,2.519-.334A6.649,6.649,0,0,1,192.247,408.791Z" transform="translate(-173.975 -223.44)" fill="#001118"/>
      <path id="Path_731" data-name="Path 731" d="M217.577,408.791a.437.437,0,0,1-.425.293H200.935c-.971.053-1.56-.315-1.619-.758-.094-.708.572-.978.926-1.109,0,0,8.6-3.646,9.039-3.848l2.136-1.023a11.7,11.7,0,0,0,2.742.375,16.616,16.616,0,0,0,2.519-.334A6.65,6.65,0,0,1,217.577,408.791Z" transform="translate(-168.284 -223.44)" fill="#001118"/>
    </g>
    <path id="Path_732" data-name="Path 732" d="M195.728,321.274a2.541,2.541,0,0,0-2.54,2.54v4.067h1.542v-3.87a1.2,1.2,0,0,1,1.2-1.2h17.761a1.2,1.2,0,0,1,1.2,1.2v3.87h1.542v-4.067a2.541,2.541,0,0,0-2.54-2.54Z" transform="translate(464.636 3053.903)" fill="#7e3838"/>
    <path id="Path_733" data-name="Path 733" d="M205.6,313.9s-1,2.759-2.455,3.744c-.557.375-3.322,2.01-3.614,2.656a18.692,18.692,0,0,0-1.463,3.136c-.037.6.487,2.331.965,2.482s-.245,1.358.263,1.83a1.448,1.448,0,0,0,1.8.19c.5-.383,1.144.268,1.574.08a6.41,6.41,0,0,1,1.086-.552c.375-.074.55.427,1.334.049.719-.348.642-.568.992-.767s.53.093,1.061-.462a9.488,9.488,0,0,0,1.39-2.452,7.51,7.51,0,0,0,.5-3.733,11.715,11.715,0,0,1,1.689-5.15Z" transform="translate(465.733 3052.247)" fill="#ffccb0"/>
    <path id="Path_734" data-name="Path 734" d="M199.222,324.291a6.641,6.641,0,0,0,.372-2.5c.06-.61.307-.732.348-1.385.476.723-.017.916.029,2.3a2.365,2.365,0,0,1-.411,1.779.2.2,0,0,1-.338-.191Z" transform="translate(465.989 3053.709)" fill="#f2a181"/>
    <path id="Path_735" data-name="Path 735" d="M195.725,321.272h5.282a1.936,1.936,0,0,0-.062.328c-.038.418-.026.8-.051,1.214h-4.966a1.208,1.208,0,0,0-1.2,1.2v3.866h-1.542v-4.068A2.54,2.54,0,0,1,195.725,321.272Z" transform="translate(464.636 3053.903)" fill="#7e3838"/>
    <path id="Path_736" data-name="Path 736" d="M212.486,296.426a37.191,37.191,0,0,0-2.867,6.807c-.666,2.742-6.291,18.2-6.291,18.2l3.476,2.722s11.663-17.773,12.613-23.781c.272-1.727-2.826-6.4-2.826-6.4Z" transform="translate(466.914 3047.772)" fill="#ffccb0"/>
    <path id="Path_737" data-name="Path 737" d="M208.037,283.093s1.885,12.556,3.391,15.877,6.93,3.948,6.93,3.948a92.2,92.2,0,0,0,.262-20.265" transform="translate(467.972 3045.228)" fill="#ffccb0"/>
    <path id="Path_738" data-name="Path 738" d="M219.7,289.937a51.151,51.151,0,0,1-10.837.271c-2.59-8.808-4.349-19.737-3.793-22.935.986-5.674.872-9.616,4.739-8.1C209.809,259.173,220.941,262.833,219.7,289.937Z" transform="translate(467.282 3039.88)" fill="#303030"/>
    <path id="Rectangle_92" data-name="Rectangle 92" d="M1.238,0H35.267a1.238,1.238,0,0,1,1.238,1.238V4.422a0,0,0,0,1,0,0H0a0,0,0,0,1,0,0V1.238A1.238,1.238,0,0,1,1.238,0Z" transform="translate(651.189 3381.784)" fill="#605c5a"/>
    <path id="Rectangle_93" data-name="Rectangle 93" d="M0,0H35.816a0,0,0,0,1,0,0V12.823a.477.477,0,0,1-.477.477H.477A.477.477,0,0,1,0,12.823V0A0,0,0,0,1,0,0Z" transform="translate(651.534 3386.205)" fill="#605c5a"/>
    <rect id="Rectangle_94" data-name="Rectangle 94" width="35.816" height="0.565" transform="translate(651.534 3386.205)" fill="#474341"/>
    <rect id="Rectangle_95" data-name="Rectangle 95" width="3.686" height="3.37" rx="0.327" transform="translate(655.682 3384.52)" fill="#02afbe"/>
    <rect id="Rectangle_96" data-name="Rectangle 96" width="3.686" height="3.37" rx="0.327" transform="translate(679.497 3384.52)" fill="#02afbe"/>
    <g id="Group_123" data-name="Group 123" transform="translate(648.569 3264.899)">
      <path id="Path_739" data-name="Path 739" d="M188.213,242.156a1.063,1.063,0,0,0-2.045-.326,6.354,6.354,0,0,0-.463,3.762c.152,1.421,1.288,1.542,2.219,1.61" transform="translate(-185.631 -228.99)" fill="#ffccb0"/>
      <path id="Path_740" data-name="Path 740" d="M190.489,253.264a38.954,38.954,0,0,1,.629,4.949c-.374.639-1.859,1.187-1.859,1.187a4.175,4.175,0,0,0,4.171,4.008c7.178.353,8.75-4.722,8.75-4.722s-1.6-.554-1.672-1.041-.191-9.664-.191-9.664" transform="translate(-184.815 -227.459)" fill="#ffccb0"/>
      <path id="Path_741" data-name="Path 741" d="M194.031,233.68c-1.216.525-4.65.314-5.374,1.826s-1.049,4.962-1.263,5.932c-.425,1.931-.593,3.953-.822,5.913-.3,2.555-.725,7.217,1.978,8.931a3.241,3.241,0,0,0,1.992.676c1.17.044,2.338.115,3.507.157,1.811.064,3.822.153,5.495-.667,2.235-1.1,3.059-4.5,3.348-6.78l1.657-13.033Z" transform="translate(-185.468 -230.672)" fill="#ffccb0"/>
      <path id="Path_742" data-name="Path 742" d="M203.812,247.859c-.862-.352-1.542-.756-1.951.081-.217.443-.3,1.026-.752,1.232a.949.949,0,0,1-1.172-.6,2.754,2.754,0,0,1-.031-1.456q.259-1.611.517-3.223a4.7,4.7,0,0,0-.218-3.122,3.435,3.435,0,0,0-1.154-1.108,10.44,10.44,0,0,0-5.025-1.348,50.969,50.969,0,0,1-5.249-.316,5.584,5.584,0,0,1-2.081-.7c-1.008-.634,12.477-6.827,15.368-6,2,.574,3.641.9,4.02,3.964a1.127,1.127,0,0,0,.438.432c1.888,1.294,3.741,2.2,3.882,5.006a25.747,25.747,0,0,1-2.638,11.161,6.39,6.39,0,0,1-1.19,1.923,3.855,3.855,0,0,1-2.616,1c-.862-.04-2.5.268-2.642-.583-.1-.61,1.051-1.887,1.342-2.431" transform="translate(-185.403 -231.224)" fill="#7c4e50"/>
      <path id="Path_743" data-name="Path 743" d="M198.551,248.625a1.077,1.077,0,0,0,1.767.981,3.71,3.71,0,0,0,1.913-3.179c.065-1.505-.932-2.857-2.219-2.284a2,2,0,0,0-.99,2.11" transform="translate(-182.729 -228.352)" fill="#ffccb0"/>
      <path id="Path_744" data-name="Path 744" d="M190.328,252.717l3.828.152a4.576,4.576,0,0,1-3.447,2.242" transform="translate(-184.575 -226.396)" fill="#f2a181"/>
    </g>
    <g id="Group_124" data-name="Group 124" transform="translate(647.758 3259.698)">
      <path id="Path_745" data-name="Path 745" d="M201.962,240.265s-4.328,3.667-15.3.468c-.828-.241-3.364-1.98,0-3.451Z" transform="translate(-184.968 -224.662)" fill="#02afbe"/>
      <path id="Path_746" data-name="Path 746" d="M186.462,238.48h0c.252-2.856,1.763-10.827,10.755-11.018,13.334-.283,14.563,8.353,13.617,14.954h0a.943.943,0,0,1,.514.95.782.782,0,0,1-.763.516,22.97,22.97,0,0,1-3.381-.276c-5.045-.475-14.552-1.629-20.285-3.915a.6.6,0,0,1-.509-.2C185.7,238.823,186.462,238.48,186.462,238.48Z" transform="translate(-184.712 -226.869)" fill="#02afbe"/>
      <path id="Path_747" data-name="Path 747" d="M204.095,228.592s-10.264-1.416-12.29,12.8a23.448,23.448,0,0,1-4.133-1.125s.978-10.946,9.2-12.7C196.867,227.57,200.973,225.7,204.095,228.592Z" transform="translate(-184.361 -226.977)" fill="#58dce8"/>
    </g>
    <path id="Path_748" data-name="Path 748" d="M477.91,408.129c0,1.9-17.5,3.444-39.094,3.444s-39.093-1.543-39.093-3.444,17.5-3.446,39.093-3.446S477.91,406.226,477.91,408.129Z" transform="translate(511.031 3072.64)" fill="#fcf2eb"/>
    <g id="Group_127" data-name="Group 127" transform="translate(882.379 3280.315)">
      <path id="Path_749" data-name="Path 749" d="M376.553,248.364l22.108,67.975a140.241,140.241,0,0,0,31.114-1.148c11.908-1.863,23.387-8.563,23.387-8.563l-18.19-62.816s-14.108,3.8-24.488,5.025A139.378,139.378,0,0,1,376.553,248.364Z" transform="translate(-376.553 -243.812)" fill="#dedede"/>
      <path id="Path_750" data-name="Path 750" d="M421.927,289.136a12.508,12.508,0,0,0,.056-6.209l-2.277.253a11.743,11.743,0,0,0-1.325-3.264l1.806-1.444a12.5,12.5,0,0,0-4.35-4.431l-1.444,1.805a11.764,11.764,0,0,0-3.231-1.389l.256-2.3a12.514,12.514,0,0,0-6.21-.056l.256,2.286a11.761,11.761,0,0,0-3.269,1.31l-1.441-1.8a12.5,12.5,0,0,0-4.43,4.351l1.792,1.433a11.767,11.767,0,0,0-1.391,3.24l-2.281-.255a12.509,12.509,0,0,0-.056,6.209l2.269-.252a11.767,11.767,0,0,0,1.319,3.273l-1.794,1.433a12.514,12.514,0,0,0,4.351,4.431l1.425-1.784a11.777,11.777,0,0,0,3.245,1.4l-.252,2.266a12.509,12.509,0,0,0,6.209.056l-.251-2.255a11.762,11.762,0,0,0,3.283-1.32l1.422,1.779a12.5,12.5,0,0,0,4.431-4.35l-1.778-1.422a11.756,11.756,0,0,0,1.385-3.25Zm-6.467-2.978a7.278,7.278,0,1,1-7.512-7.513A7.3,7.3,0,0,1,415.46,286.157Z" transform="translate(-372.628 -237.538)" fill="none" stroke="#c0621c" stroke-miterlimit="10" stroke-width="0.539" opacity="0.2"/>
      <path id="Path_751" data-name="Path 751" d="M429.231,269.34a8.711,8.711,0,0,0,.039-4.325l-1.586.176a8.206,8.206,0,0,0-.922-2.273l1.258-1.005a8.692,8.692,0,0,0-3.03-3.086l-1.005,1.258a8.224,8.224,0,0,0-2.251-.969l.179-1.6a8.711,8.711,0,0,0-4.325-.039l.178,1.592a8.181,8.181,0,0,0-2.277.914l-1-1.255a8.692,8.692,0,0,0-3.086,3.03l1.248,1a8.214,8.214,0,0,0-.969,2.257l-1.59-.178a8.712,8.712,0,0,0-.039,4.325l1.581-.176a8.172,8.172,0,0,0,.918,2.28l-1.249,1a8.692,8.692,0,0,0,3.03,3.086l.993-1.242a8.205,8.205,0,0,0,2.261.974l-.176,1.579a8.711,8.711,0,0,0,4.325.039l-.175-1.57a8.2,8.2,0,0,0,2.286-.92l.991,1.239a8.692,8.692,0,0,0,3.086-3.03l-1.238-.991a8.212,8.212,0,0,0,.965-2.264Zm-4.505-2.075a5.068,5.068,0,1,1-5.232-5.233A5.087,5.087,0,0,1,424.726,267.265Z" transform="translate(-369.085 -240.799)" fill="#c0621c" opacity="0.2"/>
      <path id="Path_752" data-name="Path 752" d="M412.873,267.339a10.327,10.327,0,0,0,.047-5.143l-1.886.211a9.721,9.721,0,0,0-1.1-2.7l1.5-1.2a10.378,10.378,0,0,0-3.605-3.67l-1.2,1.5a9.74,9.74,0,0,0-2.677-1.151l.212-1.9a10.366,10.366,0,0,0-5.143-.047l.211,1.895a9.751,9.751,0,0,0-2.708,1.085l-1.193-1.493a10.361,10.361,0,0,0-3.67,3.6l1.484,1.188A9.72,9.72,0,0,0,392,262.193l-1.891-.212a10.371,10.371,0,0,0-.047,5.145l1.88-.209a9.809,9.809,0,0,0,1.092,2.711l-1.485,1.188a10.36,10.36,0,0,0,3.6,3.67l1.182-1.478a9.757,9.757,0,0,0,2.688,1.16l-.209,1.876a10.332,10.332,0,0,0,5.145.047l-.208-1.868a9.74,9.74,0,0,0,2.72-1.092l1.178,1.474a10.378,10.378,0,0,0,3.67-3.605l-1.473-1.177a9.782,9.782,0,0,0,1.149-2.693Zm-5.358-2.466a6.029,6.029,0,1,1-6.222-6.225A6.049,6.049,0,0,1,407.515,264.873Z" transform="translate(-373.587 -241.764)" fill="#c0621c" opacity="0.2"/>
    </g>
    <g id="Group_135" data-name="Group 135" transform="translate(887 3262.712)">
      <g id="Group_128" data-name="Group 128" transform="translate(47.721 1.792)">
        <path id="Path_753" data-name="Path 753" d="M425.989,232.545s-9.424,1.9-4.781,11.883C426.6,256.015,425.989,232.545,425.989,232.545Z" transform="translate(-419.152 -230.533)" fill="#7c4e50"/>
        <path id="Path_754" data-name="Path 754" d="M423.3,236.267s-2.736,1.678-2.7,10.751c0,.314-1.111,2.993-1.211,3.309-.385,1.216.381,1.294,1.421,1.81.42,6.842,1.447,6.717,2.348,7.321,1.029.687,8.9-.934,13.946-3.438s6.769-9.978,4.634-14.562S429.209,232.316,423.3,236.267Z" transform="translate(-419.294 -230.035)" fill="#ffc8b0"/>
        <path id="Path_755" data-name="Path 755" d="M445.513,243.546c.81,4.3-1.294,10.871-9.726,13.716,0,0-.75-2.6-1.288-5.14s-7.686-5.457-10.788-8.234q-.231-.208-.434-.421a6.425,6.425,0,0,1-.073-8.45c1.738-2.141,5.575-5.681,12.452-3.349C441.793,233.749,444.512,238.233,445.513,243.546Z" transform="translate(-418.763 -230.902)" fill="#7c4e50"/>
        <path id="Path_756" data-name="Path 756" d="M424.631,249.2c1.325,1.436,1.577,4.341,1.466,7.116-.031.473-.06.944-.091,1.4a43.537,43.537,0,0,1-.758,5.217l9.726-.24a59.406,59.406,0,0,1,.239-9.364S421.5,245.8,424.631,249.2Z" transform="translate(-418.199 -226.99)" fill="#ffc8b0"/>
        <path id="Path_757" data-name="Path 757" d="M425.669,256.594a28.8,28.8,0,0,0,6.449-3.265c-2.724.885-6.358,1.863-6.358,1.863C425.729,255.664,425.7,256.136,425.669,256.594Z" transform="translate(-417.861 -225.864)" fill="#f2a181"/>
      </g>
      <g id="Group_129" data-name="Group 129" transform="translate(48.602 85.076)">
        <path id="Path_758" data-name="Path 758" d="M420.013,315.3l15.2-16.389s9.207,9.737,7.5,20.428c-.839,5.259-2.366,8-2.867,10.509-.469,2.343-1.664,34.835-1,37.117s4.207,8.466,6.1,15.193c2.269,8.09,4.581,19.813,6.431,26.817s-1.193,16.348-1.85,13.982c-5.619-20.216-20.339-43.476-22.744-53.633S422.53,340.254,420.013,315.3Z" transform="translate(-420.013 -298.909)" fill="#ffbe9d"/>
        <path id="Path_759" data-name="Path 759" d="M440.341,388.212s4.66,13.226,4.286,14.906c-.228,1.026-1.264,4.483-1.5,4.975-.094.2-3.433,2.848-1.215,2.793,2.19-.055,7.382-6.958,8.154-7.48a3.285,3.285,0,0,0,1.532-3.4c-.456-2.033-1.821-3.588-2.83-5.01s-1.806-5.461-1.806-5.461Z" transform="translate(-415.447 -278.848)" fill="#ffbe9d"/>
        <path id="Path_760" data-name="Path 760" d="M439.281,409.944c.862-1.328,3.593-2.866,3.593-2.866h0c.411-.523.745-.86.577-.523-.288.561,1.194.847,1.924.251,2.545-2.044,3.273-5.091,4.529-6.536,1.792-2.056.538-4.769.347-5.222a11.852,11.852,0,0,1,3.662,1.641,6.873,6.873,0,0,1,1.941,2.165,29.37,29.37,0,0,0,1.741,3.979l-2.414,1.921-2.338-2.12-.645.682a5.547,5.547,0,0,0-1.243,2.545,13.7,13.7,0,0,1-.609,1.888,5.836,5.836,0,0,1-1.781,2.473l-1.026.843a4.305,4.305,0,0,1-2.726.974h-4.147l0,0h-.636a1.091,1.091,0,0,1-1.112-1.2A2.307,2.307,0,0,1,439.281,409.944Z" transform="translate(-415.769 -277.313)" fill="#001118"/>
      </g>
      <g id="Group_130" data-name="Group 130" transform="translate(36.416 83.275)">
        <path id="Path_761" data-name="Path 761" d="M410.569,429.837c.329-.437,4.214-1.433,5.993-2.372a10.684,10.684,0,0,0,3.941-4.494c.325-1.042-.229-6.122-.474-8.253-1.695-14.683-6.882-35.233-8.051-43.81-2.033-14.906-1.482-30.531,2.114-55.079l19.963-18.39s7.011,10.625,5.962,21.481c-.609,6.3-5.66,7.714-6.312,10.2s-10.131,42.463-10.131,42.463a73.3,73.3,0,0,1,4.254,17.342c.833,7.835-1.364,16.66-1.212,25.737.081,1.77.157,6.015.8,7.311.785,1.588,2.58,3.375,2.686,5.457a3.207,3.207,0,0,1-2.182,3.043c-1.477.609-2.4-.193-2.928-.168-3.035.147-3.684,2.3-8.9,2.77a8.29,8.29,0,0,1-5.375-1.688A1.109,1.109,0,0,1,410.569,429.837Z" transform="translate(-410.004 -297.438)" fill="#ffbe9d"/>
        <path id="Path_762" data-name="Path 762" d="M410.345,408.637a3.889,3.889,0,0,0,1.08,1.2,5.512,5.512,0,0,0,3.359,1.051h2.555a5.871,5.871,0,0,0,2.95-.791,14.009,14.009,0,0,0,1.658-1.073,5.516,5.516,0,0,1,2.581-1.183,7.549,7.549,0,0,1,1.648-.036l.18,3.082h3.524a17.39,17.39,0,0,1,.9-4.409,5.972,5.972,0,0,0-.251-2.7,12.563,12.563,0,0,0-2.271-3.574c-.143.479-.884,3.37-3.584,3.825-1.876.322-4.373,2.221-7.636,2.186-.944,0-1.912-1.159-1.339-1.41s-1.04.036-2.067.407a29.67,29.67,0,0,0-3.321,1.636C409.951,407.048,410,407.992,410.345,408.637Z" transform="translate(-410.062 -274.354)" fill="#001118"/>
      </g>
      <path id="Path_763" data-name="Path 763" d="M450.984,281.959s-1.029,5.26-1.672,7.427-3.823,15.928-6.837,15.689-19.521-14.021-19.521-14.021l2.338-4.676,14.53,6.927s1.313-15.73,2.464-19.477Z" transform="translate(-370.75 -219.466)" fill="#ffc8b0"/>
      <path id="Path_764" data-name="Path 764" d="M445.335,281.427c-1.537,5.437-3.778,14.636-4.911,16.207-.508.7-10.973-3.635-11-7.414l10.1-11.448Z" transform="translate(-369.296 -218.356)" fill="#f2a181"/>
      <path id="Path_765" data-name="Path 765" d="M434.919,260.292a17.576,17.576,0,0,1,8.827,2.994c6.295,4.681,4.8,22.367,4.8,22.367s.307.923-3.875.689a30.107,30.107,0,0,1-7.536-1.425l1.209-14.178Z" transform="translate(-368.062 -222.507)" fill="#303030"/>
      <path id="Path_766" data-name="Path 766" d="M444.338,269.033s.528,10.172-1.313,15.306a16.671,16.671,0,0,1-3.413-.448Z" transform="translate(-367.008 -220.544)" fill="#6d2b2b"/>
      <path id="Path_767" data-name="Path 767" d="M438.127,261.736c-.171-1.152-.482-2.495-1.555-2.949a3.393,3.393,0,0,0-.947-.2,31.131,31.131,0,0,0-6.2-.471,9.206,9.206,0,0,0-4,.7c-1.917.958-2.971,3.022-3.9,4.955Z" transform="translate(-371.072 -222.999)" fill="#6d2b2b"/>
      <path id="Path_768" data-name="Path 768" d="M453.712,407.734c-1.282-5.661-4.573-20.264-6.914-26.467s-5.588-12.882-5.708-13.9c-.1-.85.757-7.115,1.04-9.141a.227.227,0,0,0,.047-.14c-.029-.7,3.413-26.469,4.55-30.378a32.678,32.678,0,0,0,2.072-13.183c-.394-7.059-6.009-15.474-7.54-17.005l-25.974-.424s-4.477,10.588-4.914,17.136c-.9,13.8.481,42.862.481,42.862l.055.026a108.506,108.506,0,0,0,.811,11.313c.781,5.728,8.748,52.512,8.748,52.512a14.342,14.342,0,0,0,7.082-.784,4.8,4.8,0,0,1-.058-1.007c-.3-5.638,2.259-23.588,0-34.57s-3.163-13.344-3.163-13.344l2.469-11.994c.034-.2.087-.694.159-.692a93.823,93.823,0,0,0,1.768,11.48c1.184,4.388,12.533,29.031,17.037,39.645,1.542,3.632,2.929,7.7,2.929,7.7s5.409-.62,6.949-3.006A35.822,35.822,0,0,1,453.712,407.734Z" transform="translate(-373.646 -214.239)" fill="#3e2739"/>
      <path id="Path_769" data-name="Path 769" d="M414.969,301.374c.912-1.793,1.71-9.342,1.4-11.27-.337-2.068-2.166-3.18-2.992-7.781a17.017,17.017,0,0,1,2.726-12.506c1.92-2.791,4.558-8.454,5.1-8.619,8.025-2.442,9.33-1.276,14.726-1.04a35.83,35.83,0,0,1,7,.808c2.9.639,6.384,1.608,6.98,5.544a39.641,39.641,0,0,1-1.7,18.018c-1.227,3.827-5.283,21.328-5.158,22.059.459,2.676-3.865,3.333-8.176,3.829a68.733,68.733,0,0,1-12.419-.077C410.265,309.517,414.589,302.121,414.969,301.374Z" transform="translate(-372.961 -222.646)" fill="#7e3838"/>
      <g id="Group_133" data-name="Group 133" transform="translate(0 40.051)">
        <path id="Path_770" data-name="Path 770" d="M424.461,278.015s-11.439,19.729-16.871,19.729c-3.112,0-20.533-20.805-20.533-20.805l5.9-1.586,14.236,9.8,8.643-14.229Z" transform="translate(-378.814 -260.169)" fill="#ffc8b0"/>
        <g id="Group_132" data-name="Group 132">
          <path id="Path_771" data-name="Path 771" d="M381.662,271.656a8.966,8.966,0,0,0-.053-1.09c-.132-.785-.661-1.451-.847-2.226a11.215,11.215,0,0,1-.113-1.863c-.047-.705-.478-1.892.1-1.979-.113-.448-.292-.953-.386-1.406-.072-.342-.054-1,.34-.947.585.081,1.233.865,1.61,1.23.5.486,1.264,1.759,1.706,2.3a6.468,6.468,0,0,0,2.168,1.719s-.278-.5-.067-.751c.327-.389,1.4.3,2.582.473.609.086,2.1,1.914,2.593,2.438s.963,3.756,1.1,4.423c.36,1.752,2.568,3.755,2.568,3.755l-5.07,2.5c-.122.058-.675-.674-.749-.758a3.394,3.394,0,0,0-1.145-.926c-1.561-1.526-3.88-2.27-5.219-4.043a5.213,5.213,0,0,1-1.111-2.8Z" transform="translate(-380.326 -262.142)" fill="#ffc8b0"/>
          <g id="Group_131" data-name="Group 131" transform="translate(5.527 5.194)">
            <path id="Path_772" data-name="Path 772" d="M385.17,266.437a6.76,6.76,0,0,0,2.206,1.315c.55.292.569.572,1.167.862-.862.169-.855-.37-2.168-.858a2.407,2.407,0,0,1-1.514-1.075.2.2,0,0,1,.309-.244Z" transform="translate(-384.839 -266.384)" fill="#f2a181"/>
          </g>
        </g>
      </g>
      <path id="Path_773" data-name="Path 773" d="M430.072,259.686c-2.568.133-10.812.7-15.877,8.136-2.836,4.163-5.935,9.066-7.334,12.937.674,2.3,5,6.972,8.986,6.922.2-.148,7.261-5.827,8.386-11.692Z" transform="translate(-374.365 -222.644)" fill="#303030"/>
      <path id="Path_774" data-name="Path 774" d="M444.287,303.435a15.122,15.122,0,0,0-.132,2.534,16.4,16.4,0,0,0,.145,1.835,15.557,15.557,0,0,0,.463,2.231,17.27,17.27,0,0,0,2.376,5.279c-15.179,4.962-35.928-.779-35.928-.779s.686-2.337,1.558-5.425c.211-.791.448-1.623.686-2.481.185-.7.383-1.412.58-2.125.238-.858.463-1.729.687-2.561.58-2.218,1.083-4.251,1.359-5.636a16.694,16.694,0,0,0-.436-8.607c14.889-9.5,8.2-27.3,8.2-27.3,3.657-1.214,9.359-.713,9.359-.713,13.12-.066,16.578,4.356,16.578,4.356,1.941,5.821,1.373,13.542-.158,18.268C448.774,284.876,445.2,296.676,444.287,303.435Z" transform="translate(-373.388 -222.665)" fill="#fff"/>
      <path id="Path_775" data-name="Path 775" d="M446.243,275.944c-4.619,2.771-10.3,2.452-14.239,1.7.185-3.153-.086-9.583-.086-9.583a84.97,84.97,0,0,1-1.293,9.288,26.294,26.294,0,0,1-3.387-1.01s3.1-15.249,3.1-21.949c-.012-5.764-6.085-9.719-6.085-9.719l10.28-13.282a16.208,16.208,0,0,1,10.389,12.052C446.07,248.3,446.243,275.944,446.243,275.944Z" transform="translate(-370.457 -229)" fill="#7c4e50"/>
      <path id="Path_776" data-name="Path 776" d="M436.7,316.34a21.376,21.376,0,0,1-3.732,7.956l-8.776,32.941s-.164-1.379-.342-3c2.845-11.984,6.4-27.785,6.814-29.361C431.258,322.621,435.458,321.254,436.7,316.34Z" transform="translate(-370.548 -209.917)" fill="#5275a0" opacity="0.35" style="mix-blend-mode: multiply;isolation: isolate"/>
      <path id="Path_777" data-name="Path 777" d="M443.769,295.666a15.12,15.12,0,0,0-.132,2.534,63.523,63.523,0,0,1-30.121-1.465c.238-.858.463-1.729.687-2.561C414.2,294.174,422.7,298.171,443.769,295.666Z" transform="translate(-372.87 -214.896)" fill="#02afbe"/>
      <path id="Path_778" data-name="Path 778" d="M444.477,301.406c-1,.277-1.677.448-1.677.448a64.915,64.915,0,0,1-30.318-1.373c.211-.791.448-1.623.686-2.481,1.386.765,10.049,4.062,29.009,1.648.425-.054,1.455-.421,1.837-.474A15.557,15.557,0,0,0,444.477,301.406Z" transform="translate(-373.103 -214.037)" fill="#02afbe"/>
      <g id="Group_134" data-name="Group 134" transform="translate(44.144)">
        <path id="Path_779" data-name="Path 779" d="M448.209,247.075c-.053.607-.976.607-.976.607a77.272,77.272,0,0,1-12.143-.2c-.093,0-.674-.027-1.571-.066q-.911-.02-1.9-.08a.619.619,0,0,0-.158,0c-5.108-.238-13.886-.752-14.849-1.531-1.373-1.1,3.642-2.416,3.642-2.416h.013c-.144-4.091.845-13.686,13.45-13.951a24.614,24.614,0,0,1,2.468.08h.013l.013.012c12.222,1.03,11.932,12.038,11.338,16.394A1.052,1.052,0,0,1,448.209,247.075Z" transform="translate(-416.373 -229.438)" fill="#02afbe"/>
        <path id="Path_780" data-name="Path 780" d="M445.064,247.058c-.053.607-.976.607-.976.607a77.27,77.27,0,0,1-12.143-.2c-.093,0-.674-.027-1.571-.066,7.405.158,10.7-1.61,10.7-1.61.986-14.845-7.509-16.1-8.012-16.275,12.222,1.03,11.932,12.038,11.338,16.394A1.052,1.052,0,0,1,445.064,247.058Z" transform="translate(-413.228 -229.421)" fill="#58dce8"/>
      </g>
    </g>
    <path id="Path_781" data-name="Path 781" d="M394.975,414.735H360.088l.313-1.079,5.877-19.971,1.111-3.758.643-2.206,1.112-3.76,2.141-7.293a6.512,6.512,0,0,1,12.494,0l2.141,7.293,1.111,3.76.644,2.206,1.111,3.758,5.876,19.971Z" transform="translate(502.128 3065.297)" fill="#005861"/>
    <rect id="Rectangle_97" data-name="Rectangle 97" width="45.598" height="2.705" rx="1.104" transform="translate(856.861 3480.03)" fill="#005861"/>
    <path id="Path_782" data-name="Path 782" d="M385.573,385.525h-19l1.111-3.759h16.776Z" transform="translate(503.585 3067.492)" fill="#02afbe"/>
    <path id="Path_783" data-name="Path 783" d="M387.65,390.4H365.143l1.111-3.759h20.285Z" transform="translate(503.263 3068.586)" fill="#02afbe"/>
    <path id="Path_784" data-name="Path 784" d="M394.975,407.093H360.088l.314-1.079h34.26Z" transform="translate(502.128 3072.939)" fill="#02afbe"/>
    <path id="Path_789" data-name="Path 789" d="M265.521,127.768l-3.545-14.685-6.149,1.485a39.493,39.493,0,0,0-9.345-12.855l3.289-5.383L236.88,88.455l-3.287,5.38a39.5,39.5,0,0,0-15.707-2.455l-1.482-6.14L201.72,88.784l1.483,6.14a39.5,39.5,0,0,0-12.859,9.351l-5.377-3.286-7.876,12.889,5.38,3.287a39.526,39.526,0,0,0-2.45,15.706l-6.145,1.484,3.545,14.683,6.146-1.484a39.535,39.535,0,0,0,9.348,12.854l-3.289,5.383,12.891,7.876,3.289-5.385a39.514,39.514,0,0,0,15.7,2.446l1.485,6.155,14.685-3.545-1.487-6.155a39.509,39.509,0,0,0,12.853-9.342l5.387,3.292,7.876-12.891-5.386-3.289a39.5,39.5,0,0,0,2.452-15.7Zm-39.085,31.207a28.711,28.711,0,1,1,21.156-34.657A28.708,28.708,0,0,1,226.435,158.975Z" transform="translate(460.298 3000.882)" fill="#a2dde2"/>
    <path id="Path_790" data-name="Path 790" d="M218.963,143.86a18.347,18.347,0,1,1,13.519-22.146A18.345,18.345,0,0,1,218.963,143.86Z" transform="translate(465.338 3005.922)" fill="#a2dde2"/>
    <path id="Path_791" data-name="Path 791" d="M437.25,172.85l-2.433-10.08-4.223,1.019a27.127,27.127,0,0,0-6.415-8.826l2.257-3.695-8.848-5.407-2.257,3.693a27.117,27.117,0,0,0-10.784-1.686l-1.018-4.215-10.081,2.433,1.019,4.215a27.127,27.127,0,0,0-8.828,6.421l-3.691-2.256-5.408,8.849,3.695,2.256a27.116,27.116,0,0,0-1.683,10.783l-4.219,1.019,2.433,10.08,4.22-1.019a27.142,27.142,0,0,0,6.417,8.825l-2.258,3.7,8.849,5.407,2.259-3.7a27.131,27.131,0,0,0,10.778,1.68l1.021,4.225,10.08-2.433-1.02-4.226a27.1,27.1,0,0,0,8.823-6.413l3.7,2.259,5.407-8.849-3.7-2.258a27.091,27.091,0,0,0,1.683-10.779Zm-26.833,21.425a19.711,19.711,0,1,1,14.524-23.793A19.708,19.708,0,0,1,410.417,194.275Z" transform="translate(505.328 3014.004)" fill="#a2dde2"/>
    <path id="Path_792" data-name="Path 792" d="M405.286,183.9a12.6,12.6,0,1,1,9.282-15.2A12.593,12.593,0,0,1,405.286,183.9Z" transform="translate(508.788 3017.464)" fill="#a2dde2"/>
    <path id="Path_793" data-name="Path 793" d="M299.979,408.129c0,1.9-17.5,3.444-39.1,3.444s-39.093-1.543-39.093-3.444,17.5-3.446,39.093-3.446S299.979,406.226,299.979,408.129Z" transform="translate(471.062 3072.64)" fill="#fcf2eb"/>
    <path id="Path_794" data-name="Path 794" d="M260.483,235.313a13.713,13.713,0,0,1,3.347,4.769,6.229,6.229,0,0,1-.462,5.63,2.6,2.6,0,0,1-2.638,1.261,2.892,2.892,0,0,1-.751-.363,10.077,10.077,0,0,1-4.578-7.165" transform="translate(478.612 3034.594)" fill="#7c4e50"/>
    <g id="Group_143" data-name="Group 143" transform="translate(699.828 3464.93)">
      <path id="Path_795" data-name="Path 795" d="M236.062,395.815s-1.744,5.065-2.247,6.336-4.262.1-4.48-.719,1.476-6.869,1.476-6.869" transform="translate(-227.076 -394.563)" fill="#fcb6ac"/>
      <path id="Path_796" data-name="Path 796" d="M228.636,400.57c-.457,1.347-1.3,3.267-1.124,3.945s4.949,2.7,6.017,3.353a13.4,13.4,0,0,0,3.449,1.309c3.171.567,5.6.016,5.844-.476,1.01-2.055-5.272-3.423-7.95-9.223a1.284,1.284,0,0,0-.969.437,2.207,2.207,0,0,1-2.682.541,3.541,3.541,0,0,1-1.319-1.511A2.438,2.438,0,0,0,228.636,400.57Z" transform="translate(-227.487 -393.579)" fill="#001118"/>
    </g>
    <g id="Group_144" data-name="Group 144" transform="translate(744.96 3468.27)">
      <path id="Path_797" data-name="Path 797" d="M270.073,397.291s-.122,5.355-.216,6.72-4.029,1.392-4.486.676-.682-6.993-.682-6.993" transform="translate(-264.262 -397.291)" fill="#fcb6ac"/>
      <path id="Path_798" data-name="Path 798" d="M264.429,404.238c-.026,1.423-.249,3.51.127,4.1s5.535,1.07,6.751,1.365a13.436,13.436,0,0,0,3.684.2c3.193-.424,5.342-1.689,5.423-2.23.338-2.266-6.063-1.659-10.376-6.372a1.286,1.286,0,0,0-.791.711,2.208,2.208,0,0,1-2.39,1.331,3.53,3.53,0,0,1-1.716-1.04A2.439,2.439,0,0,0,264.429,404.238Z" transform="translate(-264.34 -396.39)" fill="#001118"/>
    </g>
    <path id="Path_799" data-name="Path 799" d="M306.505,227.085c-.02-.583-.786-.358-1.014.105a3.214,3.214,0,0,0-.136.4c.14-.949.241-1.723.235-1.915-.017-.552-.723-.4-.99.012.043-.382.071-.671.069-.795-.01-.71-.784-.474-1.019.093a8.686,8.686,0,0,0-.244.963,4.491,4.491,0,0,0,.045-.534c-.018-.583-.7-.485-.923-.022a7.4,7.4,0,0,0-.285,1.107c-.132.574-.345,1.185-.467,1.763-.111.525-.938,2.973-2.2,3.138-1.934.25-.456-2.958-1.734-3.81-.4-.268-1.061,2.259-1.212,3.706a16.168,16.168,0,0,0-.153,3.038,20.176,20.176,0,0,1,.311,2.623,10.728,10.728,0,0,1-1.29,2.454l4.711,1.49a19.438,19.438,0,0,1,1.984-3.112,11.022,11.022,0,0,0,3.332-4.9,21.538,21.538,0,0,0,.869-3.842S306.511,227.276,306.505,227.085Z" transform="translate(487.619 3032.155)" fill="#fcb6ac"/>
    <path id="Path_800" data-name="Path 800" d="M264.99,261.236s15.237,1.124,24.27-7.457c7.359-8.695,14.576-18.39,15.129-19.3,1.258.6,3.941,2.11,3.941,2.11S298,255.363,294.243,259.535,283.2,270.447,268.792,272.9C262.674,264.581,264.99,261.236,264.99,261.236Z" transform="translate(480.669 3034.406)" fill="#fcb6ac"/>
    <path id="Path_801" data-name="Path 801" d="M277.671,366.161c.882-11.51-3.1-47.6-3.488-50.7s-2.572-3.5-4.24-4.011c-8.325-2.5-18.2,10.408-15.568,22,.037.187.088.387.14.588,1.565,6.716,10.4,28.3,9.776,34.534-4.835,13.057.653,40.113,2.307,51.491.2.006.4,0,.591-.01a33.809,33.809,0,0,0,6.5-.716S276.791,377.671,277.671,366.161Z" transform="translate(478.284 3051.626)" fill="#02afbe"/>
    <path id="Path_802" data-name="Path 802" d="M266.577,364.814c.3-4.252-4-38.041-5.059-37.58a1.84,1.84,0,0,0-.765.84c-.889,1.528-1.741,3.079-2.49,4.682a42.773,42.773,0,0,0-1.972,5.1c3.115,9.192,7.938,22.438,7.474,27.1-2.866,7.741-2.105,20.4-.665,31.8C262.544,381.759,266.337,368.206,266.577,364.814Z" transform="translate(478.811 3055.241)" fill="#02a1af"/>
    <path id="Path_803" data-name="Path 803" d="M278.279,305.3a39.459,39.459,0,0,1-9.462.617c-8-.209-18.145-4.259-18.145-4.259-10.2,11.045-4.595,23.977-4.949,28.23-.338,4.063-.311,23-1.1,34.5a5.029,5.029,0,0,1-.863,2.56c-7.572,10.776-10.946,36.179-13.879,49.9l-.11.484a35.192,35.192,0,0,0,6.864,1.915l.4-1.135c3.082-9.319,17.319-36.046,20.862-46.49,3.215-9.475,11.518-38.236,11.672-38.21l10.586,1.811A203.555,203.555,0,0,0,278.279,305.3Z" transform="translate(472.853 3049.498)" fill="#02afbe"/>
    <g id="Group_146" data-name="Group 146" transform="translate(722.044 3269.745)">
      <g id="Group_145" data-name="Group 145">
        <path id="Path_804" data-name="Path 804" d="M246.327,247.5a14.827,14.827,0,0,0,2.405,4.426c1.984,2.777,4.476,5.529,4.7,5.952,1.55,2.975-.694,5.752-.694,5.752l5.468,4.984,1.674,1.538,1.116-1.116,3.422-3.411.165-3.963a5.783,5.783,0,0,1-1.542-2.335c-.049-.16-.1-.31-.148-.458-.137-.447-.249-.832-.261-.931.385-.186,1.352-.569,3.063-1.525,1.822-1,2.306-3.237,1.835-5.357-.371-1.674-3-10.08-3-10.08-2.381-10.414-15.882-4.017-17.692-2.021S245.608,244.314,246.327,247.5Z" transform="translate(-245.628 -235.181)" fill="#fcb6ac"/>
      </g>
    </g>
    <path id="Path_805" data-name="Path 805" d="M263.649,256.557a30.209,30.209,0,0,0,14.763-2.012c3.938,4.632,5.535,12.074,5.535,12.074s-9.523,6.052-16.484,6.634A97.358,97.358,0,0,0,263.649,256.557Z" transform="translate(480.464 3038.914)" fill="#303030"/>
    <path id="Path_806" data-name="Path 806" d="M264.744,257.376a33.458,33.458,0,0,1,5.7,14.656c4.8-.936,12.31-5.087,13.258-6.05-2.114.683-11.132,4.038-12.366,1.26A43.01,43.01,0,0,0,264.744,257.376Z" transform="translate(480.71 3039.55)" fill="#303030"/>
    <g id="Group_147" data-name="Group 147" transform="translate(717.357 3295.331)">
      <path id="Path_807" data-name="Path 807" d="M276.911,327.833s-12.184,3.246-30.162,1c-1.9-.222-2.949-.351-4.949-.727,2.688-8.989,1.831-25.9,2.09-33.24,0,0,.273-14.926.377-20.732a56.715,56.715,0,0,1,.7-9.248,4.406,4.406,0,0,1,.9-2.157,52.658,52.658,0,0,1,4.392-3.3,11.419,11.419,0,0,1,7.936,4.455,12.707,12.707,0,0,1,1.781,6.5,19.951,19.951,0,0,1-.3,3.962l11.832-3.169s.053-.936,0-2.416c-.1-3.118-.688-8.651-3.338-12.639a7.036,7.036,0,0,1,3.118.287c.714.74,1.4,2.922,1.832,4.4a81.234,81.234,0,0,1,1.805,7.937c.208,1.13.389,2.286.572,3.456C279.015,295.982,276.911,327.833,276.911,327.833Z" transform="translate(-241.801 -256.074)" fill="#02afbe"/>
      <path id="Path_808" data-name="Path 808" d="M258.122,274.33l11.83-3.167s.563-9.184-3.332-15.047a22.878,22.878,0,0,0-3.266.3c.77,1.58.165,2.944-1.087,3.325-3.545,1.075-9.444-2.414-9.444-2.414a22.873,22.873,0,0,0-4.116,2.092C249.164,259.519,260.314,261.208,258.122,274.33Z" transform="translate(-240.25 -256.067)" fill="#303030"/>
    </g>
    <path id="Path_809" data-name="Path 809" d="M332.174,231.59,336.7,230.5l-2.608-10.8-4.524,1.092a29.039,29.039,0,0,0-6.874-9.457l2.419-3.96-9.481-5.794-2.419,3.958a29.06,29.06,0,0,0-11.554-1.806l-1.091-4.518-10.8,2.608,1.09,4.518a29.049,29.049,0,0,0-9.459,6.879L277.44,210.8l-5.794,9.482L275.6,222.7a29.054,29.054,0,0,0-1.8,11.553l-4.521,1.091,2.609,10.8,4.521-1.092a29.068,29.068,0,0,0,6.876,9.455l-2.42,3.96,9.482,5.794,2.421-3.96a29.071,29.071,0,0,0,11.549,1.8l1.094,4.527,10.8-2.607-1.092-4.529a29.064,29.064,0,0,0,9.454-6.871l3.963,2.421,5.794-9.482-3.962-2.421A29.051,29.051,0,0,0,332.174,231.59Z" transform="translate(481.729 3026.484)" fill="#0f9cab"/>
    <path id="Path_810" data-name="Path 810" d="M242.778,268.556s0,15.426,7.26,15.913c5.192.348,5.941-11.61,5.941-11.61Z" transform="translate(475.776 3042.061)" fill="#303030"/>
    <path id="Path_811" data-name="Path 811" d="M265.569,274.985c.207,1.728,0,2.052,0,2.052-14.34,4.118-20.459-1.636-20.459-1.636l12.119-7.028,2-.272,11.534-1.624,1.9-.26a13.7,13.7,0,0,1,1.52.246c.208,1.13.389,2.286.572,3.456A76.8,76.8,0,0,1,265.569,274.985Z" transform="translate(476.3 3041.536)" fill="#f29b75" opacity="0.49" style="mix-blend-mode: multiply;isolation: isolate"/>
    <g id="Group_148" data-name="Group 148" transform="translate(729.567 3259.405)">
      <path id="Path_812" data-name="Path 812" d="M256.243,282.878a57.216,57.216,0,0,0,17.423-8.057c2.32-1.674,4.7-4.728,5.2-7.544,1.506-8.421-1.179-23.638-2.473-29.212-3.777.244-4.541,1.04-4.541,1.04s-1.149,16.413-1,26.086c0,0-9.241,5.8-19.084,5.223" transform="translate(-251.771 -224.193)" fill="#fcb6ac"/>
      <path id="Path_813" data-name="Path 813" d="M268.853,242.131a11.1,11.1,0,0,0-.89-4.411c-.9-1.586-3.281-3.812-2.635-6.133a7.549,7.549,0,0,1,4.143-3.862c3.618-1.481,5.105-1.062,5.357-.258s-1.875,2.446-1.744,3.992.918,2.078,1.566,3.463c.974,2.082-1.23,4.575-1.222,5.906C273.433,241.775,268.853,242.131,268.853,242.131Z" transform="translate(-248.75 -226.737)" fill="#fcb6ac"/>
    </g>
    <path id="Path_814" data-name="Path 814" d="M255.684,264.737s3.054-.365,6.764-.552a43.337,43.337,0,0,1,3.081,12.032s-7,5.033-17.653,1.612a7.513,7.513,0,0,1-5.09-7.061c-.214-7.441,3.521-9.631,3.521-9.631S252.476,259.176,255.684,264.737Z" transform="translate(475.776 3040.319)" fill="#303030"/>
    <path id="Path_815" data-name="Path 815" d="M260.068,238.368c3.01-.938,4.731-.811,2.962-5.186-1.034-2.556-13.5,1.254-14.817,2.03-4.845,2.852-5.363,7.652-4.172,12.5,0,0,2.959,10.256,10.718,10.638a21.391,21.391,0,0,0-.795-4.722s-3.326-.988-3.889-2.864a1.716,1.716,0,0,1,1.421-2.093c.936-.022,1.657,1.151,1.657,1.151a19.921,19.921,0,0,0-.361-3.9,3.151,3.151,0,0,0-1.107-1.718C251.813,243.939,253.35,240.461,260.068,238.368Z" transform="translate(475.938 3033.919)" fill="#7c4e50"/>
    <path id="Path_816" data-name="Path 816" d="M255.675,253.927s1.587,1.252,4.96.769c-.137-.447-.249-.832-.261-.931A18.52,18.52,0,0,1,255.675,253.927Z" transform="translate(478.673 3038.739)" fill="#f2a49c"/>
    <path id="Path_817" data-name="Path 817" d="M242.983,306.752s22.839,3.342,34.467,1.552v6.526a97.76,97.76,0,0,1-35.649-1.651S241.58,308.958,242.983,306.752Z" transform="translate(475.554 3050.641)" fill="#58dce8"/>
    <rect id="Rectangle_99" data-name="Rectangle 99" width="0.649" height="3.927" rx="0.265" transform="translate(748.337 3363.56)" fill="#e2e2e2"/>
    <rect id="Rectangle_100" data-name="Rectangle 100" width="0.649" height="3.927" rx="0.265" transform="translate(749.623 3363.439)" fill="#e2e2e2"/>
    <rect id="Rectangle_101" data-name="Rectangle 101" width="0.649" height="3.927" rx="0.265" transform="translate(750.976 3363.439)" fill="#e2e2e2"/>
    <rect id="Rectangle_102" data-name="Rectangle 102" width="0.649" height="3.927" rx="0.265" transform="translate(752.193 3363.332)" fill="#e2e2e2"/>
    <path id="Path_818" data-name="Path 818" d="M266.506,313.069s-.366,3.439.2,3.789a12,12,0,0,0,5.079-.3c.366-.366.136-3.654.136-3.654Z" transform="translate(481.08 3052.024)" fill="#58dce8"/>
    <path id="Path_819" data-name="Path 819" d="M243.471,300.554l-.12,2.059a1.085,1.085,0,0,0,1.02,1.145l2.03.118L245.143,325.6a.48.48,0,0,0,.453.508l1.505.088a.483.483,0,0,0,.509-.453l1.259-21.73,2.173.126a1.084,1.084,0,0,0,1.145-1.019l.119-2.059a1.083,1.083,0,0,0-1.019-1.145l-6.672-.386A1.082,1.082,0,0,0,243.471,300.554Z" transform="translate(475.904 3049.02)" fill="#e2e2e2"/>
    <path id="Path_820" data-name="Path 820" d="M246.383,303.207l-2.027-.115a1.068,1.068,0,0,1-.914-.6c.043,0,.1.015.143.015l2.826.171Z" transform="translate(475.925 3049.685)" fill="#cecece"/>
    <path id="Path_821" data-name="Path 821" d="M251.981,300.984l-.129,2.07a1.065,1.065,0,0,1-1.141,1.013l-2.169-.129-1.255,21.731a.492.492,0,0,1-.514.457l-1.512-.086a.481.481,0,0,1-.442-.513v-.058l1.2.071a.476.476,0,0,0,.5-.442l1.269-21.731,2.169.114a1.066,1.066,0,0,0,1.143-1.013l.127-2.055a.978.978,0,0,0-.114-.543A1.093,1.093,0,0,1,251.981,300.984Z" transform="translate(476.234 3049.095)" fill="#cecece"/>
    <path id="Path_822" data-name="Path 822" d="M254.627,322.54l.639-18.2a2.306,2.306,0,0,0,.449-4.089l.053,2.256-1.271.715-1.4-.534-.265-2.158a2.286,2.286,0,0,0-.7,1.574,2.31,2.31,0,0,0,1.339,2.174l-.64,18.2a2.314,2.314,0,1,0,1.79.062Zm-.273,3.4-1.479-.053-.7-1.309.791-1.256,1.479.053.688,1.308Z" transform="translate(477.701 3049.18)" fill="#cecece"/>
    <path id="Path_823" data-name="Path 823" d="M254.971,322.749c-.015-.015-.044-.043-.058-.043a1.858,1.858,0,0,0-.288-.158v-.072l.647-18.131a2.323,2.323,0,0,0,.447-4.1v.015l.043,2.245-1.266.72-1.4-.533-.013-.145-.245-2.014a2.656,2.656,0,0,0-.273.3,2.387,2.387,0,0,0-.432,1.266,2.418,2.418,0,0,0,.663,1.7,2.31,2.31,0,0,0,.345.288,2.54,2.54,0,0,0,.331.186l-.633,18.2a2.317,2.317,0,0,0-1.5,2.072,2.289,2.289,0,0,0,.734,1.77,2.25,2.25,0,0,0,1.5.633,2.325,2.325,0,0,0,2.4-2.23A2.257,2.257,0,0,0,254.971,322.749Zm-.533.633.691,1.309-.776,1.253-1.483-.058-.143-.26-.547-1.051.792-1.252,1.28.043Z" transform="translate(477.7 3049.179)" fill="#cecece"/>
    <path id="Path_824" data-name="Path 824" d="M254.913,322.7a1.858,1.858,0,0,0-.288-.158v-.072a1.333,1.333,0,0,0-.345-.2l.647-18.2a2.321,2.321,0,0,0,1.5-2.072,2.242,2.242,0,0,0-.705-1.741l.043,2.245-1.266.72-1.4-.533-.013-.145-.332-.129-.186-1.583a2.387,2.387,0,0,0-.432,1.266,2.418,2.418,0,0,0,.663,1.7,2.186,2.186,0,0,0,.345.2v.087a2.54,2.54,0,0,0,.331.186l-.633,18.2a2.317,2.317,0,0,0-1.5,2.072,1.853,1.853,0,0,0,1.885,2.13,2.311,2.311,0,0,0,1.741-3.929C254.956,322.732,254.926,322.7,254.913,322.7Zm-.561,3.238-1.483-.058-.143-.26-.187-.015-.705-1.294.792-1.266,1.482.058.143.258.187.015.691,1.309Z" transform="translate(477.7 3049.182)" fill="#e2e2e2"/>
    <path id="Path_825" data-name="Path 825" d="M245.455,307.448l3.089.38-.289,6.062a21.723,21.723,0,0,1-3.149-.514Z" transform="translate(476.299 3050.798)" fill="#005861"/>
    <path id="Path_826" data-name="Path 826" d="M252.446,308.259a23.675,23.675,0,0,0,3.087.209l-.288,6.232a19.7,19.7,0,0,1-3.228-.394Z" transform="translate(477.851 3050.98)" fill="#005861"/>
    <path id="Path_827" data-name="Path 827" d="M267.255,315.274a1.991,1.991,0,0,1-.053.246,1.352,1.352,0,0,1-.26.625c-.22.22-5.6.441-6.04.026s-.1-7.963,0-8.249,6.066-.3,6.262,0a.589.589,0,0,1,.1.352,1,1,0,0,1-.026.311l-5.065.065c-.065.637-.157,6.806-.157,6.806C263.071,315.52,267.255,315.274,267.255,315.274Z" transform="translate(479.796 3050.855)" fill="#e2e2e2"/>
    <path id="Path_828" data-name="Path 828" d="M267.053,315.175a1.988,1.988,0,0,1-.053.246,50.564,50.564,0,0,1-5.312.143,61.836,61.836,0,0,1,0-7.274,41.55,41.55,0,0,1,5.377-.116,1,1,0,0,1-.026.311l-5.065.065c-.065.637-.157,6.807-.157,6.807C262.869,315.421,267.053,315.175,267.053,315.175Z" transform="translate(479.999 3050.953)" fill="#cecece"/>
    <path id="Path_829" data-name="Path 829" d="M265.741,311.8a1.493,1.493,0,0,1-.091.261c-.22.48-4.559.35-5.234-.2v-.649s2.415-.22,5.157-.48A1.057,1.057,0,0,1,265.741,311.8Z" transform="translate(479.738 3051.536)" fill="#e2e2e2"/>
    <path id="Path_830" data-name="Path 830" d="M265.741,311.624a1.493,1.493,0,0,1-.091.261c-.22.48-4.559.35-5.234-.2v-.172a12.312,12.312,0,0,0,2.4.34A10.457,10.457,0,0,0,265.741,311.624Z" transform="translate(479.738 3051.712)" fill="#cecece"/>
    <path id="Path_831" data-name="Path 831" d="M247.6,231.078c-10.027,5.446-5.5,15.015-3.516,18.321h0s-.34,1.468,1.148.95c0,0,6.456-7.255,20.759-11.367C266.956,238.29,261.036,223.784,247.6,231.078Z" transform="translate(475.452 3033.183)" fill="#02afbe"/>
    <path id="Path_832" data-name="Path 832" d="M247.747,244.27s9.2-.464,15.042-3.693.932-4.856.932-4.856l-7.208.749Z" transform="translate(476.892 3034.685)" fill="#02afbe"/>
    <path id="Path_833" data-name="Path 833" d="M243.738,233.33s8.132-4.71,14.618,7.063a12.885,12.885,0,0,1,3.442-1.664,12.175,12.175,0,0,0-12.533-8.866A6.4,6.4,0,0,0,243.738,233.33Z" transform="translate(475.992 3033.368)" fill="#58dce8"/>
    <path id="Path_834" data-name="Path 834" d="M342.96,145.138h-2.4v-2.4a.7.7,0,0,0-1.4,0v2.4h-2.4a.7.7,0,1,0,0,1.4h2.4v2.4a.7.7,0,0,0,1.4,0v-2.4h2.4a.7.7,0,0,0,0-1.4Z" transform="translate(496.729 3013.64)" fill="#f9c9b7"/>
    <path id="Path_842" data-name="Path 842" d="M332.983,174.415a134.936,134.936,0,0,1-15.348,13.041c-4.05,2.675-12.137,7.55-12.137,7.55l-.288-.446a5,5,0,0,0-2.032,2.372,13.882,13.882,0,0,1-2.333,3.422l-.852-3.776,1.979-2.869,4.837-3.618,21.653-18.167Q330.762,173.124,332.983,174.415Z" transform="translate(488.628 3020.354)" fill="#7b7b7b"/>
    <path id="Path_843" data-name="Path 843" d="M308.115,189.549a17.919,17.919,0,0,0-3.64,2.779,6.4,6.4,0,0,0-1.2,3.095,7.378,7.378,0,0,1-2.49,3.335c-.541.454-.795.011-.609-.936s.916-2.172.911-2.569-.489-.392-1.359.017a9.784,9.784,0,0,0-2.785,2.171c-.489.652-1.46,2.452-2.053,2.659s-.894.061-.607-.887a14.661,14.661,0,0,1,1.041-2.836c.314-.618-.283-1.324.656-3.531a17.746,17.746,0,0,1,1.09-1.923,2.374,2.374,0,0,1,.087-.389c.332-.849,3.256-1.334,4.045-1.79A37.977,37.977,0,0,0,304.9,185Z" transform="translate(487.321 3023.291)" fill="#fcb6ac"/>
    <path id="Path_844" data-name="Path 844" d="M369.867,160.493l-18.262.9-23.124,2.7c-6.647-11.539,8.058-17.945,10.872-18.24l8.107-1.218a36.4,36.4,0,0,1,12.328,3.766C363.247,150.174,367.147,154.691,369.867,160.493Z" transform="translate(494.644 3014.225)" fill="#303030"/>
    <path id="Path_845" data-name="Path 845" d="M335.625,144.807s.721,3.387.892,4.341a2.71,2.71,0,0,0,2.667,2.231c7.127-.013,6.9-4.479,6.9-4.479-1.342-2.318-1.872-9-1.872-9" transform="translate(496.633 3012.711)" fill="#fcb6ac"/>
    <path id="Path_846" data-name="Path 846" d="M365.431,168.956c-1.326,3.231-4.167,9.488-7.933,13.789-5.066,5.817-25.81,20.531-25.81,20.531l-.228-.228a16.437,16.437,0,0,0-1.984,1.917c-.495.776-1.1,3.685-1.956,3.967a2.834,2.834,0,0,1-.4.08,2.718,2.718,0,0,1-1.247.469,7.61,7.61,0,0,1-2.627-.415,4.988,4.988,0,0,1-1.247.871,26.072,26.072,0,0,1-3.27,1.515c-.952.255-1.1-.054-.857-.629.228-.6,2.077-1.488,2.747-1.957a10.088,10.088,0,0,0,2.279-2.694c.442-.857.469-1.326.08-1.353s-1.662.656-2.613.8-1.394-.121-.9-.643a7.323,7.323,0,0,1,3.418-2.359,6.424,6.424,0,0,0,3.148-1.073,9.29,9.29,0,0,0,1.836-2l-.361-.362s11-13.7,19.244-24.3c.187-.228.361-.415.549-.643,4.8-8.5,6.647-8.228,6.647-8.228l8.523.576C363.46,167.362,364.452,168.14,365.431,168.956Z" transform="translate(492.621 3019.028)" fill="#7b7b7b"/>
    <path id="Path_847" data-name="Path 847" d="M327.468,192.674a17.924,17.924,0,0,1-2.927,3.522,6.41,6.41,0,0,1-3.142,1.074,7.374,7.374,0,0,0-3.435,2.35c-.475.52-.043.792.911.645s2.208-.824,2.6-.8.37.5-.073,1.357a9.806,9.806,0,0,1-2.285,2.693c-.672.462-2.511,1.357-2.742,1.941s-.1.89.861.643a14.529,14.529,0,0,0,2.877-.923c.631-.287,1.312.338,3.555-.508a17.74,17.74,0,0,0,1.966-1.009,2.547,2.547,0,0,0,.393-.071c.862-.3,1.467-3.2,1.957-3.968a37.951,37.951,0,0,1,3.9-3.544Z" transform="translate(492.287 3025.015)" fill="#fcb6ac"/>
    <path id="Path_848" data-name="Path 848" d="M365.029,162.806c2.619-4.02-5.688-8.766-5.688-8.766l-3.227,1.339c-1.926-.97-5.235-2.428-5.235-2.428l-1.74,4.738a4,4,0,0,0,.2,2.23c-.116,2.714-5.033,17.645-5.244,17.865a204.908,204.908,0,0,0-19.234,24.283,7.294,7.294,0,0,0,1.8,2.42,11.229,11.229,0,0,0,2.367,1.662s15.22-12.365,22.125-19.633C357.58,179.75,362.41,166.825,365.029,162.806Z" transform="translate(494.215 3016.092)" fill="#303030"/>
    <path id="Path_849" data-name="Path 849" d="M328.867,143.674a9.966,9.966,0,0,0,4.532,4.7,8.539,8.539,0,0,0,6.831-.187,10.612,10.612,0,0,0-.242-19.519c-3.532-1.456-9.081-.8-11.76,2.209C325.5,133.935,327.225,140.5,328.867,143.674Z" transform="translate(494.65 3010.469)" fill="#fcb6ac"/>
    <path id="Path_850" data-name="Path 850" d="M345.219,138.344a10.852,10.852,0,0,1-6.317,9.839,8.793,8.793,0,0,1-6.171.442,14.358,14.358,0,0,0,3.951-.738,11.03,11.03,0,0,0,6.505-9.841c-.044-4.128-3.656-8.146-7.481-9.727a7.984,7.984,0,0,0-1.234-.4,10.456,10.456,0,0,1,10.747,10.423Z" transform="translate(495.983 3010.469)" fill="#f2a49c"/>
    <path id="Path_851" data-name="Path 851" d="M327.835,137.017a8.447,8.447,0,0,0,6.4-4.567,4.268,4.268,0,0,0,6.5,2.093A5.158,5.158,0,0,0,345.3,139.9a2.18,2.18,0,0,0,1.337,3.232,2.9,2.9,0,0,0,3.193-2.046,4.4,4.4,0,0,0-.887-3.907A7.144,7.144,0,0,0,342.91,124.4a6.951,6.951,0,0,0-13.072-.241c.087-.228-2-.135-2.157-.124a6.281,6.281,0,0,0-2.462.623C323.785,125.4,325.175,137.288,327.835,137.017Z" transform="translate(494.166 3008.622)" fill="#301b2c"/>
    <path id="Path_852" data-name="Path 852" d="M343.6,137.389c.227-1.373-.563-3.307-1.768-3.583a1.94,1.94,0,0,0-2.563,1.587c-.227,1.373.531,3.7,1.737,3.979A2.221,2.221,0,0,0,343.6,137.389Z" transform="translate(497.443 3011.775)" fill="#fcb6ac"/>
    <path id="Path_853" data-name="Path 853" d="M330.252,151.943l-13,21.854,6.709,6.936s3.789-3.446,6.3-6.322c1.073-1.228,2.126-2.487,3.04-3.6a10.107,10.107,0,0,0,2.108-8.314,24.683,24.683,0,0,0-1.294-5.057C331.6,152.467,330.252,151.943,330.252,151.943Z" transform="translate(492.506 3015.866)" fill="#303030"/>
    <path id="Path_854" data-name="Path 854" d="M320.767,170.033s-13.458,13.3-19.152,20.046l3.294,4.355s18.546-10.8,25.65-21.344C335.659,165.52,320.767,170.033,320.767,170.033Z" transform="translate(488.993 3019.629)" fill="#303030"/>
    <path id="Path_855" data-name="Path 855" d="M353.547,158.88s4.188,9.213,8.6,8.041c3.619-.963,1.706-8.523,1.706-8.523l-4.908-4.431Z" transform="translate(500.659 3016.32)" fill="#303030"/>
    <path id="Path_856" data-name="Path 856" d="M329.014,153.147a39.465,39.465,0,0,0,3.21,19.554l1.379-9.873s-1.868-8.053,0-15.445a6.768,6.768,0,0,0-1.661.713C330.1,149.165,329.26,150.607,329.014,153.147Z" transform="translate(495.111 3014.841)" fill="#02afbe"/>
    <path id="Path_857" data-name="Path 857" d="M341.614,162.378s.674-15.733,9.531-16.466a5.024,5.024,0,0,1,3.3,1.257s-7.661,2.258-8.929,14.841Z" transform="translate(497.978 3014.511)" fill="#02afbe"/>
    <path id="Path_858" data-name="Path 858" d="M342.406,130.172s-2.96,5.626-15.7,6.9c-.961.1-4.327-.647-1.444-3.588Z" transform="translate(494.048 3010.975)" fill="#02afbe"/>
    <path id="Path_859" data-name="Path 859" d="M324.892,135.3h0c-.936-3.074-2.71-11.99,6.553-15.961,13.738-5.888,18.638,2.571,20.423,9.826h0a1.058,1.058,0,0,1,.933.773.881.881,0,0,1-.577.857,25.778,25.778,0,0,1-3.63,1.13c-5.442,1.623-15.805,4.412-22.721,4.442a.669.669,0,0,1-.615,0C324.244,135.973,324.892,135.3,324.892,135.3Z" transform="translate(494.046 3008.097)" fill="#02afbe"/>
    <path id="Path_860" data-name="Path 860" d="M338.967,117.446s-11.259,2.835-7.4,18.46a26.233,26.233,0,0,1-4.766.565s-3.575-11.785,4.227-17.054C331.026,119.416,334.512,115.755,338.967,117.446Z" transform="translate(494.466 3008.016)" fill="#58dce8"/>
  </g>
</svg>
