<svg xmlns="http://www.w3.org/2000/svg" width="222" height="222" viewBox="0 0 222 222">
  <g id="Group_274" data-name="Group 274" transform="translate(-154 -3747)">
    <circle id="Ellipse_15" data-name="Ellipse 15" cx="111" cy="111" r="111" transform="translate(154 3747)" fill="rgba(2,175,190,0.42)"/>
    <g id="planterection" transform="translate(200 3793)">
      <path id="Path_861" data-name="Path 861" d="M120.483,19.125H100.144l-4.125,57.75H91.75v-16.5H86.837L83.345,15H63.026L61.384,36.332l-.472.235a36.757,36.757,0,0,0-9.438-3.88l-1.832-3.25H34.858l-1.836,3.25a36.873,36.873,0,0,0-9.438,3.88l-5.076-2.537L7.654,44.884l2.539,5.076a36.921,36.921,0,0,0-3.82,9.2L1,60.95V76.3L6.375,78.09a36.749,36.749,0,0,0,3.82,9.2L7.656,92.364l10.855,10.855,5.08-2.539c1.7,1,4.7,2.733,6.286,3.64V114h99V76.875H124.61Zm-3.84,4.125.59,8.25H103.393l.59-8.25ZM103.1,35.625h14.429l2.947,41.25H100.153ZM29.875,60.375V90.05A24.736,24.736,0,1,1,60.208,51.64l-.67,8.735ZM65.894,31.5H80.478L82.7,60.375H63.673ZM79.528,19.125l.635,8.25H66.212l.635-8.25ZM24.772,96.58l-.982-.615L19.323,98.2l-6.649-6.649,2.236-4.469-.615-.984a32.733,32.733,0,0,1-4.179-10.067l-.26-1.13L5.125,73.325v-9.4l4.731-1.578.26-1.13a32.712,32.712,0,0,1,4.179-10.067l.615-.982L12.674,45.7l6.649-6.647,4.469,2.234.984-.615a32.683,32.683,0,0,1,10.067-4.179l.889-.2,1.534-2.725h9.966l1.537,2.725.889.2A32.733,32.733,0,0,1,59.726,40.67l.984.615.309-.155-.4,5.266A28.851,28.851,0,1,0,29.875,94.7v4.861c-2.017-1.163-4.4-2.545-5.1-2.982Zm29.853,13.295H34V64.5H87.625V76.875H64.084l-9.459,9.459Zm20.625,0H67V97.5h8.25Zm20.625,0h-8.25V97.5h8.25Zm20.625,0h-8.25V97.5h8.25Zm4.125,0v-16.5h-16.5v16.5H100v-16.5H83.5v16.5H79.375v-16.5h-16.5v16.5H58.75V89.25h66v20.625Zm4.125-24.75H61.666L65.791,81H124.75Z" transform="translate(0 14.875)" fill="#005861"/>
      <path id="Path_862" data-name="Path 862" d="M51,11.125H69.562a2.062,2.062,0,1,1,0,4.125H65.437a6.2,6.2,0,0,0-6.187,6.187V23.5h4.125V21.437a2.065,2.065,0,0,1,2.062-2.062h4.125A6.187,6.187,0,1,0,69.562,7H51Z" transform="translate(53.125 6.375)" fill="#005861"/>
      <path id="Path_863" data-name="Path 863" d="M53.313,23.625h4.125A2.065,2.065,0,0,1,59.5,25.687V27.75h4.125V25.687A6.2,6.2,0,0,0,57.437,19.5H53.313a6.187,6.187,0,1,1,0-12.375H67.75V3H53.313a10.312,10.312,0,1,0,0,20.625Z" transform="translate(44.625 2.125)" fill="#005861"/>
      <path id="Path_864" data-name="Path 864" d="M57,3h4.125V7.125H57Z" transform="translate(59.5 2.125)" fill="#005861"/>
      <path id="Path_865" data-name="Path 865" d="M12.187,13.375H26.625a2.065,2.065,0,0,1,2.062,2.062,6.2,6.2,0,0,0,6.187,6.187h24.75a2.065,2.065,0,0,1,2.063,2.063V25.75h4.125V23.687A6.2,6.2,0,0,0,59.625,17.5H34.875a2.065,2.065,0,0,1-2.062-2.062A6.2,6.2,0,0,0,26.625,9.25H12.187a2.062,2.062,0,0,1,0-4.125H34.875V1H12.187a6.187,6.187,0,0,0,0,12.375Z" transform="translate(5.312)" fill="#005861"/>
      <path id="Path_866" data-name="Path 866" d="M32.187,13.375h6.187A10.324,10.324,0,0,1,48.687,23.687V25.75h4.125V23.687A14.455,14.455,0,0,0,38.375,9.25H32.187a2.062,2.062,0,0,1,0-4.125H54.875V1H32.187a6.187,6.187,0,0,0,0,12.375Z" transform="translate(26.562)" fill="#005861"/>
      <path id="Path_867" data-name="Path 867" d="M35,41h4.125v4.125H35Z" transform="translate(36.125 42.5)" fill="#005861"/>
      <path id="Path_868" data-name="Path 868" d="M39,41h4.125v4.125H39Z" transform="translate(40.375 42.5)" fill="#005861"/>
      <path id="Path_869" data-name="Path 869" d="M31,41h4.125v4.125H31Z" transform="translate(31.875 42.5)" fill="#005861"/>
      <path id="Path_870" data-name="Path 870" d="M27,41h4.125v4.125H27Z" transform="translate(27.625 42.5)" fill="#005861"/>
      <path id="Path_871" data-name="Path 871" d="M19,41h4.125v4.125H19Z" transform="translate(19.125 42.5)" fill="#005861"/>
      <path id="Path_872" data-name="Path 872" d="M23,41h4.125v4.125H23Z" transform="translate(23.375 42.5)" fill="#005861"/>
      <path id="Path_873" data-name="Path 873" d="M23,45h4.125v4.125H23Z" transform="translate(23.375 46.75)" fill="#005861"/>
      <path id="Path_874" data-name="Path 874" d="M19,45h4.125v4.125H19Z" transform="translate(19.125 46.75)" fill="#005861"/>
      <path id="Path_875" data-name="Path 875" d="M23,49h4.125v4.125H23Z" transform="translate(23.375 51)" fill="#005861"/>
      <path id="Path_876" data-name="Path 876" d="M19,49h4.125v4.125H19Z" transform="translate(19.125 51)" fill="#005861"/>
      <path id="Path_877" data-name="Path 877" d="M19,53h4.125v4.125H19Z" transform="translate(19.125 55.25)" fill="#005861"/>
      <path id="Path_878" data-name="Path 878" d="M23,53h4.125v4.125H23Z" transform="translate(23.375 55.25)" fill="#005861"/>
      <path id="Path_879" data-name="Path 879" d="M23,57h4.125v4.125H23Z" transform="translate(23.375 59.5)" fill="#005861"/>
      <path id="Path_880" data-name="Path 880" d="M19,57h4.125v4.125H19Z" transform="translate(19.125 59.5)" fill="#005861"/>
      <path id="Path_881" data-name="Path 881" d="M35,25h4.125v4.125H35Z" transform="translate(36.125 25.5)" fill="#005861"/>
      <path id="Path_882" data-name="Path 882" d="M35,33h4.125v4.125H35Z" transform="translate(36.125 34)" fill="#005861"/>
      <path id="Path_883" data-name="Path 883" d="M35,29h4.125v4.125H35Z" transform="translate(36.125 29.75)" fill="#005861"/>
      <path id="Path_884" data-name="Path 884" d="M53,27h4.125v4.125H53Z" transform="translate(55.25 27.625)" fill="#005861"/>
      <path id="Path_885" data-name="Path 885" d="M53,35h4.125v4.125H53Z" transform="translate(55.25 36.125)" fill="#005861"/>
      <path id="Path_886" data-name="Path 886" d="M53,31h4.125v4.125H53Z" transform="translate(55.25 31.875)" fill="#005861"/>
      <path id="Path_887" data-name="Path 887" d="M53,39h4.125v4.125H53Z" transform="translate(55.25 40.375)" fill="#005861"/>
    </g>
  </g>
</svg>
