<svg xmlns="http://www.w3.org/2000/svg" width="222" height="222" viewBox="0 0 222 222">
  <g id="Group_276" data-name="Group 276" transform="translate(-848 -3747)">
    <circle id="Ellipse_15" data-name="Ellipse 15" cx="111" cy="111" r="111" transform="translate(848 3747)" fill="rgba(2,175,190,0.42)"/>
    <g id="project_management" data-name="project management" transform="translate(896.531 3794)">
      <path id="Path_888" data-name="Path 888" d="M263.423,237.506l-6.693-1.674a28.988,28.988,0,0,0-2.218-5.336l3.552-5.919a2.136,2.136,0,0,0-.32-2.609l-6.662-6.67a2.135,2.135,0,0,0-2.609-.32l-5.919,3.552c-.768-.412-1.558-.792-2.363-1.138a29.179,29.179,0,0,0-2.988-1.08l-1.674-6.694A2.133,2.133,0,0,0,233.46,208h-9.416a2.135,2.135,0,0,0-2.071,1.618l-1.673,6.694a28.959,28.959,0,0,0-5.336,2.218l-5.919-3.552a2.135,2.135,0,0,0-2.609.32l-6.67,6.662a2.135,2.135,0,0,0-.32,2.609L203,230.488a28.885,28.885,0,0,0-2.218,5.336l-6.694,1.673a2.135,2.135,0,0,0-1.618,2.071v9.422a2.133,2.133,0,0,0,1.618,2.07l6.694,1.674A28.945,28.945,0,0,0,203,258.07l-3.552,5.919a2.135,2.135,0,0,0,.32,2.609l6.662,6.662a2.135,2.135,0,0,0,2.608.32l5.919-3.552a29.014,29.014,0,0,0,5.336,2.218l1.674,6.693a2.137,2.137,0,0,0,2.071,1.619h9.422a2.135,2.135,0,0,0,2.07-1.619l1.674-6.693a29.014,29.014,0,0,0,5.336-2.218l5.919,3.552a2.136,2.136,0,0,0,2.609-.32l6.661-6.662a2.135,2.135,0,0,0,.321-2.609L254.5,258.07a29.015,29.015,0,0,0,2.218-5.336l6.693-1.674a2.133,2.133,0,0,0,1.618-2.07v-9.414a2.132,2.132,0,0,0-1.6-2.07Zm-2.65,9.824-6.282,1.572a2.132,2.132,0,0,0-1.554,1.546,24.722,24.722,0,0,1-2.729,6.578,2.139,2.139,0,0,0,0,2.191l3.334,5.55-4.3,4.314-5.55-3.334a2.133,2.133,0,0,0-2.19,0,24.741,24.741,0,0,1-6.579,2.728,2.134,2.134,0,0,0-1.546,1.554L231.8,276.3h-6.088l-1.571-6.282a2.136,2.136,0,0,0-1.546-1.554,24.743,24.743,0,0,1-6.579-2.729,2.137,2.137,0,0,0-2.19,0l-5.55,3.334-4.314-4.3,3.334-5.55a2.133,2.133,0,0,0,0-2.19,24.741,24.741,0,0,1-2.728-6.579,2.136,2.136,0,0,0-1.554-1.546l-6.277-1.584v-6.087l6.282-1.572a2.134,2.134,0,0,0,1.554-1.546,24.719,24.719,0,0,1,2.728-6.578,2.134,2.134,0,0,0,0-2.191l-3.334-5.55,4.3-4.314,5.55,3.334a2.133,2.133,0,0,0,2.19,0,24.74,24.74,0,0,1,6.579-2.728,2.136,2.136,0,0,0,1.546-1.554l1.583-6.277H231.8l1.572,6.282a2.134,2.134,0,0,0,1.545,1.554,24.627,24.627,0,0,1,6.577,2.727,2.138,2.138,0,0,0,2.193,0l5.549-3.334,4.314,4.3-3.334,5.55a2.137,2.137,0,0,0,0,2.19,24.742,24.742,0,0,1,2.729,6.579,2.134,2.134,0,0,0,1.554,1.546l6.277,1.584Zm0,0" transform="translate(-140.771 -152.503)" fill="#005861"/>
      <path id="Path_889" data-name="Path 889" d="M281.545,280a17.076,17.076,0,1,0,17.076,17.076A17.076,17.076,0,0,0,281.545,280Zm0,29.883a12.807,12.807,0,1,1,12.807-12.807A12.807,12.807,0,0,1,281.545,309.883Zm0,0" transform="translate(-193.561 -205.292)" fill="#005861"/>
      <path id="Path_890" data-name="Path 890" d="M368.469,96h4.269v34.152h-4.269Zm0,0" transform="translate(-269.812 -70.386)" fill="#005861"/>
      <path id="Path_891" data-name="Path 891" d="M9.007,108.86V117.4a2.135,2.135,0,0,0,2.135,2.135H55.966v-4.269H13.276v-6.4H38.89a2.141,2.141,0,0,0,.954-.214l8.538-4.269a2.134,2.134,0,0,0,0-3.821l-8.538-4.269a2.138,2.138,0,0,0-.954-.235H13.276V23.48H94.388a8.538,8.538,0,0,0,8.538-8.538V10.673a2.135,2.135,0,0,0-2.135-2.135h-6.4v4.269h4.269v2.135a4.269,4.269,0,1,1-8.538,0v-6.4a4.269,4.269,0,0,1,4.269-4.269h8.538a4.269,4.269,0,0,1,4.269,4.269V57.632h4.269V8.538A8.538,8.538,0,0,0,102.926,0H9.007A8.538,8.538,0,0,0,.469,8.538v6.4A8.538,8.538,0,0,0,9.007,23.48V96.053H6.872a6.4,6.4,0,0,0,0,12.807ZM4.738,14.942v-6.4A4.269,4.269,0,0,1,9.007,4.269H87.035a8.448,8.448,0,0,0-1.186,4.269v6.4a8.448,8.448,0,0,0,1.186,4.269H9.007a4.269,4.269,0,0,1-4.269-4.269Zm37.917,87.515-4.269,2.135h-1.63v-4.269h1.63Zm-37.917,0a2.135,2.135,0,0,1,2.135-2.135H32.487v4.269H6.872A2.135,2.135,0,0,1,4.738,102.457Zm0,0" transform="translate(0)" fill="#005861"/>
      <path id="Path_892" data-name="Path 892" d="M.469,120H4.738v42.69H.469Zm0,0" transform="translate(0 -87.982)" fill="#005861"/>
      <path id="Path_893" data-name="Path 893" d="M136.089,116.263v-4.269H108.34a2.135,2.135,0,0,0-1.509.625l-3.9,3.9a23.4,23.4,0,0,0-30.4,2.348,2.134,2.134,0,0,0,0,3.017L87.62,136.978a2.135,2.135,0,0,0,1.509.63h21.345a2.135,2.135,0,0,0,2.135-2.135,23.379,23.379,0,0,0-6.464-16.133l3.079-3.078ZM108.22,133.339H90.013L77.137,120.463a19.146,19.146,0,0,1,22.734-.885l-5.848,5.848,3.018,3.018,6.1-6.1a19.136,19.136,0,0,1,5.082,10.99Zm0,0" transform="translate(-52.374 -82.111)" fill="#005861"/>
      <path id="Path_894" data-name="Path 894" d="M328.469,112h4.269v4.269h-4.269Zm0,0" transform="translate(-240.485 -82.117)" fill="#005861"/>
      <path id="Path_895" data-name="Path 895" d="M88.469,232h4.269v4.269H88.469Zm0,0" transform="translate(-64.52 -170.099)" fill="#005861"/>
      <path id="Path_896" data-name="Path 896" d="M120.469,232h21.345v4.269H120.469Zm0,0" transform="translate(-87.982 -170.099)" fill="#005861"/>
      <path id="Path_897" data-name="Path 897" d="M72.469,264h34.152v4.269H72.469Zm0,0" transform="translate(-52.789 -193.561)" fill="#005861"/>
      <path id="Path_898" data-name="Path 898" d="M248.469,144h4.269v4.269h-4.269Zm0,0" transform="translate(-181.83 -105.579)" fill="#005861"/>
      <path id="Path_899" data-name="Path 899" d="M280.469,144h17.076v4.269H280.469Zm0,0" transform="translate(-205.292 -105.579)" fill="#005861"/>
      <path id="Path_900" data-name="Path 900" d="M248.469,176h25.614v4.269H248.469Zm0,0" transform="translate(-181.83 -129.041)" fill="#005861"/>
      <path id="Path_901" data-name="Path 901" d="M72.469,296h27.749v4.269H72.469Zm0,0" transform="translate(-52.789 -217.023)" fill="#005861"/>
    </g>
  </g>
</svg>
