<svg xmlns="http://www.w3.org/2000/svg" width="222" height="222" viewBox="0 0 222 222">
  <g id="Group_278" data-name="Group 278" transform="translate(-1542 -3747)">
    <circle id="Ellipse_15" data-name="Ellipse 15" cx="111" cy="111" r="111" transform="translate(1542 3747)" fill="rgba(2,175,190,0.42)"/>
    <g id="maintenance" transform="translate(1586 3790)">
      <path id="Path_919" data-name="Path 919" d="M17.645,60.291A10.645,10.645,0,1,0,7,49.645,10.658,10.658,0,0,0,17.645,60.291Zm0-17.033a6.387,6.387,0,1,1-6.387,6.387A6.4,6.4,0,0,1,17.645,43.258Z" transform="translate(6.775 42.906)" fill="#005861"/>
      <path id="Path_920" data-name="Path 920" d="M133,104.749V88.868L127.183,87a32.067,32.067,0,0,0-1.957-4.746l2.793-5.427L116.791,65.6l-3.747,1.929a19.1,19.1,0,0,0-4.846-5.282,6.671,6.671,0,0,1-2.872-5.325v-17.6a4.262,4.262,0,0,0,4.258-4.258V30.807a4.262,4.262,0,0,0-4.258-4.258V9.516a8.516,8.516,0,1,0-17.033,0V26.549H79.385a6.379,6.379,0,0,0-6-4.258H49.013a6.3,6.3,0,0,0-6-4.258H34.078a6.392,6.392,0,0,0-6.168,4.742L13.494,76.832A19.108,19.108,0,0,0,9.516,104.57v15.66H7.387A6.4,6.4,0,0,0,1,126.617V133H56.357v-6.387a6.4,6.4,0,0,0-6.387-6.387H47.152l-6.82-17.02a19.055,19.055,0,0,0,1.578-18.447l5.148-41.181H73.389a6.379,6.379,0,0,0,6-4.258h8.908v17.6a6.667,6.667,0,0,1-2.87,5.323,19.144,19.144,0,0,0-4.846,5.284L76.83,65.6,65.6,76.83l2.793,5.427A32.157,32.157,0,0,0,66.438,87L60.615,88.87v15.881l5.821,1.865a31.879,31.879,0,0,0,1.957,4.746L65.6,116.789l11.229,11.227,5.427-2.791A31.88,31.88,0,0,0,87,127.181L88.87,133h15.881l1.865-5.821a31.88,31.88,0,0,0,4.746-1.957l5.427,2.791,11.229-11.227-2.793-5.427a31.973,31.973,0,0,0,1.957-4.746ZM87.226,94.393l.494.287h4.831V81.329A1.554,1.554,0,0,1,94.1,79.777h5.414a1.553,1.553,0,0,1,1.55,1.552V94.68H105.9l.494-.287a19.119,19.119,0,0,0,7.024-7.1,19.162,19.162,0,1,1-33.214,0,19.1,19.1,0,0,0,7.024,7.1Zm18.1-59.327H79.777V30.807h25.549ZM92.551,9.516a4.258,4.258,0,0,1,8.516,0V26.549H92.551ZM34.078,22.291h8.938a2.127,2.127,0,0,1,2.112,2.393l-.764,6.123H30.173l1.85-6.934A2.127,2.127,0,0,1,34.078,22.291ZM24.42,77.648a14.9,14.9,0,1,1-14.9,14.9A14.923,14.923,0,0,1,24.42,77.648ZM52.1,126.617v2.129H5.258v-2.129a2.13,2.13,0,0,1,2.129-2.129H49.969A2.13,2.13,0,0,1,52.1,126.617ZM13.775,120.23V108.473A19.073,19.073,0,0,0,37.184,106.8l5.38,13.426ZM24.42,73.389a19.117,19.117,0,0,0-5.849.92L29.036,35.066h14.8L38.293,79.372A19.084,19.084,0,0,0,24.42,73.389Zm51.1-36.195a2.131,2.131,0,0,1-2.129,2.129h-25.8l1.6-12.775h24.2a2.131,2.131,0,0,1,2.129,2.129ZM87.957,65.669a10.881,10.881,0,0,0,4.595-8.746v-17.6h8.516v17.6a10.881,10.881,0,0,0,4.595,8.746,14.764,14.764,0,0,1,6.051,11.978,15.136,15.136,0,0,1-6.387,12.379v-8.7a5.816,5.816,0,0,0-5.81-5.808H94.1a5.816,5.816,0,0,0-5.808,5.81v8.7A15.139,15.139,0,0,1,81.906,77.65,14.765,14.765,0,0,1,87.957,65.669Zm35.773,37.579-.311,1.1a27.625,27.625,0,0,1-2.453,5.955l-.56,1,2.406,4.673-6.839,6.837-4.673-2.4-1,.56a27.626,27.626,0,0,1-5.955,2.453l-1.1.311-1.6,5.016H91.976l-1.605-5.016-1.1-.311a27.626,27.626,0,0,1-5.955-2.453l-1-.56-4.673,2.4-6.839-6.837,2.406-4.673-.56-1a27.626,27.626,0,0,1-2.453-5.955l-.311-1.1-5.016-1.6V91.976l5.016-1.605.311-1.1a27.444,27.444,0,0,1,2.455-5.955l.558-1-2.406-4.671,6.839-6.837,1.088.56a19.008,19.008,0,0,0-1.086,6.279,19.433,19.433,0,0,0,.634,4.895,23.42,23.42,0,1,0,37.055,0,19.433,19.433,0,0,0,.634-4.895,19.008,19.008,0,0,0-1.086-6.279l1.088-.56,6.839,6.837-2.406,4.671.558,1a27.444,27.444,0,0,1,2.455,5.955l.311,1.1,5.016,1.6v9.668Z" transform="translate(0 0)" fill="#005861"/>
      <path id="Path_921" data-name="Path 921" d="M0,0H4.258V4.256H0Z" transform="translate(32.116 43.053) rotate(-77.881)" fill="#005861"/>
      <path id="Path_922" data-name="Path 922" d="M0,0H4.258V4.256H0Z" transform="translate(26.765 68.049) rotate(-77.881)" fill="#005861"/>
      <path id="Path_923" data-name="Path 923" d="M0,0H4.258V4.256H0Z" transform="translate(30.332 51.384) rotate(-77.881)" fill="#005861"/>
      <path id="Path_924" data-name="Path 924" d="M0,0H4.258V4.258H0Z" transform="translate(28.538 59.685) rotate(-77.881)" fill="#005861"/>
    </g>
  </g>
</svg>
