<svg xmlns="http://www.w3.org/2000/svg" width="222" height="222" viewBox="0 0 222 222">
  <g id="Group_277" data-name="Group 277" transform="translate(-1195 -3747)">
    <circle id="Ellipse_15" data-name="Ellipse 15" cx="111" cy="111" r="111" transform="translate(1195 3747)" fill="rgba(2,175,190,0.42)"/>
    <g id="testing" transform="translate(1239 3791)">
      <path id="Path_905" data-name="Path 905" d="M95.663,69.474a6.488,6.488,0,0,1,3.613,1.094l15.162,10.109a10.843,10.843,0,0,0,6.022,1.823h14.145V78.158H120.463a6.5,6.5,0,0,1-3.615-1.094l-6.124-4.083V0h-82.5V13.026H0V134.605H82.5V121.579h28.224V103.314c.137-.033.278-.043.415-.076l10.1-2.524a28.259,28.259,0,0,1,6.855-.845h6.513V95.526h-6.513a32.653,32.653,0,0,0-7.907.973l-10.1,2.524A28.392,28.392,0,0,1,94.3,98.418L90.639,97.2a32.553,32.553,0,0,0-10.31-1.672H61.384A6.522,6.522,0,0,1,67.9,89.013H91.779a6.5,6.5,0,0,0,.762-12.95l1.782-6.59Zm-2.742,33.063a32.5,32.5,0,0,0,10.31,1.674c1.054,0,2.1-.091,3.151-.193v13.219H82.5v-7.1a7.831,7.831,0,0,0,1.67-3.1l1.778-6.585a28.021,28.021,0,0,1,3.316.864ZM81.6,99.918l-1.618,5.987a3.586,3.586,0,0,1-3.456,2.647h-.7a3.578,3.578,0,0,1-3.454-4.512l1.127-4.172h6.836c.423,0,.845.033,1.268.05Zm-12.6-.05-.82,3.037a7.869,7.869,0,0,0,3.728,8.91l-.682,2.722,4.212,1.054.675-2.7h.417a7.884,7.884,0,0,0,1.635-.191v17.559H4.342V17.368H32.566V4.342h73.816V70.086l-4.7-3.132a10.838,10.838,0,0,0-6.022-1.823H95.5L104.532,31.7a7.925,7.925,0,0,0-7.646-9.989h-.7a7.935,7.935,0,0,0-7.646,5.855L82.5,49.9V13.026H36.908v4.342h41.25V65.132H73.666A10.736,10.736,0,0,0,67.218,67.3H45.592v4.342H62.656l-4.342,4.342H45.592v4.342h8.382l-3.628,3.628a6.737,6.737,0,0,0,6.73,11.255c0,.106-.033.207-.033.315a4.346,4.346,0,0,0,4.342,4.342Zm16.724-15.2H77.6L86.768,50.75l7.447,2.482ZM69.061,71.38a6.564,6.564,0,0,1,4.605-1.906h3.543l-1.771,6.552a10.756,10.756,0,0,0-7.275,3.139l-11.3,11.3A2.435,2.435,0,0,1,52.7,88.75a2.419,2.419,0,0,1,.714-1.722Zm2.171,10.855a6.542,6.542,0,0,1,2.979-1.672L73.1,84.671H68.8Zm29.107-51.669L97.681,40.4l-7.447-2.482L92.726,28.7a3.589,3.589,0,0,1,3.456-2.647h.7a3.58,3.58,0,0,1,3.454,4.514ZM89.1,42.12,96.547,44.6l-1.2,4.431L87.9,46.551Zm2.679,38.209a2.171,2.171,0,1,1,0,4.342H90.214l1.175-4.342Zm0,0" transform="translate(0 0)" fill="#005861"/>
      <path id="Path_906" data-name="Path 906" d="M88.447,80H32v21.711H88.447ZM84.105,97.368H36.342V84.342H84.105Zm0,0" transform="translate(-23.316 -58.29)" fill="#005861"/>
      <path id="Path_907" data-name="Path 907" d="M64,112h4.342v4.342H64Zm0,0" transform="translate(-46.632 -81.605)" fill="#005861"/>
      <path id="Path_908" data-name="Path 908" d="M96,112h4.342v4.342H96Zm0,0" transform="translate(-69.947 -81.605)" fill="#005861"/>
      <path id="Path_909" data-name="Path 909" d="M128,112h4.342v4.342H128Zm0,0" transform="translate(-93.263 -81.605)" fill="#005861"/>
      <path id="Path_910" data-name="Path 910" d="M160,112h4.342v4.342H160Zm0,0" transform="translate(-116.579 -81.605)" fill="#005861"/>
      <path id="Path_911" data-name="Path 911" d="M192,112h4.342v4.342H192Zm0,0" transform="translate(-139.895 -81.605)" fill="#005861"/>
      <path id="Path_912" data-name="Path 912" d="M58.053,221.026H53.711v8.684H36.342V212.342H49.368V208H32v26.053H58.053Zm0,0" transform="translate(-23.316 -151.553)" fill="#005861"/>
      <path id="Path_913" data-name="Path 913" d="M84.4,178.344,64.221,198.52l-2.807-2.807-3.07,3.07,5.877,5.877,23.246-23.246Zm0,0" transform="translate(-42.51 -129.945)" fill="#005861"/>
      <path id="Path_914" data-name="Path 914" d="M53.711,365.711H36.342V348.342H49.368V344H32v26.053H58.053V357.026H53.711Zm0,0" transform="translate(-23.316 -250.645)" fill="#005861"/>
      <path id="Path_915" data-name="Path 915" d="M61.414,331.712l-3.07,3.07,5.877,5.877,23.246-23.246-3.07-3.07L64.221,334.52Zm0,0" transform="translate(-42.51 -229.037)" fill="#005861"/>
      <path id="Path_916" data-name="Path 916" d="M256,440h4.342v4.342H256Zm0,0" transform="translate(-186.526 -320.592)" fill="#005861"/>
      <path id="Path_917" data-name="Path 917" d="M152,440h23.882v4.342H152Zm0,0" transform="translate(-110.75 -320.592)" fill="#005861"/>
      <path id="Path_918" data-name="Path 918" d="M168,216h28.224v4.342H168Zm0,0" transform="translate(-122.408 -157.382)" fill="#005861"/>
    </g>
  </g>
</svg>
