<svg xmlns="http://www.w3.org/2000/svg" width="222" height="222" viewBox="0 0 222 222">
  <g id="Group_280" data-name="Group 280" transform="translate(-154 -3747)">
    <circle id="Ellipse_15" data-name="Ellipse 15" cx="111" cy="111" r="111" transform="translate(154 3747)" fill="rgba(2,175,190,0.42)"/>
    <g id="engineer" transform="translate(214.712 3796.469)">
      <g id="Group_151" data-name="Group 151" transform="translate(72.335 103.439)">
        <g id="Group_150" data-name="Group 150" transform="translate(0)">
          <path id="Path_902" data-name="Path 902" d="M348.411,429a2.411,2.411,0,1,0,2.411,2.411A2.412,2.412,0,0,0,348.411,429Z" transform="translate(-346 -429)" fill="#005861"/>
        </g>
      </g>
      <g id="Group_153" data-name="Group 153" transform="translate(24.112 103.439)">
        <g id="Group_152" data-name="Group 152" transform="translate(0)">
          <path id="Path_903" data-name="Path 903" d="M148.411,429a2.411,2.411,0,1,0,2.411,2.411A2.412,2.412,0,0,0,148.411,429Z" transform="translate(-146 -429)" fill="#005861"/>
        </g>
      </g>
      <g id="Group_155" data-name="Group 155" transform="translate(0)">
        <g id="Group_154" data-name="Group 154">
          <path id="Path_904" data-name="Path 904" d="M142.843,90.951a27.248,27.248,0,0,0-10.813-9.7,2.4,2.4,0,0,0-1.369-.63,25.223,25.223,0,0,0-9.915-2.022h-7.233V72.242a27.658,27.658,0,0,0,8.655-13.651h.99A9.638,9.638,0,0,0,130.24,42.41c.152-.129.3-.263.442-.4A7.231,7.231,0,0,0,127.9,30.044,26.614,26.614,0,0,0,108.549,6.512C107.914,3.2,105.178,0,101.457,0H91.812c-3.721,0-6.458,3.2-7.093,6.512A26.614,26.614,0,0,0,65.372,30.041,7.229,7.229,0,0,0,63.03,42.408a9.638,9.638,0,0,0,7.082,16.183h.983a27.715,27.715,0,0,0,6.75,11.846c.605.631,1.247,1.233,1.912,1.8V78.6H72.523a25.225,25.225,0,0,0-9.915,2.022,2.4,2.4,0,0,0-1.369.63A27.626,27.626,0,0,0,46,105.85v15.19a2.411,2.411,0,0,0,2.411,2.411h96.446a2.411,2.411,0,0,0,2.411-2.411V105.85A27.413,27.413,0,0,0,142.843,90.951ZM60.467,118.629H50.822V105.85a23.034,23.034,0,0,1,9.645-18.536Zm62.69-64.86h-.11c.072-.8.11-1.607.11-2.411V44.124a4.822,4.822,0,0,1,0,9.645ZM84.578,11.607V22.424a2.411,2.411,0,0,0,4.822,0V7.957c0-1.494,1.262-3.135,2.411-3.135h9.645c1.149,0,2.411,1.641,2.411,3.135V22.424a2.411,2.411,0,1,0,4.822,0V11.607a21.8,21.8,0,0,1,14.332,18.05H70.246A21.8,21.8,0,0,1,84.578,11.607ZM70.112,53.769a4.822,4.822,0,0,1,0-9.645v7.233c0,.8.038,1.609.11,2.411Zm0-14.467H67.7a2.411,2.411,0,0,1,0-4.822h57.868a2.411,2.411,0,0,1,0,4.822H70.112Zm5.26,16.44c0-.026-.009-.052-.015-.078a22.238,22.238,0,0,1-.423-4.306V44.124h43.4v7.233a22.246,22.246,0,0,1-.423,4.305c-.006.026-.01.052-.015.079a22.841,22.841,0,0,1-8.4,13.561,20.7,20.7,0,0,1-25.724,0,22.342,22.342,0,0,1-2.446-2.2A22.865,22.865,0,0,1,75.372,55.742Zm18.851,62.887H74.934v-5.546a2.411,2.411,0,0,0-4.822,0v5.546H65.289V84.746a20.408,20.408,0,0,1,4.822-1.177V98.616a2.411,2.411,0,0,0,4.822,0V83.426h6.2L94.223,97.17ZM84.578,80.05V75.559a25.394,25.394,0,0,0,24.112,0V80.05L96.634,92.709Zm43.4,38.578h-4.822v-5.546a2.411,2.411,0,0,0-4.822,0v5.546H99.045V97.17l13.089-13.744h6.2v15.19a2.411,2.411,0,0,0,4.822,0V83.569a20.411,20.411,0,0,1,4.822,1.177Zm14.467,0H132.8V87.313a23.034,23.034,0,0,1,9.645,18.537Z" transform="translate(-46)" fill="#005861"/>
        </g>
      </g>
    </g>
  </g>
</svg>
