<svg id="pin" xmlns="http://www.w3.org/2000/svg" width="48.67" height="63.148" viewBox="0 0 48.67 63.148">
  <path id="Path_1131" data-name="Path 1131" d="M49.224,0A24.363,24.363,0,0,0,24.89,24.337c0,9.589,4.014,19.288,11.609,28.05A61.526,61.526,0,0,0,48.031,62.793a2.182,2.182,0,0,0,2.387,0A61.533,61.533,0,0,0,61.95,52.387c7.6-8.762,11.61-18.461,11.61-28.05A24.364,24.364,0,0,0,49.224,0Zm0,58.288c-4.475-3.335-19.971-16.17-19.971-33.952a19.972,19.972,0,1,1,39.944,0C69.2,42.118,53.7,54.953,49.224,58.288Z" transform="translate(-24.89)" fill="#fff"/>
  <path id="Path_1132" data-name="Path 1132" d="M85.009,50.449a9.658,9.658,0,1,0,9.658,9.659A9.67,9.67,0,0,0,85.009,50.449Zm0,14.953a5.3,5.3,0,1,1,5.3-5.294A5.3,5.3,0,0,1,85.009,65.4Z" transform="translate(-60.674 -35.775)" fill="#fff"/>
</svg>
