<svg id="telephone" xmlns="http://www.w3.org/2000/svg" width="46.594" height="47.931" viewBox="0 0 46.594 47.931">
  <path id="Path_1133" data-name="Path 1133" d="M123.375,6.279A21.3,21.3,0,0,0,108.216,0a1.7,1.7,0,0,0,0,3.4,18.04,18.04,0,0,1,18.041,18.041,1.7,1.7,0,0,0,3.4,0A21.3,21.3,0,0,0,123.375,6.279Z" transform="translate(-83.06 0)" fill="#fff"/>
  <path id="Path_1134" data-name="Path 1134" d="M116.387,55.147a1.7,1.7,0,0,0,3.4,0,11.583,11.583,0,0,0-11.569-11.568h0a1.7,1.7,0,0,0,0,3.4A8.182,8.182,0,0,1,116.387,55.147Z" transform="translate(-83.06 -33.708)" fill="#fff"/>
  <path id="Path_1135" data-name="Path 1135" d="M32.517,54.725a5.128,5.128,0,0,0-4.541,2.717,1.7,1.7,0,1,0,2.8,1.918c.747-1.093,1.086-1.265,1.545-1.243,1.47.173,7.26,4.416,7.84,5.743a1.758,1.758,0,0,1-.016,1.24,5.862,5.862,0,0,1-2.911,3.666,5.45,5.45,0,0,1-4.366-.147A48.008,48.008,0,0,1,17.126,58.364l-.005-.005A48,48,0,0,1,6.887,42.632a5.453,5.453,0,0,1-.148-4.367,5.86,5.86,0,0,1,3.665-2.91,1.754,1.754,0,0,1,1.237-.018c1.332.582,5.574,6.372,5.746,7.825.024.477-.149.815-1.241,1.561a1.7,1.7,0,0,0,1.916,2.805,5.124,5.124,0,0,0,2.717-4.545c-.147-2.714-5.426-9.9-7.949-10.828a5.136,5.136,0,0,0-3.509-.02,9.142,9.142,0,0,0-5.671,4.714,8.744,8.744,0,0,0,.089,7.064A51.379,51.379,0,0,0,14.723,60.766l.035.034A51.392,51.392,0,0,0,31.592,71.764a10.078,10.078,0,0,0,3.793.791,7.786,7.786,0,0,0,3.27-.7,9.142,9.142,0,0,0,4.715-5.672,5.137,5.137,0,0,0-.017-3.5C42.422,60.152,35.235,54.873,32.517,54.725Z" transform="translate(-2.949 -24.625)" fill="#fff"/>
</svg>
